<svg width="470" height="435" viewBox="0 0 470 435" fill="none" xmlns="http://www.w3.org/2000/svg">
<path d="M98.8236 229.413C99.7926 232.167 104.939 238.444 113.11 241.203L139.548 246.862C139.548 246.255 139.57 245.653 139.602 245.053C142.275 246.226 146.371 245.496 147.696 245.717L139.642 244.491C140.029 238.891 141.627 233.545 141.848 228.052C141.877 227.319 116.372 222.227 113.463 221.033C112.172 220.504 108.489 212.011 106.333 206.175L115.03 201.059L111.612 194.877L121.955 188.457C123.632 187.215 125.231 185.875 126.743 184.443L132.205 185.618C132.223 185.618 133.426 185.718 133.572 185.718C135.431 185.718 135.908 184.294 136.216 182.687L139.296 160.768C139.698 156.783 140.463 155.063 136.663 154.68L125.752 152.929C123.348 152.641 122.816 155.734 122.829 155.736L120.873 167.939C118.265 167.765 114.148 169.224 113.26 171.896C112.296 174.805 112.136 176.218 112.136 179.342L105.656 184.137L105.207 183.322L101.769 185.536C98.7854 173.521 90.471 180.192 87.4785 182.88C88.3598 179.337 89.5447 175.035 89.5447 173.581C89.5447 173.386 98.4976 171.26 98.3987 166.184C98.2323 157.585 95.5005 151.284 92.0336 147.874C95.1993 145.37 97.4049 142.56 96.8271 139.724C95.2532 132.031 81.2056 139.027 76.9225 146.167C75.533 148.481 74.7978 154.802 77.235 156.254C77.028 157.713 76.9086 159.183 76.8776 160.655C76.7539 165.179 76.4279 171.267 75.9108 173.995C70.807 170.895 63.0368 172.509 56.8201 183.772C58.3602 181.175 38.9683 165.998 25.7683 189.147C25.4198 189.763 22.7263 193.879 19.3763 198.98C13.5958 207.783 5.85475 219.523 4.79804 221.308C-1.43661 231.827 3.20171 237.559 11.1901 237.733L35.2675 238.263C32.8978 244.938 31.3105 250.065 31.3509 251.755L34.5233 251.792C32.972 257.715 33.1743 263.36 34.1928 268.433C35.7802 276.268 39.364 282.731 41.5876 286.731L41.5471 286.758H41.6034C41.9024 287.296 42.1789 287.79 42.4195 288.235L42.4352 288.494L41.5471 286.758L17.4045 355.536C15.7969 358.961 8.39763 368.488 7.43309 371.638C4.95992 370.989 3.20396 377.324 6.24597 377.933C10.8978 378.867 7.66467 376.739 8.85629 380.49C9.26773 381.787 15.2551 381.172 14.8391 381.256C12.7279 387.26 20.9096 384.712 20.7433 385.279C18.767 392.363 27.8795 387.667 27.16 389.151C25.3006 392.981 30.1256 393.342 31.1576 392.915C35.4654 391.163 32.3222 393.953 34.0602 394.823C40.1712 397.878 42.1654 393.287 42.3071 393.253C43.0648 396.895 51.6624 395.071 49.4388 389.445C51.5365 377.357 39.2966 378.331 38.6086 377.552C36.7784 375.479 34.8313 370.009 36.7245 364.345L35.7284 363.902L57.3125 317.537L56.1096 315.206H56.1748L83.0582 367.974C82.8087 368.266 82.6625 368.771 83.5079 369.989C85.9653 376.892 86.0598 384.393 88.0855 387.258C87.411 387.884 88.0113 393.457 88.9107 393.647C92.2 394.356 92.9869 389.627 93.8997 392.394C94.4056 393.926 97.0002 392.496 97.7219 391.894C100.022 389.988 98.9877 389.034 100.222 390.094C103.552 392.954 105.735 387.787 105.769 387.774C107.925 388.956 106.243 389.481 110.077 388.792C113.449 388.186 114.402 385.279 114.596 385.531C116.048 387.413 119.418 386.755 120.383 385.088C121.671 382.843 120.882 383.596 121.431 383.808C123.679 384.679 123.904 384.555 126.049 383.332C127.09 382.741 127.661 381.054 127.719 381.034C128.025 381.865 130.235 382.055 130.979 381.871C131.827 381.67 132.579 381.191 133.114 380.513C133.648 379.835 133.934 378.999 133.922 378.141L133.212 375.734C133.808 375.07 127.793 364.352 116.846 366.878C106.036 369.375 104.953 363.79 103.152 362.594L93.4163 332.636L72.853 269.327C75.0815 269.303 77.306 269.137 79.5126 268.829C79.5261 271.486 79.5396 274.096 79.5396 276.578V268.829C81.6265 268.556 83.6677 268.012 85.6101 267.213L79.5396 267.357V256.641C81.635 256.696 83.762 256.73 85.9406 256.73L79.5396 256.557V252.328L91.186 252.465C91.1995 252.465 97.8141 226.905 101.067 209.275L103.221 208.008L98.8236 229.413ZM120.522 170.107L120.412 170.798C119.944 171.479 119.417 172.12 118.838 172.713C118.56 172.99 118.227 173.552 117.809 173.694C117.943 173.548 119.421 171.655 120.522 170.107ZM42.4352 288.259C42.5881 288.542 42.7298 288.808 42.8534 289.052L48.4743 300.104H48.3709L42.4285 288.498C42.4375 288.416 42.4352 288.339 42.4352 288.259ZM49.4051 389.514C49.0971 389.879 48.0426 390.014 46.761 390.039C48.1842 389.89 49.1735 389.678 49.3939 389.514H49.4051ZM55.8736 314.714L48.58 300.469H48.6834L55.941 314.712L55.8736 314.714ZM79.5104 256.552L70.7441 256.313C73.6219 256.433 76.5268 256.552 79.4991 256.63C79.4721 260.093 79.4856 263.739 79.4991 267.348L72.2617 267.518L72.0234 266.788L61.056 261.979L60.7457 256.043C60.6311 256.026 60.5816 258.239 60.5928 261.775L47.4648 256.019C49.6479 255.919 51.7861 255.871 53.895 255.859L46.6554 255.665L37.8869 251.819L79.5553 252.328C79.5283 253.685 79.5104 255.102 79.4991 256.552H79.5104Z" fill="white"/>
<path d="M154.593 254.232L155.542 248.697L151.59 248.832L148.006 246.419L143.824 246.182L143.455 252.16C144.22 254.87 152.309 255.649 154.593 254.232Z" fill="white"/>
<path d="M144.638 218.102L143.738 221.919L141.737 224.886L143.986 225.193L144.024 230.589C143.516 230.461 142.799 230.301 141.699 230.111L146.151 234.395L149.238 239.945C148.865 240.61 148.842 241.484 149.294 242.412C149.442 242.715 147.338 244.046 148.17 245.823C148.541 246.612 149.272 246.784 151.767 248.077C153.847 249.16 159.259 248.421 159.025 245.181C158.975 244.482 159.304 243.993 159.699 243.468C159.881 243.292 160.037 243.092 160.16 242.872V242.872C160.7 242.163 160.996 241.303 161.003 240.417C161.005 239.52 161.157 238.63 161.453 237.782C161.523 237.604 161.577 237.42 161.615 237.233C161.678 237.012 161.741 236.777 161.804 236.498C162.276 234.437 160.875 232.998 158.755 232.07L159.654 227.334L162.332 227.7L161.224 224.047L161.365 220.265L144.638 218.102ZM150.553 238.94C150.112 239.063 149.72 239.316 149.429 239.664C149.55 239.469 149.713 239.302 149.908 239.177C150.102 239.051 150.323 238.971 150.553 238.94V238.94Z" fill="white"/>
<path d="M119.565 196.459C119.468 196.383 119.364 196.316 119.254 196.259L119.565 196.459Z" fill="white"/>
<path d="M131.736 204.311L136.031 207.079C135.514 205 135.086 202.887 131.736 204.311Z" fill="white"/>
<path d="M140.363 209.868L136.037 207.078C136.534 209.051 137.132 210.995 140.363 209.868Z" fill="white"/>
<path d="M53.8984 255.871L60.7491 256.054L70.743 256.313C65.1356 256.092 59.625 255.835 53.8984 255.871Z" fill="white"/>
<path d="M21.6517 195.499C19.4033 195.028 19.6956 194.375 18.3848 196.186C16.5862 198.67 13.6094 203.955 13.6094 203.955C13.7038 204.397 15.2529 204.196 15.7138 204.541L21.6517 195.499Z" fill="white"/>
<path d="M144.282 217.597L143.299 221.735L140.936 225.238L143.524 225.59L143.555 230.018C143.189 229.936 142.741 229.843 142.188 229.743C142.236 229.192 142.276 228.636 142.299 228.085C142.323 227.461 142.328 227.312 127.235 223.927C121.182 222.568 114.925 221.164 113.623 220.63C113.088 220.409 111.359 217.393 108.827 211.314C108.121 209.62 107.451 207.918 106.88 206.388L106.476 206.625L106.075 206.862L103.641 208.294L103.105 208.608L102.57 208.923L98.3704 229.323L98.3457 229.444L98.3862 229.562C99.3822 232.391 104.682 238.838 112.96 241.632L140.007 247.426V246.862C140.007 246.474 140.007 246.087 140.03 245.699C141.111 246.016 142.232 246.181 143.36 246.189L142.991 252.22L143.011 252.293C143.263 253.178 144.158 253.944 145.597 254.496C147.295 255.093 149.086 255.393 150.889 255.381C152.531 255.381 154.01 255.131 154.835 254.622L155.011 254.513L155.995 248.786C156.681 248.64 157.335 248.378 157.929 248.011C159.024 247.309 159.557 246.319 159.474 245.153C159.435 244.623 159.68 244.245 160.042 243.775C160.247 243.572 160.422 243.342 160.562 243.091C161.136 242.32 161.45 241.391 161.461 240.435C161.453 239.586 161.589 238.742 161.864 237.937L161.877 237.891C161.944 237.717 161.997 237.539 162.037 237.357C162.1 237.136 162.165 236.883 162.23 236.595C162.376 236.027 162.375 235.432 162.23 234.864C162.084 234.295 161.798 233.771 161.396 233.339C160.794 232.686 160.065 232.159 159.253 231.789L160.011 227.828L162.963 228.231L161.679 223.989L161.834 219.869L144.282 217.597ZM160.191 226.947L156.892 226.504L146.687 225.096L144.439 224.788L143.989 224.726L143.526 224.662L142.526 224.527L144.057 222.258L160.87 224.445L161.686 227.14L160.191 226.947ZM160.881 220.657L160.775 223.535L144.327 221.388L144.988 218.605L160.881 220.657ZM140.077 244.752C140.25 242.044 140.716 239.376 141.17 236.781C141.523 234.776 141.878 232.719 142.101 230.649C142.714 230.762 143.187 230.87 143.562 230.95V231.251C143.659 232.736 146.069 233.908 150.725 234.716C151.584 234.866 152.45 234.986 153.275 235.083C154.514 235.471 156.62 236.589 157.423 237.906C157.805 238.535 157.846 239.119 157.545 239.691C157.468 239.87 157.356 240.033 157.214 240.169C157.072 240.305 156.904 240.411 156.719 240.481C155.953 240.716 154.829 240.122 153.74 239.549C152.724 239.015 151.681 238.466 150.732 238.48V238.435C150.633 238.455 150.539 238.477 150.446 238.504C150.344 238.518 150.244 238.541 150.145 238.57C149.698 238.717 149.316 239.01 149.062 239.401C148.956 239.53 148.864 239.669 148.787 239.817C148.394 240.583 148.398 241.506 148.787 242.432C148.738 242.496 148.67 242.575 148.61 242.653C148.16 243.189 147.382 244.105 147.521 245.261C146.914 245.227 146.305 245.227 145.698 245.261C144.066 245.31 141.786 245.385 140.077 244.752ZM147.67 245.812C147.686 245.859 147.706 245.905 147.726 245.952H147.645L147.67 245.812ZM158.554 245.212C158.612 246.043 158.232 246.727 157.43 247.245C155.856 248.263 153.196 248.312 151.975 247.688C151.377 247.375 150.871 247.125 150.467 246.924C149.149 246.271 148.798 246.082 148.594 245.646C148.162 244.727 148.722 243.95 149.329 243.233L149.43 243.116C151.301 244.561 153.455 245.33 155.559 245.33C156.062 245.33 156.564 245.285 157.059 245.197C157.579 245.106 158.086 244.958 158.572 244.754C158.55 244.906 158.544 245.059 158.554 245.212V245.212ZM160.53 240.406C160.503 241.683 159.966 242.374 159.444 243.045L159.343 243.173C158.797 243.698 157.915 244.11 156.886 244.298C155.741 244.506 152.758 244.705 149.673 242.133C149.356 241.435 149.329 240.76 149.606 240.222C149.606 240.202 149.63 240.182 149.642 240.16H149.66C149.7 240.084 149.745 240.01 149.794 239.939C150.016 239.679 150.31 239.488 150.64 239.39C151.357 239.321 152.346 239.832 153.306 240.346C154.329 240.884 155.379 241.435 156.346 241.435C156.565 241.437 156.784 241.405 156.994 241.342C157.541 241.161 157.997 240.78 158.266 240.277V240.306C159.088 240.198 159.877 239.917 160.58 239.483C160.557 239.753 160.539 240.054 160.53 240.406V240.406ZM160.706 233.934C161.011 234.26 161.229 234.656 161.34 235.086C161.45 235.516 161.449 235.967 161.337 236.396C161.288 236.618 161.239 236.804 161.189 236.983C161.189 237.025 161.173 237.069 161.167 237.114C161.108 237.317 161.052 237.501 160.998 237.674C160.726 238.311 160.11 238.971 158.642 239.312C158.738 238.658 158.591 237.992 158.228 237.437C157.738 236.633 156.879 235.907 155.95 235.331C157.039 235.409 157.846 235.438 158.129 235.438H158.224L158.579 235.413L159.094 232.732C159.701 233.032 160.248 233.44 160.706 233.934Z" fill="black"/>
<path d="M134.393 378.123V378.059L133.718 375.732C133.765 375.477 133.718 375.015 133.25 374.144L133.23 374.078H133.215C133.127 373.912 133.026 373.733 132.907 373.536C132.317 372.561 126.856 364.088 116.761 366.42C108.465 368.337 106.169 365.419 104.649 363.488C104.338 363.052 103.975 362.652 103.568 362.3L73.4896 269.755C75.3545 269.713 77.2157 269.574 79.0655 269.338C79.079 271.858 79.0903 274.249 79.0903 276.571H80.0121C80.0121 274.207 80.0121 271.774 79.9873 269.206C81.6558 268.957 83.2952 268.547 84.882 267.981L80.4528 281.732L81.3319 282.005L90.6872 252.904H91.3909L91.5281 252.769C91.6247 252.674 91.6697 252.629 93.5066 245.223C94.5139 241.174 96.0315 234.944 97.5536 228.262C99.2384 220.882 100.554 214.642 101.499 209.541L100.969 209.853L100.438 210.165L81.3498 221.396C73.2558 225.824 67.1223 228.021 62.8123 228.021C60.9791 228.021 59.472 227.624 58.2909 226.832C53.5176 223.648 54.6553 214.876 55.7547 206.383C56.2224 202.777 56.6541 199.372 56.6541 196.44H57.5759C57.5759 199.429 57.1262 202.861 56.6608 206.499C55.5974 214.715 54.4957 223.21 58.799 226.079C62.4593 228.514 69.681 226.732 80.8799 220.608L100.263 209.204L100.65 208.983L100.686 208.963L101.18 208.673L101.709 208.36L102.812 207.712L103.348 207.395L103.883 207.081L105.749 205.985L106.151 205.748L106.554 205.509L114.389 200.899L111.19 195.112L111.442 195.513L111.702 195.351L112.094 195.107L112.202 195.041L122.182 188.842L122.216 188.82C123.84 187.616 125.393 186.32 126.865 184.939L132.156 186.079H132.192L132.475 186.101C133.113 186.152 133.455 186.176 133.554 186.176C136 186.176 136.425 183.962 136.652 182.776L139.737 160.826C139.786 160.326 139.845 159.861 139.897 159.429C140.121 157.591 140.279 156.265 139.548 155.364C139.038 154.737 138.161 154.39 136.706 154.244L125.791 152.49C123.526 152.22 122.553 154.441 122.357 155.652C122.356 155.664 122.356 155.677 122.357 155.69L120.466 167.483C117.647 167.461 113.721 169.033 112.806 171.768C111.842 174.677 111.666 176.136 111.657 179.127L105.812 183.453L105.711 183.528L105.337 183.803L105.065 184.004L105.045 183.967L102.289 185.738L101.886 185.999L101.481 186.258L97.0522 189.11L96.6341 189.38L77.5232 201.694C77.4609 201.761 77.3763 201.803 77.2848 201.814L74.7622 202.387L76.77 201.094V201.105L77.1477 200.902C78.6383 200.089 79.5647 199.471 80.1897 198.887L101.259 185.319L101.657 185.063L102.053 184.808C101.115 181.452 99.6603 179.346 97.6975 178.527C94.4329 177.163 90.6332 179.652 88.286 181.578C88.3422 181.356 88.3961 181.146 88.4523 180.929C89.1965 178.009 89.9025 175.239 90.0014 173.866L90.3432 173.747C92.4746 173.003 98.9566 170.74 98.8666 166.166C98.7048 157.784 96.1327 151.485 92.7332 147.898C95.7977 145.392 97.8774 142.558 97.2838 139.636C96.8679 137.595 95.5908 136.341 93.5898 136.007C88.6839 135.19 79.9154 140.291 76.5294 145.935C75.0657 148.37 74.3283 154.583 76.743 156.467C76.5566 157.851 76.4456 159.244 76.4102 160.64C76.2596 166.078 75.9313 170.8 75.5649 173.271C74.588 172.761 73.5306 172.419 72.4374 172.257C66.902 171.431 61.4206 175.151 57.0768 182.424C57.0498 182.37 57.0183 182.317 56.9868 182.262C55.7053 180.077 50.4666 176.025 43.5935 176.025H43.4833C38.5527 176.056 31.4075 178.317 25.3662 188.915C25.1121 189.358 23.5675 191.727 21.4406 194.984C21.0606 194.891 20.7661 194.798 20.5233 194.72C19.2889 194.322 19.0101 194.536 18.0096 195.92C16.2109 198.397 13.3286 203.516 13.2072 203.733L13.124 203.879L13.1577 204.045C13.2769 204.614 13.9536 204.683 14.6079 204.749C14.7136 204.761 14.8574 204.774 14.9968 204.794C10.0617 212.304 5.23006 219.665 4.39817 221.067C0.481564 227.675 1.16505 231.709 2.42637 233.93C3.93051 236.587 7.03997 238.086 11.1792 238.176L34.6248 238.692C32.3518 245.142 30.8476 250.068 30.8881 251.755V252.198L33.9211 252.233C30.2945 267.089 37.3903 280.147 41.0528 286.732L16.9664 355.365C16.2694 356.84 14.4775 359.475 12.5821 362.264C9.80093 366.353 7.79091 369.378 7.10967 371.145C6.69472 371.137 6.28819 371.26 5.94952 371.497C4.68596 372.342 3.8878 374.596 4.24078 376.334C4.46562 377.454 5.14013 378.181 6.14288 378.38C6.79411 378.522 7.45567 378.613 8.12142 378.652C8.06296 379.095 8.12142 379.719 8.40471 380.629C8.70824 381.583 10.4462 381.918 14.2009 381.736C13.8749 382.978 13.9918 383.95 14.5449 384.654C15.6803 386.076 18.2232 385.839 19.7431 385.697L20.1613 385.662C19.8218 387.169 19.9814 388.25 20.6402 388.954C21.8003 390.194 24.1476 389.755 25.6989 389.468C25.989 389.414 26.3195 389.352 26.5713 389.319C25.9395 390.869 26.4004 391.843 26.9243 392.388C28.0822 393.594 30.4632 393.694 31.322 393.346C32.5092 392.864 32.9431 392.804 33.1027 392.813C33.0981 392.944 33.0846 393.075 33.0622 393.205C32.9813 393.778 32.8374 394.741 33.8402 395.239C35.2971 395.968 36.6551 396.329 37.8872 396.329C38.7235 396.338 39.5498 396.15 40.2976 395.781C41.0453 395.412 41.6927 394.873 42.186 394.208C42.5995 394.836 43.2441 395.283 43.9847 395.454C44.9144 395.672 45.8858 395.645 46.8017 395.377C47.7176 395.108 48.5457 394.607 49.2031 393.924C50.2958 392.729 50.5386 391.13 49.8978 389.412C50.4464 386.135 49.999 383.476 48.5668 381.51C46.332 378.44 42.2894 377.806 40.1153 377.468C39.7099 377.418 39.3086 377.34 38.9147 377.233C37.1003 375.143 35.3623 369.845 37.1497 364.498L37.2779 364.115L36.3268 363.672L57.3533 318.527L82.5347 367.943C82.1772 368.669 82.6629 369.548 83.1058 370.19C84.23 373.378 84.8572 376.699 85.4081 379.635C86.0106 382.843 86.5323 385.631 87.562 387.271C87.1123 388.436 87.4878 391.418 87.8408 392.656C88.0994 393.541 88.4006 393.984 88.8233 394.086C89.0721 394.14 89.3262 394.168 89.581 394.168C91.0874 394.168 92.0744 393.145 92.6972 392.498C92.862 392.315 93.0417 392.146 93.2346 391.991C93.3397 392.159 93.4199 392.34 93.4729 392.529C93.538 392.752 93.6601 392.955 93.8274 393.118C93.9946 393.281 94.2016 393.4 94.4284 393.462C95.7347 393.827 97.6323 392.576 98.0258 392.235C98.7235 391.696 99.2962 391.017 99.7053 390.242L99.9301 390.428C100.863 391.232 101.819 391.535 102.768 391.349C104.292 391.042 105.371 389.512 105.965 388.409C106.215 388.577 106.442 388.776 106.639 389.003C107.264 389.667 107.595 389.693 110.16 389.224C112.766 388.755 114.032 387.01 114.596 386.186C114.985 386.526 115.44 386.782 115.935 386.939C116.429 387.096 116.951 387.15 117.467 387.099C118.904 387.003 120.206 386.29 120.783 385.285C121.047 384.825 121.233 384.486 121.35 384.24C123.634 385.126 124.035 384.975 126.281 383.698C127.036 383.268 127.546 382.407 127.854 381.803C128.792 382.396 130.514 382.429 131.099 382.285C132.045 382.061 132.887 381.528 133.485 380.771C134.083 380.015 134.403 379.082 134.393 378.123V378.123ZM105.783 184.62L106.156 184.345L106.257 184.27L112.591 179.594V179.373C112.591 176.335 112.741 174.931 113.692 172.066C114.43 169.852 117.87 168.442 120.332 168.407C120.491 168.407 120.644 168.407 120.795 168.418C120.898 168.418 120.999 168.427 121.098 168.444C120.997 168.617 120.855 168.834 120.689 169.078C120.523 169.321 120.307 169.633 120.084 169.943C119.057 171.376 117.703 173.129 117.465 173.413L116.419 174.659L117.973 174.13C118.389 173.988 118.697 173.612 118.944 173.311C119.03 173.207 119.111 173.107 119.169 173.041C119.331 172.883 119.497 172.7 119.666 172.505C119.835 172.31 120.051 172.047 120.248 171.79C120.446 171.533 120.644 171.263 120.846 170.975C121.946 169.425 123.115 167.446 124.19 165.633C125.386 163.62 126.872 161.114 127.337 160.901C127.906 160.709 128.653 160.549 128.983 160.901C129.383 161.317 129.314 162.467 128.833 163.961C128.428 164.424 127.886 165.464 127.061 167.061C126.078 168.973 124.734 171.593 123.983 172.007L124.433 172.799C125.357 172.29 126.445 170.269 127.881 167.47C128.178 166.892 128.48 166.306 128.752 165.805L129.008 165.925L129.217 165.546C131.175 161.993 132.365 161.313 133.012 161.371C133.118 161.366 133.224 161.389 133.317 161.438C133.411 161.487 133.49 161.56 133.545 161.65C134.166 162.757 132.306 166.39 131.522 167.944C131.22 168.535 130.998 168.969 130.908 169.224C129.817 171.36 127.618 175.476 127.169 175.866C127.208 175.839 127.252 175.819 127.299 175.808L127.508 176.694C127.733 176.643 127.942 176.592 129.217 174.338L128.864 175.405L131.744 169.607C132.628 167.835 133.111 167.581 133.208 167.548C133.448 167.769 133.732 169.257 133.102 172.503C132.371 176.266 130.854 179.798 126.582 183.967C126.454 184.093 126.323 184.219 126.188 184.345L125.784 184.724C124.475 185.918 123.107 187.046 121.683 188.105L111.768 194.253L111.745 194.266L110.81 192.772L106.48 185.891L105.717 184.675L105.783 184.62ZM128.095 158.052C127.951 158.333 127.614 158.767 127.315 158.827C126.047 159.081 126.622 157.649 126.778 157.206C127.34 155.614 128.875 156.513 128.095 158.058V158.052ZM128.163 380.855L128.005 380.43L127.573 380.583C127.376 380.651 127.315 380.791 127.209 381.026C127.023 381.435 126.535 382.524 125.829 382.921C123.745 384.105 123.65 384.161 121.649 383.383C121.625 383.293 121.573 383.213 121.502 383.152C121.43 383.092 121.341 383.054 121.247 383.045C121.136 383.035 121.025 383.064 120.933 383.126C120.842 383.188 120.775 383.28 120.745 383.386C120.526 383.888 120.273 384.376 119.99 384.847C119.567 385.582 118.533 386.127 117.413 386.202C116.381 386.271 115.493 385.923 114.974 385.248C114.926 385.185 114.865 385.135 114.793 385.102C114.722 385.068 114.644 385.052 114.565 385.055C114.27 385.055 114.115 385.276 113.89 385.62C113.375 386.368 112.305 387.924 110.007 388.338C107.709 388.752 107.624 388.702 107.334 388.389C106.957 387.974 106.508 387.628 106.007 387.369L105.798 387.256L105.573 387.358C105.456 387.416 105.366 387.517 105.322 387.639C104.539 389.237 103.539 390.267 102.576 390.459C101.924 390.592 101.227 390.351 100.53 389.744C100.061 389.341 99.8222 389.14 99.4849 389.204C99.1477 389.268 99.0353 389.512 98.9206 389.755C98.5652 390.453 98.0559 391.063 97.43 391.542C96.8724 392.003 95.393 392.791 94.6735 392.587C94.5913 392.567 94.5164 392.525 94.4575 392.465C94.3987 392.405 94.3582 392.33 94.3407 392.248C94.1699 391.73 93.927 391.188 93.4302 391.075C92.9333 390.962 92.4926 391.383 92.0205 391.872C91.3257 392.594 90.4601 393.486 89.0549 393.2C88.576 392.742 88.1398 389.516 88.2702 388.13C88.2792 387.962 88.3133 387.795 88.3714 387.637H88.4006L88.9133 387.493L132.589 375.205L132.704 375.592L132.846 376.071L132.983 376.54L133.471 378.194C133.464 378.937 133.205 379.656 132.735 380.238C132.266 380.82 131.612 381.23 130.879 381.404C130.105 381.603 128.324 381.302 128.163 380.862V380.855ZM97.8099 363.537C97.7762 358.554 97.7717 352.514 97.8099 347.623L102.567 362.26L97.8099 363.537ZM96.8904 363.783L95.1277 364.257C92.686 363.438 89.3382 363.648 86.521 363.827C85.5632 363.887 84.6527 363.945 83.8545 363.958C83.0923 361.208 83.1283 355.753 83.2002 349.908C84.6257 350.001 86.0938 350.129 87.5508 350.247C90.3792 350.486 93.3043 350.731 95.7302 350.731V349.824C93.3425 349.824 90.559 349.589 87.6362 349.343C86.159 349.219 84.6661 349.093 83.2182 349C83.2902 343.062 83.3531 336.963 82.5999 333.082C84.3986 333.143 86.1973 333.19 88.1173 333.19C89.6912 333.19 91.3347 333.159 93.0997 333.086L96.9353 344.887C96.8476 350.187 96.8476 357.79 96.8881 363.79L96.8904 363.783ZM43.9127 306.538C43.6384 303.715 43.4249 301.481 43.3686 300.651C44.8773 300.737 46.5703 300.826 48.3802 300.914L55.4085 314.708C51.3615 314.513 47.7394 314.322 44.6322 314.141C44.4029 311.663 44.1601 309.104 43.9127 306.538ZM42.9482 273.842C42.9707 272.053 42.9909 270.228 43.0089 268.366C47.3167 268.406 51.9775 268.741 56.5507 269.068L60.2222 269.327C60.2919 273.12 60.3953 277.218 60.5257 281.143C60.5505 281.876 60.5774 282.651 60.6067 283.459C53.9336 283.107 46.9727 283.543 42.8718 285.452C42.8538 281.564 42.8987 277.752 42.9482 273.842V273.842ZM43.0359 263.044C43.0359 262.017 43.1033 261.018 43.1708 260.053C43.2697 258.614 43.3507 257.42 43.1708 256.55C43.8969 256.61 44.6261 256.623 45.3539 256.59C50.5251 256.274 55.3905 256.267 60.2177 256.384C60.1435 257.177 60.094 259.092 60.1368 263.965C60.1502 265.366 60.1705 266.861 60.1952 268.415L56.5979 268.163C52.009 267.833 47.3347 267.499 42.9977 267.456C43.0231 266.013 43.0359 264.542 43.0359 263.044V263.044ZM60.6898 256.497L60.7056 256.395H61.0406C60.9926 256.436 60.9366 256.465 60.8762 256.483C60.8158 256.5 60.7523 256.505 60.6898 256.497ZM61.5217 300.536C57.2139 300.383 52.8341 300.204 48.967 300.022L43.2652 288.859C43.155 288.638 43.0404 288.405 42.8965 288.157C42.8965 287.595 42.883 287.035 42.8785 286.477C46.7232 284.484 53.8392 284.041 60.6404 284.4C60.8315 289.428 61.117 295.519 61.5127 300.536H61.5217ZM42.928 290.214L47.899 299.971C46.242 299.891 44.6974 299.81 43.3102 299.732C43.1123 296.42 42.9932 293.272 42.928 290.214ZM49.4481 300.963C53.2231 301.14 57.4455 301.313 61.5892 301.459C61.9264 305.46 62.3424 308.648 62.8438 309.846C63.1563 310.59 63.2934 312.744 63.3879 315.073L61.1395 314.973C59.5237 314.902 57.9626 314.829 56.4562 314.752L49.4481 300.963ZM79.7558 305.291C79.8637 308.391 79.9941 312.049 80.1605 315.713C75.9763 315.58 70.4386 315.374 64.3119 315.113C64.2197 312.629 64.0646 310.377 63.6959 309.498C63.2799 308.504 62.8797 305.734 62.5177 301.49C69.0065 301.711 75.2299 301.862 79.1982 301.862H79.6321C79.6703 302.9 79.713 304.069 79.7558 305.291ZM63.4193 315.996C63.4418 316.74 63.4598 317.486 63.4778 318.195C63.5745 322.02 63.6352 323.105 63.8825 323.464L64.6469 322.952L64.6649 322.986C64.512 322.623 64.4536 320.258 64.3996 318.172C64.3816 317.471 64.3636 316.749 64.3434 316.036C70.2408 316.291 75.8796 316.501 80.2032 316.634C80.4887 322.707 80.8777 328.689 81.4735 332.132L79.1127 332.034C76.1 331.906 72.9815 331.773 69.4584 331.773V332.681C72.9635 332.681 76.0685 332.814 79.0723 332.94L81.6466 333.046C82.4246 336.81 82.3616 342.958 82.2896 348.945C79.0723 348.765 76.1314 348.783 74.1012 349.365L56.9464 315.693C59.0958 315.803 61.2699 315.903 63.4193 315.996ZM82.4156 332.174C81.8175 328.822 81.4173 322.8 81.1273 316.663C83.7533 316.738 85.8128 316.782 87.0359 316.782C87.3417 316.782 87.5935 316.782 87.7891 316.782L92.8006 332.203C88.938 332.349 85.6464 332.291 82.4156 332.174ZM81.0845 315.741C80.9159 312.06 80.7878 308.382 80.6776 305.26C80.6304 303.932 80.5899 302.798 80.5539 301.855C81.5972 301.844 82.4043 301.815 82.9147 301.771L87.499 315.881C86.5098 315.888 84.2435 315.839 81.0845 315.741V315.741ZM82.6269 300.886C82.1413 300.921 81.4263 300.941 80.518 300.95C80.428 298.707 80.3673 297.751 80.2931 297.498L79.414 297.77C79.4702 297.992 79.5354 299.214 79.6051 300.954C75.6998 300.954 69.2178 300.799 62.4503 300.567C62.1175 296.404 61.8208 290.958 61.5757 284.444C66.522 284.763 71.1941 285.494 74.2293 286.342L74.4812 285.47C71.3178 284.584 66.5513 283.833 61.5397 283.512C61.5172 282.89 61.4948 282.261 61.4745 281.622C61.3239 277.214 61.2205 273.036 61.1553 269.387C64.6222 269.608 68.0622 269.79 71.3245 269.79C71.7292 269.79 72.1272 269.79 72.5251 269.79L82.6269 300.886ZM73.1839 268.862L72.4667 266.648L71.5898 266.941L72.2238 268.889C68.6984 268.927 64.9325 268.738 61.1305 268.488C61.0226 262.088 61.0383 257.485 61.1305 256.42C64.0534 256.499 66.9762 256.623 69.944 256.75C72.9118 256.876 75.9291 257.002 79.0273 257.086C79.0026 260.766 79.0273 264.642 79.0408 268.444C77.0989 268.692 75.1442 268.832 73.1861 268.862H73.1839ZM85.2282 266.87C83.5388 267.549 81.7735 268.027 79.9694 268.296C79.9491 264.545 79.9311 260.726 79.9559 257.102C81.9209 257.148 83.9174 257.179 85.9522 257.179V256.271C83.9287 256.271 81.9277 256.24 79.9626 256.192C79.9626 255.029 79.9873 253.889 80.0076 252.778L89.7227 252.893L85.2282 266.87ZM11.1994 237.273C7.3997 237.191 4.56904 235.847 3.23128 233.489C1.58999 230.611 2.269 226.467 5.19409 221.534C6.01923 220.143 10.8824 212.738 15.831 205.203L16.1997 204.643L16.7595 203.793C17.7353 202.305 18.7021 200.837 19.6194 199.438C19.8645 199.438 20.1163 199.449 20.3839 199.449C22.3264 199.449 24.8671 199.299 27.5313 199.139C30.2811 198.978 33.1252 198.809 35.3735 198.809H36.6326C39.9557 198.809 46.0127 198.794 49.8978 199.031L50.379 199.062L50.7072 199.086C48.9962 203.596 47.1099 208.518 45.2393 213.293C44.7896 214.451 44.3399 215.6 43.8903 216.732C41.4171 223.046 39.0766 228.851 37.4105 232.787L37.2532 232.823L36.9609 232.894L36.7473 232.942L36.6506 233.133V233.153C34.9733 236.474 34.735 237.437 34.789 237.802L11.1994 237.273ZM22.4006 195.207C24.4466 192.081 25.9148 189.823 26.1688 189.375C31.9943 179.158 38.8045 176.977 43.4811 176.948H43.6025C50.0237 176.948 55.0465 180.77 56.1932 182.731C56.4742 183.209 56.4697 183.469 56.418 183.548L56.3775 183.632C56.3748 183.644 56.371 183.655 56.3663 183.666C56.0425 184.613 55.6221 185.802 55.123 187.184C54.0595 190.115 52.634 193.954 51.022 198.189L50.7117 198.165L50.2306 198.13C46.3724 197.875 40.2749 197.886 36.6169 197.893H35.3735C33.0982 197.893 30.2406 198.061 27.4774 198.225C24.7142 198.389 22.1421 198.544 20.2197 198.528L22.0184 195.769L22.3961 195.194L22.4006 195.207ZM49.9945 231.441C47.0109 233.414 42.3209 235.923 36.5045 237.076L36.1605 237.142L35.9356 237.184L35.7985 237.213C36.2632 236.022 36.7884 234.854 37.3723 233.715H37.406L37.514 233.691L38.0738 233.554C44.9762 231.807 50.7432 228.258 54.453 223.471C54.8492 224.532 55.2994 225.572 55.802 226.588C55.2938 227.244 53.2388 229.303 49.9945 231.441ZM93.4347 136.904C95.049 137.174 96.0405 138.155 96.38 139.817C96.8949 142.348 94.9388 144.91 92.0699 147.254L91.6945 147.553C91.5753 147.648 91.4516 147.743 91.328 147.836C87.3079 150.898 81.8849 153.504 78.7822 154.999L77.8357 155.457L77.3343 155.701L77.2781 155.729C77.1443 155.617 77.0243 155.489 76.9206 155.349C75.4862 153.418 76.1539 148.35 77.3231 146.4C80.2751 141.48 87.8003 136.828 92.4634 136.828C92.7887 136.827 93.1136 136.852 93.4347 136.904V136.904ZM76.8374 170.114C77.0623 167.523 77.2376 164.083 77.3321 160.678C77.3672 159.302 77.4775 157.928 77.6626 156.564C78.0897 156.343 78.6024 156.106 79.1869 155.825C82.5887 154.188 87.9712 151.6 92.0025 148.498C92.6842 149.217 93.2976 149.996 93.8349 150.825C95.6335 153.569 97.7964 158.461 97.9448 166.204C98.0213 170.123 92.0115 172.221 90.0352 172.91C89.291 173.171 89.0909 173.24 89.0909 173.592C89.0909 174.717 88.3107 177.774 87.5575 180.728C87.3911 181.392 87.2248 182.029 87.0696 182.649C86.9032 182.8 86.7504 182.939 86.62 183.059C86.4288 183.234 86.231 183.415 86.1703 183.453C85.9612 183.595 85.0663 183.471 84.3109 183.342C84.2866 183.244 84.2574 183.147 84.2232 183.052C84.1625 182.897 84.0793 182.683 81.8287 181.471L81.4443 181.266L81.433 181.283C80.7136 178.06 78.8902 175.379 76.4057 173.776C76.5519 172.945 76.6958 171.776 76.8374 170.105V170.114ZM79.142 193.274C79.8682 190.839 80.6484 188.233 81.1655 186.074C81.2037 185.924 81.2374 185.776 81.2711 185.632C81.3049 185.488 81.3431 185.317 81.3768 185.164C81.478 184.7 81.5634 184.263 81.6286 183.867C81.6556 183.71 81.6781 183.559 81.6961 183.413C81.7141 183.267 81.7343 183.105 81.7478 182.97C81.7613 182.835 81.7725 182.638 81.7748 182.49C81.9996 182.618 82.2379 182.749 82.4493 182.875L82.8113 183.097C83.0096 183.211 83.2017 183.336 83.3868 183.471C83.4063 183.533 83.4243 183.599 83.4408 183.67C83.4766 183.827 83.5021 183.986 83.5172 184.146C83.565 184.785 83.5545 185.428 83.4858 186.066C83.47 186.218 83.4543 186.373 83.4363 186.533C83.4183 186.692 83.4003 186.832 83.3801 186.975C83.0451 189.462 82.2559 192.479 81.5364 194.206C81.2666 194.846 81.0868 195.375 80.9069 195.843C80.3516 197.37 80.1065 198.057 78.3506 199.164C78.065 199.347 77.7413 199.542 77.368 199.755C77.5861 198.479 78.436 195.637 79.142 193.265V193.274ZM14.7001 203.842C14.5674 203.828 14.383 203.808 14.2302 203.784C14.9496 202.527 17.2767 198.493 18.7606 196.443C19.1023 195.969 19.4351 195.537 19.6059 195.448C19.6914 195.409 19.8465 195.448 20.2377 195.579C20.4198 195.637 20.6424 195.707 20.9122 195.783L15.5364 203.975C15.2619 203.907 14.9822 203.863 14.7001 203.842ZM34.8767 252.235L79.088 252.771C79.0655 253.878 79.052 255.014 79.043 256.172C75.9561 256.085 72.9455 255.95 69.9935 255.835C61.7691 255.488 54.001 255.158 45.309 255.687C44.4742 255.723 43.6379 255.699 42.8066 255.616C42.715 255.492 42.6033 255.383 42.476 255.295C41.9769 254.952 41.2867 254.974 40.3761 255.353L40.0276 255.31C38.5435 255.097 37.0481 254.967 35.5489 254.923V255.831C37.0105 255.875 38.4684 256.002 39.9152 256.212C40.6819 256.305 41.4598 256.398 42.2152 256.473C42.4401 257.201 42.3456 258.616 42.2512 259.995C42.186 260.932 42.1141 261.988 42.1141 263.048C42.1141 264.545 42.1073 266.015 42.0938 267.459C39.5768 267.436 37.0613 267.589 34.5664 267.917C33.6423 263.104 33.4849 257.795 34.8767 252.242V252.235ZM34.7485 268.798C37.1813 268.483 39.6334 268.335 42.0871 268.355C42.0721 270.215 42.0519 272.038 42.0264 273.824C41.9747 277.898 41.9274 281.867 41.9522 285.93C41.8825 285.972 41.8128 286.014 41.7453 286.058C39.5824 282.171 36.3133 276.102 34.7485 268.805V268.798ZM41.6621 287.799L41.9747 288.37C42.0264 291.988 42.1478 295.711 42.3861 299.661C40.2929 299.535 38.6336 299.418 37.6174 299.314L41.6621 287.799ZM37.3094 300.197C38.3503 300.312 40.1445 300.443 42.4401 300.582V300.66C42.4918 301.477 42.6986 303.631 42.9864 306.609C43.1865 308.685 43.4361 311.285 43.6946 314.07C38.0895 313.731 34.2876 313.428 32.7452 313.184L37.3094 300.197ZM32.4462 314.052C34.0718 314.327 38.3166 314.654 43.7868 314.984C44.3129 320.741 44.8458 327.106 45.0189 331.257C40.4098 330.633 34.11 330.006 29.9123 329.942C29.5931 327.635 29.1591 325.902 28.5836 325.056L32.4462 314.052ZM28.1744 326.229C28.5116 327.059 28.7859 328.339 29.004 329.942C28.2785 329.938 27.5533 329.975 26.8321 330.053L28.1744 326.229ZM26.4904 331.025C27.3588 330.884 28.2388 330.824 29.1187 330.845C29.6066 335.052 29.7639 341.081 29.7145 347.008C26.1329 346.733 22.3489 346.425 21.1708 346.197L26.4904 331.025ZM20.8695 347.043C21.7958 347.264 24.0172 347.47 29.7055 347.906C29.6493 352.5 29.4694 356.971 29.2221 360.418L17.9804 355.286L20.8695 347.043ZM44.2522 394.564C43.6767 394.411 42.9549 394.042 42.7706 393.16L42.6761 392.704L42.2152 392.811C42.0174 392.855 41.9319 392.986 41.815 393.165C40.1805 395.678 37.6444 396.098 34.2786 394.416C33.9099 394.23 33.9099 393.94 33.9976 393.309C34.0605 392.866 34.1302 392.372 33.73 392.065C33.5518 391.938 33.3355 391.875 33.1162 391.885C32.6665 391.885 31.992 392.078 30.9938 392.483C30.5014 392.684 28.5049 392.665 27.6213 391.741C27.0907 391.19 27.0817 390.377 27.592 389.326C27.6557 389.218 27.686 389.095 27.6793 388.97C27.6725 388.846 27.6289 388.726 27.5538 388.626C27.2503 388.237 26.6545 388.349 25.555 388.553C24.206 388.803 22.1578 389.184 21.3462 388.316C20.8538 387.794 20.8066 386.804 21.2045 385.378C21.2265 385.3 21.229 385.218 21.2117 385.138C21.1945 385.059 21.1581 384.985 21.1056 384.922C20.8807 384.661 20.5547 384.701 19.6846 384.772C18.439 384.887 16.121 385.102 15.2981 384.07C14.8889 383.558 14.8485 382.741 15.2104 381.634L15.3881 381.597L15.3341 381.178C15.2779 380.755 14.9047 380.775 14.5112 380.798C9.60082 381.07 9.32203 380.375 9.31304 380.355C8.85213 378.907 9.13318 378.528 9.12868 378.528L9.46368 378.307L9.11069 377.601L8.72848 377.72C8.72848 377.72 8.22484 377.866 6.35422 377.499C5.72469 377.372 5.32674 376.923 5.1716 376.17C4.89281 374.802 5.53583 372.902 6.49363 372.263C6.61347 372.181 6.74762 372.122 6.88933 372.088C7.04161 372.053 7.20026 372.058 7.35024 372.101C7.47561 372.137 7.59466 372.191 7.70323 372.263C7.84712 372.353 7.99776 372.444 8.15289 372.535C9.19612 373.148 10.4732 373.744 11.8154 374.368C13.8794 375.329 16.2199 376.418 18.3356 377.857C19.6644 378.763 21.1303 379.868 22.6817 381.037C24.8491 382.671 27.2301 384.464 29.6852 386.034C32.345 387.732 35.0948 389.164 37.7635 389.846C38.7902 390.119 39.8479 390.263 40.9112 390.273C41.1945 390.273 41.7521 390.309 42.3996 390.349C44.2657 390.468 45.7721 390.532 46.9278 390.506C47.9507 390.482 48.7084 390.384 49.2121 390.187C49.5448 391.409 49.32 392.487 48.5511 393.331C47.5236 394.418 45.6799 394.96 44.241 394.575L44.2522 394.564ZM35.5084 363.296L30.1124 360.836C30.3755 357.356 30.5756 352.751 30.6363 347.995L31.3288 348.048C35.7513 348.382 40.3042 348.728 42.141 349.031L35.5084 363.296ZM42.5457 348.174C40.7988 347.849 36.2279 347.51 31.4075 347.138L30.6543 347.081C30.7082 341.211 30.5486 335.207 30.0337 330.863C34.1549 330.941 40.466 331.552 45.0571 332.191C45.1133 334.029 45.0774 335.291 44.9087 335.667L45.7496 336.042C45.9542 335.599 46.0172 334.27 45.9745 332.318C47.4988 332.539 48.7781 332.76 49.6415 332.949L42.5457 348.174ZM50.0282 332.096C49.1536 331.897 47.7079 331.653 45.943 331.401C45.8013 327.502 45.3202 321.593 44.7221 315.055C48.1261 315.257 51.955 315.458 55.8941 315.651L56.8294 317.486L50.0282 332.096ZM74.5351 350.198C76.444 349.693 79.2319 349.686 82.2919 349.859C82.2155 356.032 82.1772 361.786 83.0856 364.562L83.5352 364.423V364.866C84.4346 364.866 85.4913 364.799 86.6065 364.728C88.7626 364.593 91.247 364.436 93.3065 364.746L83.3261 367.421L74.5351 350.198Z" fill="black"/>
<path d="M151.1 216.543C151.509 213.021 150.468 210.163 148.247 208.701C147.355 208.125 146.319 207.804 145.253 207.772C144.187 207.741 143.133 208 142.208 208.522C140.225 209.609 138.788 209.974 137.936 209.609C137.05 209.228 136.756 208.059 136.443 206.802C136.106 205.456 135.757 204.063 134.55 203.565C133.498 203.133 132.045 203.494 129.975 204.703C129.246 205.13 128.702 205.281 128.358 205.146C127.895 204.971 127.65 204.207 127.389 203.397C126.912 201.909 126.265 199.872 123.533 200.445C122.497 200.667 121.786 200.638 121.42 200.372C121.053 200.107 120.97 199.456 120.898 198.727C120.806 197.722 120.691 196.473 119.464 195.849L119.041 196.655C119.765 197.025 119.88 197.716 119.981 198.809C120.06 199.677 120.143 200.58 120.88 201.103C121.485 201.546 122.391 201.614 123.733 201.324C125.545 200.944 125.982 201.964 126.517 203.662C126.832 204.641 127.155 205.655 128.037 205.985C128.673 206.224 129.442 206.06 130.454 205.469C132.201 204.446 133.464 204.083 134.199 204.389C134.979 204.71 135.258 205.823 135.548 207.003C135.886 208.345 136.266 209.866 137.572 210.426C138.732 210.924 140.349 210.566 142.658 209.301C143.435 208.861 144.321 208.641 145.217 208.665C146.113 208.69 146.986 208.958 147.737 209.441C149.661 210.707 150.554 213.253 150.185 216.426L151.1 216.543Z" fill="black"/>
<path d="M154.824 216.096L155.746 216.076C155.672 212.866 154.397 208.225 151.042 205.708C149.077 204.234 146.676 203.791 144.099 204.431L144.039 204.451C140.619 205.819 139.992 204.672 139.041 202.938C138.065 201.156 136.848 198.94 132.201 199.518L132.316 200.419C136.34 199.918 137.298 201.674 138.229 203.37C139.196 205.141 140.194 206.957 144.356 205.303C146.669 204.738 148.733 205.117 150.485 206.432C153.381 208.602 154.75 212.85 154.824 216.096Z" fill="black"/>
<path d="M462.408 362.427C456.509 360.874 454.635 356.554 450.294 354.843C446.302 353.26 441.582 355.985 437.617 356.253L437.936 359.119C437.609 359.091 437.281 359.082 436.954 359.093H436.697H436.57H436.414H436.282H436.109H435.97H435.775H435.636H435.425H435.259H435.053H434.868L434.661 359.105H434.457H434.251L434.042 359.117L433.802 359.131L433.593 359.142L433.353 359.157L433.135 359.171L432.895 359.187L432.676 359.201L432.417 359.218L432.177 359.232L431.937 359.248L431.665 359.265L431.425 359.281L431.149 359.3L430.909 359.316L430.626 359.335L430.386 359.354L430.103 359.373L429.836 359.391L429.541 359.413L429.286 359.431L428.984 359.453L428.717 359.471L428.41 359.495L428.141 359.514L427.836 359.537L427.568 359.556L427.231 359.582L427.011 359.598L426.641 359.626L426.401 359.645L426.053 359.673L425.793 359.692L425.448 359.72L425.208 359.739L424.848 359.77L424.653 359.784L424.223 359.819H424.147L423.621 359.861H423.547C422.385 359.958 421.223 360.061 420.082 360.167H420.022L419.542 360.211H419.427L418.969 360.256H418.841L418.383 360.301H418.263L417.823 360.345L417.684 360.359L417.274 360.402L417.118 360.416L416.719 360.458L416.558 360.474L416.174 360.517L416.011 360.533L415.639 360.575L415.476 360.594L415.106 360.634L414.955 360.653L414.59 360.695L414.443 360.712L414.095 360.754L413.942 360.773L413.608 360.815L413.459 360.834L413.135 360.874L412.993 360.893L412.677 360.935L412.544 360.954L412.237 360.996L412.112 361.012L411.815 361.057L411.699 361.073L411.411 361.118L411.303 361.135L411.03 361.177L410.929 361.193L410.665 361.238L410.576 361.254L410.324 361.299L410.245 361.313L410.005 361.358L409.94 361.372L409.7 361.419H409.647L409.426 361.466H409.397L409.179 361.52C408.862 361.576 408.559 361.693 408.288 361.863V361.863C408.288 361.832 408.305 361.797 408.315 361.759C408.315 361.719 408.336 361.677 408.346 361.63V361.618C408.346 361.571 408.37 361.52 408.382 361.466V361.447C408.394 361.395 408.406 361.337 408.42 361.275V361.247C408.435 361.186 408.447 361.12 408.461 361.052V361.024C408.475 360.954 408.492 360.881 408.507 360.803V360.775C408.523 360.695 408.54 360.613 408.557 360.526V360.507C408.574 360.418 408.593 360.324 408.612 360.228V360.214C408.9 358.781 409.308 356.615 409.765 354.15V354.113C410.245 351.465 410.794 348.475 411.294 345.705C411.359 345.341 411.423 344.979 411.488 344.622V344.591C411.824 342.731 412.134 341.004 412.388 339.59L412.494 339.003L412.516 338.883C412.516 338.836 412.532 338.791 412.54 338.747L412.59 338.467C412.59 338.446 412.59 338.425 412.59 338.401C412.607 338.305 412.624 338.209 412.641 338.117C414.787 342.393 416.878 346.389 417.101 347.164C419.175 346.544 421.828 345.284 424.701 343.732C433.824 339.01 446.028 330.278 448.911 328.389C449.468 328.025 448.059 324.541 446.132 320.512C447.361 319.706 441.786 311.571 439.436 308.061L437.979 309.093L437.96 309.062L437.777 309.163L432.659 303.95C434.669 306.487 436.335 308.383 437.528 309.304C436.63 309.804 434.407 311.047 431.553 312.659C429.08 306.405 426.751 300.774 424.572 295.714L432.659 303.95C429.656 300.161 425.887 294.943 421.794 289.425C421.314 288.346 420.834 287.298 420.354 286.28C402.69 248.269 395.02 251.76 388.982 261.145L388.879 261.298C387.998 259.665 386.75 257.391 385.674 255.092C391.196 251.568 397.437 247.041 397.437 247.041C399.084 240.698 393.344 226.838 382.95 222.175C373.532 217.946 366.054 219.912 358.134 226.577C353.4 230.571 350.911 239.617 359.498 244.483C359.911 248.173 362.619 261.07 360.475 263.765C360.029 264.324 366.957 263.33 373.815 261.225C374.16 261.589 374.462 261.989 374.716 262.419C375.196 263.168 376.307 265.362 377.303 267.134C374.252 267.815 371.825 269.694 370.788 272.365C366.791 279.018 360.204 293.724 354.337 296.407C349.36 298.683 313.409 301.401 313.188 302.325C312.105 301.385 309.76 301.66 308.55 297.335C307.76 294.516 307.402 292.742 306.063 291.279C305.686 290.865 303.256 292.174 304.529 294.953C305.395 296.832 304.98 297.873 304.87 299.386C304.836 299.816 304.327 300.347 303.693 300.92C303.129 299.999 302.647 299.226 302.253 298.632C299.562 294.572 298.53 292.054 294.499 293.062C293.445 293.327 291.491 293.813 289.909 294.114C286.337 294.795 287.813 297.38 289.275 299.597C290.168 300.95 291.381 302.905 292.682 305.031C292.178 306.083 292.302 307.523 293.704 307.911L293.848 307.946L294.033 307.993C294.48 308.259 293.93 310.657 296.549 311.362L297.106 312.257C297.118 312.42 297.163 312.578 297.24 312.723C297.317 312.868 297.423 312.995 297.553 313.098C297.603 313.138 297.651 313.173 297.701 313.208C298.568 314.587 299.322 315.753 299.862 316.521C301.127 318.29 302.884 320.536 306.017 319.699C307.366 319.338 309.541 319.089 310.417 318.828C312.36 318.25 313.677 317.496 311.258 313.439C313.445 313.169 315.295 312.863 315.295 312.863C319.59 313.194 331.699 313.925 343.21 313.855C338.521 318.318 334.064 323.066 334.064 323.066L334.251 323.277C333.05 324.292 332.021 325.06 331.226 325.297C329.069 325.979 326.86 326.494 324.619 326.836C320.87 327.405 320.318 327.792 318.772 330.926C318.635 331.206 318.087 333.085 317.727 334.401C317.242 334.31 316.747 334.278 316.253 334.304C314.534 334.49 313.769 333.792 310.413 334.419C308.907 334.701 305.767 334.257 305.131 335.852C304.925 336.365 303.225 338.634 303.95 338.587C305.835 338.462 307.191 337.424 309.208 338.087C309.805 338.284 312.717 337.685 315.257 337.459C315.06 337.83 314.765 338.347 314.311 339.08C313.423 340.513 314.275 343.433 317.106 343.757C318.529 343.92 321.271 342.865 323.851 341.444C323.947 341.392 323.918 341.542 323.892 341.794C323.844 342.263 323.801 343.06 324.511 343.624C325.774 344.629 327.632 343.241 327.697 343.565C328.148 345.736 330.59 343.508 330.957 344.194C331.677 345.548 334.668 343.781 336.666 341.747C337.088 341.317 341.354 334.368 343.267 331.152C343.392 331.147 343.51 331.098 343.599 331.013C343.964 330.651 345.882 328.986 348.794 326.474C352.337 338.73 357.808 357.249 359.837 363.463C359.668 371.748 357.085 380.807 349.898 385.266C349.747 385.36 347.675 387.493 345.38 389.092C342.936 390.796 341.491 392.456 345.344 392.456C349.756 392.456 360.708 393.016 363.548 390.079C364.643 388.949 372.73 379.59 372.73 380.809C372.73 382.719 372.97 391.961 372.97 392.163L375.236 392.231C375.445 391.437 375.369 387.605 375.369 385.16C375.369 379.183 378.986 373.707 379.555 369.162C380.083 364.976 376.857 363.599 375.556 359.922L372.927 360.366C372.123 355.762 368.968 323.935 369.631 321.637C369.631 321.637 373.177 322.401 378.172 323.345C378.957 328.422 379.445 331.683 379.445 331.683H379.543C381.156 342.231 383.797 358.464 384.03 360.251C386.481 379.007 387.501 387.502 403.393 382.9C409.323 381.183 427.959 374.52 439.182 370.477L439.199 370.637C448.575 374.821 452.529 374.884 454.178 383.999C454.21 384.173 450.239 387.406 449.411 389.44C448.302 392.167 448.302 392.308 448.851 392.393C450.373 392.628 462.643 392.922 462.89 391.749C464.4 384.575 465 382.08 464.7 380.111C463.5 372.173 456.848 364.546 457.561 364.734C459.445 365.229 468.064 366.488 468.044 366.446C467.848 366.051 468.421 364.165 468.421 364.165C468.208 364.055 464.82 363.061 462.408 362.427ZM317.115 339.844C317.55 339.435 317.71 338.817 317.871 338.27C317.949 338.002 317.988 337.726 317.987 337.448C318.524 337.527 318.947 337.682 319.141 337.948C319.576 338.512 320.73 337.969 321.52 337.396C320.821 338.067 320.04 338.652 319.196 339.139C316.774 340.504 316.803 340.142 317.115 339.844ZM322.807 336.047C322.862 335.801 322.257 335.813 320.887 335.108L320.675 335.051C321.15 334.465 321.566 333.836 321.919 333.172C322.296 332.521 326.24 332.317 326.24 332.329C325.066 333.149 324.077 334.593 322.807 336.05V336.047ZM359.572 240.4C359.467 239.493 359.455 238.908 359.534 238.567C359.584 238.631 359.64 238.694 359.695 238.758C359.453 240.197 359.628 241.674 360.199 243.021C360.319 243.308 360.439 243.597 360.542 243.888L360.324 243.94C359.949 242.789 359.697 241.602 359.572 240.4V240.4Z" fill="white"/>
<path d="M296.583 388.089C296.583 385.9 294.423 349.842 292.279 334.816C291.487 329.249 289.096 327.449 287.492 330.174C285.499 333.557 285.454 334.581 284.969 334.591C283.874 334.612 282.251 334.527 279.817 334.429C279.642 334.448 279.465 334.44 279.291 334.408C279.229 334.386 279.179 334.309 279.135 334.187L280.096 333.578C279.74 333.637 279.388 333.715 279.042 333.813C278.562 331.328 278.79 322.511 270.88 333.813C267.898 338.079 254.877 359.314 248.074 375.732L247.426 375.056C247.336 375.746 247.363 376.446 247.505 377.128C247.303 377.634 247.109 378.133 246.922 378.627C242.694 365.215 260.718 346.8 261.873 333.24C262.37 327.426 256.406 327.513 255.653 333.475C253.617 349.558 230.283 366.918 243.712 386.771C243.887 387.034 244.065 387.288 244.242 387.537C243.321 392.506 244.142 395.712 247.8 395.701C248.571 395.701 281.534 395.701 295.116 395.701L295.371 396.152C295.385 396.011 295.397 395.86 295.402 395.701C298.669 395.701 300.746 395.701 300.871 395.715C301.267 389.985 296.583 388.984 296.583 388.089Z" fill="white"/>
<path d="M284.604 297.628L277.934 298.716L278.095 299.666L284.766 298.579L284.604 297.628Z" fill="black"/>
<path d="M286.111 301.608L281.15 306.137L281.822 306.841L286.783 302.313L286.111 301.608Z" fill="black"/>
<path d="M281.838 293.377L281.57 294.304L285.252 295.324L285.52 294.397L281.838 293.377Z" fill="black"/>
<path d="M288.861 303.984L287.268 309.442L288.214 309.706L289.808 304.249L288.861 303.984Z" fill="black"/>
<path d="M297.756 388.573C297.514 388.417 297.287 388.238 297.079 388.04C297.06 385.858 295.865 365.831 294.388 349.569L300.289 351.052L300.529 350.112L294.287 348.543C294.222 347.855 294.158 347.175 294.095 346.501H300.74V345.538H294.011C293.958 345.012 293.908 344.488 293.855 343.976L300.455 342.198L300.183 341.277L293.745 343.01C293.421 339.886 293.089 337.065 292.761 334.751C292.242 331.114 291.008 328.767 289.455 328.471C288.939 328.373 287.943 328.431 287.054 329.935C286.094 331.563 285.59 332.636 285.256 333.346C285.141 333.608 285.011 333.863 284.865 334.109C284.015 334.123 282.829 334.074 281.211 334.006L280.153 333.961L280.169 334.053C279.83 334.11 279.494 334.184 279.163 334.276C279.003 334.321 278.844 334.37 278.683 334.422C276.89 335.023 275.459 336.101 274.862 337.368L273.966 336.964C274.698 335.413 276.367 334.145 278.47 333.47C278.628 333.421 278.787 333.374 278.95 333.329C279.113 333.285 279.269 333.249 279.43 333.214C279.404 333.019 279.38 332.817 279.358 332.629C279.132 330.75 278.825 328.166 277.197 327.759C275.635 327.381 273.5 329.223 270.476 333.548C268.315 336.649 260.393 349.403 253.688 362.565C251.312 367.226 249.346 371.408 247.792 375.112L247.91 375.129C247.86 375.49 247.848 375.855 247.874 376.219C247.894 376.539 247.939 376.857 248.011 377.17C248.303 378.446 248.915 379.63 249.792 380.616C250.534 381.454 251.453 382.125 252.485 382.582C253.517 383.039 254.639 383.272 255.772 383.264V384.227C254.498 384.236 253.237 383.974 252.076 383.459C250.916 382.944 249.883 382.189 249.05 381.246C248.364 380.47 247.819 379.585 247.439 378.629C247.401 378.535 247.367 378.439 247.334 378.342C247.283 378.204 247.238 378.063 247.194 377.92C247.111 377.642 247.043 377.359 246.993 377.074C246.943 376.798 246.909 376.52 246.892 376.24C246.72 374.798 246.732 373.34 246.928 371.901C247.713 365.816 251.304 359.034 254.78 352.478C258.425 345.599 261.867 339.101 262.364 333.287C262.628 330.188 261.164 328.64 259.577 328.478C257.724 328.293 255.606 329.925 255.165 333.412C254.464 338.946 251.201 344.627 247.747 350.641C244.537 356.232 241.219 362.013 239.793 368.048C238.168 374.934 239.313 381.143 243.301 387.032C243.44 387.239 243.582 387.443 243.721 387.643C243.202 390.589 243.325 392.772 244.09 394.192C244.811 395.517 246.047 396.182 247.802 396.178C248.193 396.178 282.371 396.178 295.653 396.178L294.88 396.095C294.895 395.973 294.902 395.839 294.907 395.696C294.912 395.553 294.907 395.384 294.907 395.226C294.864 393.965 294.496 392.252 293.5 391.08C293.21 390.722 292.846 390.427 292.433 390.214C292.019 390.002 291.565 389.876 291.099 389.844L290.547 389.802L290.653 389.271C290.672 389.175 292.559 379.51 290.758 373.416C289.753 370.007 288.632 368.398 287.016 368.036C286.556 367.934 286.08 367.922 285.616 368.003C285.151 368.083 284.708 368.255 284.313 368.506C283.259 369.169 282.532 370.336 282.203 371.882L281.242 371.687C281.723 369.406 282.889 368.257 283.782 367.693C284.287 367.372 284.854 367.153 285.447 367.049C286.041 366.946 286.649 366.961 287.237 367.092C289.769 367.658 290.917 370.468 291.707 373.144C293.354 378.721 292.091 386.839 291.707 388.949C292.712 389.14 293.615 389.676 294.254 390.46C295.365 391.766 295.85 393.671 295.893 395.221C295.893 395.388 295.893 395.548 295.893 395.691C295.893 395.835 295.877 396.02 295.862 396.161C298.82 396.161 300.692 396.161 300.848 396.175L301.328 396.196L301.36 395.726C301.669 391.348 299.122 389.541 297.756 388.573Z" fill="black"/>
<path d="M386.59 313.262C386.465 313.15 386.358 313.02 386.273 312.877L386.258 312.856C386.2 312.764 386.162 312.661 386.147 312.554C386.131 312.447 386.138 312.338 386.167 312.233C386.182 312.188 386.203 312.144 386.23 312.104L385.406 311.58C385.251 311.826 385.165 312.108 385.157 312.396C385.149 312.685 385.218 312.971 385.358 313.225C385.37 313.253 385.384 313.28 385.399 313.307C385.468 313.431 385.548 313.548 385.639 313.657C385.742 313.785 385.857 313.903 385.982 314.009C386.672 314.588 387.553 314.904 388.462 314.897H388.601V313.934H388.462C387.774 313.95 387.105 313.71 386.59 313.262V313.262Z" fill="black"/>
<path d="M389.317 302.195C390.14 302.755 391.165 303.448 392.766 302.461C393.755 301.848 394.264 301.756 394.588 301.869C394.744 301.928 394.882 302.023 394.992 302.146L395.04 302.195C395.134 302.299 395.238 302.394 395.352 302.477C395.535 302.619 395.767 302.687 396 302.668L395.923 301.775V301.709C395.935 301.707 395.947 301.707 395.959 301.709C395.886 301.655 395.82 301.594 395.76 301.526L395.613 301.385C395.496 301.273 395.366 301.174 395.227 301.089C394.643 300.741 393.786 300.685 392.248 301.641C391.199 302.289 390.646 301.916 389.883 301.406C388.572 300.518 387.305 299.982 385.041 302.409L385.761 303.06C387.629 301.054 388.337 301.533 389.317 302.195Z" fill="black"/>
<path d="M400.854 317.122C400.336 317.965 399.954 318.933 401.416 320.646L402.172 320.03C401.034 318.696 401.344 318.196 401.692 317.615C402.189 316.81 402.46 316.044 400.753 314.848L400.18 315.63C401.294 316.408 401.174 316.603 400.854 317.122Z" fill="black"/>
<path d="M393.452 324.325C393.439 324.394 393.402 324.457 393.349 324.504C393.16 324.697 392.902 324.812 392.629 324.823V325.786C392.9 325.779 393.166 325.719 393.413 325.611C393.661 325.502 393.883 325.347 394.069 325.154C394.191 325.035 394.286 324.893 394.348 324.736C394.41 324.579 394.437 324.411 394.429 324.243L393.452 324.325Z" fill="black"/>
<path d="M383.994 323.909C383.994 323.991 383.994 324.071 383.994 324.144H384.979C384.979 324.123 384.979 324.097 384.979 324.076C384.95 322.725 384.083 320.482 382.53 319.826L382.139 320.709C383.125 321.128 383.901 322.706 383.994 323.909Z" fill="black"/>
<path d="M399.061 310.591C399.388 310.084 399.768 309.611 400.196 309.182L399.956 308.947L399.5 308.501C398.767 309.239 398.152 310.081 397.676 310.998L398.55 311.444C398.71 311.148 398.883 310.862 399.061 310.591Z" fill="black"/>
<path d="M408.639 296.691H408.783L408.692 295.726C408.577 295.733 408.462 295.711 408.359 295.663C408.208 295.593 408.07 295.501 407.95 295.388C407.824 295.272 407.705 295.15 407.593 295.021C407.456 294.866 407.319 294.697 407.177 294.523L407.079 294.403C406.935 294.227 406.784 294.044 406.623 293.87C406.448 293.675 406.257 293.494 406.052 293.33C405.811 293.118 405.524 292.964 405.212 292.88C404.901 292.796 404.573 292.783 404.256 292.843L404.33 293.198L404.429 293.682L404.453 293.786C404.887 293.699 405.257 293.891 405.653 294.255C405.923 294.525 406.177 294.811 406.412 295.11C406.637 295.388 406.863 295.665 407.105 295.909C407.223 296.029 407.348 296.141 407.48 296.245C407.609 296.345 407.748 296.433 407.895 296.506C408.125 296.623 408.38 296.687 408.639 296.691V296.691Z" fill="black"/>
<path d="M416.175 305.261C416.175 305.327 416.175 305.393 416.175 305.451H417.159C417.159 305.404 417.159 305.353 417.159 305.299C417.183 305.061 417.158 304.821 417.085 304.594C415.923 301.653 416.343 301.406 416.621 301.244C417.524 300.718 417.543 299.975 416.696 298.061L415.793 298.444C416.273 299.52 416.345 299.989 416.326 300.196C416.326 300.292 416.326 300.3 416.117 300.417C415.179 300.962 414.929 301.812 416.168 304.939C416.181 305.046 416.183 305.154 416.175 305.261V305.261Z" fill="black"/>
<path d="M409.412 283.251C410.149 284.504 411.16 286.218 412.773 286.218V285.255C411.738 285.255 410.893 283.818 410.276 282.77C410.127 282.518 409.986 282.279 409.854 282.077L409.025 282.596C409.143 282.782 409.277 283.009 409.412 283.251Z" fill="black"/>
<path d="M411.288 313.448C411.108 313.532 410.92 313.597 410.727 313.643L410.916 314.583C411.18 314.526 411.437 314.44 411.682 314.327C412.208 314.092 412.604 313.932 413.504 314.562C413.629 314.648 413.766 314.751 413.915 314.872C413.978 314.922 414.045 314.968 414.114 315.011C414.277 315.114 414.459 315.187 414.649 315.227C414.742 315.246 414.836 315.256 414.93 315.257C415.279 315.252 415.617 315.134 415.89 314.921C416.505 314.451 416.954 313.512 416.642 312.833C416.534 312.598 416.176 312.072 415.182 312.26L415.369 313.199C415.609 313.157 415.727 313.185 415.741 313.218C415.811 313.371 415.669 313.866 415.293 314.158C415.19 314.249 415.054 314.298 414.916 314.293C414.777 314.289 414.645 314.232 414.548 314.134L414.467 314.073C414.283 313.926 414.091 313.789 413.891 313.664C413.7 313.543 413.5 313.438 413.29 313.352C412.474 313.016 411.886 313.192 411.288 313.448Z" fill="black"/>
<path d="M424.395 310.122C424.432 310.285 424.446 310.453 424.436 310.62L425.42 310.599C425.42 310.169 425.394 309.69 425.063 309.424C424.395 308.867 424.496 308.745 424.695 308.499C424.806 308.404 424.891 308.284 424.944 308.15C424.997 308.016 425.016 307.872 424.999 307.729C424.983 307.586 424.931 307.449 424.848 307.331C424.765 307.212 424.655 307.114 424.525 307.047L423.942 307.824L423.968 307.843C423.954 307.864 423.937 307.883 423.925 307.899C423.488 308.426 423.202 309.112 424.395 310.122Z" fill="black"/>
<path d="M418.121 292.949V291.986C417.375 291.986 417.214 291.868 417.18 291.817C417.168 291.8 417.07 291.629 417.327 291.018L416.414 290.651C416.215 291.121 415.994 291.826 416.362 292.355C416.729 292.883 417.418 292.949 418.121 292.949Z" fill="black"/>
<path d="M407.699 302.257V303.222C408.299 303.222 408.719 303.405 408.914 303.755C408.965 303.838 408.998 303.931 409.009 304.027C409.021 304.123 409.011 304.22 408.981 304.312C409.005 304.285 409.035 304.266 409.07 304.256L409.384 305.167C409.836 305.019 410.081 304.481 409.975 303.859C409.853 303.114 409.171 302.257 407.699 302.257Z" fill="black"/>
<path d="M400.1 286.479C400.027 286.676 399.969 286.878 399.927 287.083C399.793 287.593 399.567 288.448 399.447 288.775L400.376 289.089C400.504 288.728 400.727 287.882 400.873 287.323C400.938 287.088 400.986 286.897 401.003 286.853L400.537 286.695L400.1 286.479Z" fill="black"/>
<path d="M390.816 295.395V294.889L390.91 294.441L390.684 294.394C390.045 294.255 389.541 294.159 389.155 294.072C388.598 293.959 388.281 293.903 388.151 293.891L388.13 294.126L388.062 294.859C388.228 294.873 389.04 295.037 390.463 295.343C390.578 295.374 390.697 295.391 390.816 295.395V295.395Z" fill="black"/>
<path d="M406.807 266.02H407.791C407.798 265.795 407.823 265.57 407.865 265.348C408.014 264.704 407.978 264.031 407.762 263.405L406.838 263.741C406.993 264.213 407.012 264.718 406.891 265.2C406.841 265.471 406.813 265.745 406.807 266.02V266.02Z" fill="black"/>
<path d="M372.507 278.649L372.519 278.671L372.963 278.462L373.443 278.351C373.43 278.298 373.409 278.246 373.381 278.198C372.977 277.449 373.006 277.094 373.047 277.024C373.064 276.998 373.165 276.96 373.366 276.967L373.398 276.004C372.699 275.985 372.368 276.267 372.212 276.514C371.904 276.998 372.003 277.714 372.507 278.649Z" fill="black"/>
<path d="M403.81 273.975L403.287 274.79C403.738 275.062 404.11 275.442 404.37 275.894C404.478 276.056 404.61 276.239 404.751 276.436L405.541 275.863C405.407 275.687 405.301 275.523 405.191 275.365C404.855 274.797 404.381 274.319 403.81 273.975V273.975Z" fill="black"/>
<path d="M462.537 361.961C459.291 361.106 457.299 359.377 455.376 357.733C453.859 356.42 452.428 355.182 450.481 354.409C447.744 353.323 444.775 354.122 441.906 354.897C440.377 355.309 438.934 355.698 437.585 355.79L437.076 355.825L437.388 358.628C437.235 358.628 437.086 358.628 436.939 358.628C434.503 358.717 427.61 359.156 421.016 359.751C413.437 360.43 410.302 360.94 408.953 361.294C409.022 360.961 409.106 360.547 409.193 360.059C409.433 358.781 409.798 356.92 410.24 354.533C411.044 350.176 411.987 344.927 412.676 341.093C412.753 340.659 412.827 340.248 412.897 339.855L413.925 341.883C415.312 344.617 416.51 346.976 416.659 347.5L416.796 347.97L417.276 347.826C419.403 347.19 422.099 345.921 425.011 344.335C432.33 340.546 441.532 334.234 446.587 330.773C447.747 329.979 448.661 329.364 449.216 328.988C449.631 328.718 450.308 328.283 446.734 320.766C447.259 319.612 445.555 316.455 440.336 308.679L439.616 307.615L439.213 307.85L438.113 308.463L438.094 308.435L437.693 308.67L437.547 308.752C435.076 306.675 430.496 300.462 425.303 293.419C424.286 292.037 423.246 290.628 422.183 289.204C421.703 288.146 421.23 287.113 420.764 286.106C410.938 264.963 403.465 254.922 397.238 254.509C393.56 254.274 390.857 257.398 388.879 260.382C388.127 258.991 387.15 257.168 386.262 255.301C386.982 254.831 387.782 254.314 388.646 253.741C393.26 250.673 397.644 247.494 397.689 247.464L397.828 247.36L397.872 247.194C399.6 240.541 393.675 226.504 383.11 221.773C378.386 219.659 374.045 219.029 369.84 219.858C365.905 220.633 361.958 222.722 357.769 226.248C355.129 228.466 352.754 232.673 353.374 237.076C353.698 239.366 354.965 242.451 358.994 244.811C359.087 245.568 359.253 246.613 359.452 247.865C360.211 252.641 361.625 261.531 360.045 263.509C359.958 263.606 359.91 263.732 359.91 263.861C359.91 263.991 359.958 264.116 360.045 264.214C360.148 264.329 360.261 264.448 360.897 264.448C361.631 264.426 362.363 264.355 363.087 264.235C364.767 264 366.829 263.584 368.927 263.084C370.166 262.79 371.808 262.379 373.609 261.824C373.842 262.108 374.055 262.408 374.245 262.722C374.502 263.123 374.965 263.983 375.493 264.975C375.88 265.701 376.213 266.325 376.518 266.868C374.371 267.434 372.492 268.716 371.208 270.493C370.835 271.027 370.526 271.602 370.288 272.205C369.359 273.756 368.296 275.729 367.117 277.909C363.447 284.722 358.422 294.03 354.075 296.019C351.316 297.257 338.012 298.733 327.329 299.907C317.367 301.004 314.251 301.404 313.231 301.761C312.948 301.589 312.653 301.439 312.347 301.312C311.24 300.821 309.86 300.21 309.02 297.213C308.925 296.874 308.837 296.55 308.753 296.24C308.132 293.973 307.683 292.336 306.427 290.962C306.12 290.626 305.541 290.651 304.951 291.027C303.962 291.655 303.141 293.111 304.077 295.155C304.708 296.531 304.603 297.375 304.471 298.444C304.435 298.733 304.399 299.033 304.375 299.358C304.36 299.541 304.115 299.827 303.794 300.159C303.362 299.454 302.985 298.86 302.663 298.378C302.341 297.896 302.082 297.488 301.816 297.074C299.698 293.785 298.299 291.612 294.374 292.611C293.579 292.81 291.464 293.344 289.813 293.658C288.528 293.893 287.705 294.42 287.366 295.192C286.781 296.539 287.784 298.246 288.859 299.874C289.724 301.183 290.869 303.029 292.129 305.085C291.942 305.556 291.877 306.065 291.939 306.567C291.988 307.007 292.176 307.421 292.478 307.75C292.779 308.08 293.179 308.309 293.62 308.404V308.404H293.637L293.723 308.43C293.745 308.519 293.769 308.651 293.788 308.754C293.937 309.562 294.232 311.158 296.232 311.787L296.635 312.438C296.697 312.848 296.913 313.22 297.24 313.483L297.334 313.554C298.186 314.907 298.928 316.053 299.47 316.812C300.399 318.114 302.012 320.376 304.735 320.376C305.216 320.373 305.695 320.307 306.158 320.179C306.838 319.998 307.767 319.84 308.585 319.709C309.254 319.61 309.916 319.479 310.571 319.314C311.512 319.032 312.549 318.652 312.928 317.681C313.276 316.791 313.005 315.586 312.057 313.852C313.624 313.648 314.911 313.441 315.329 313.382C320.036 313.744 331.031 314.369 341.707 314.369H342.016C337.695 318.543 333.768 322.713 333.713 322.772L333.42 323.087L333.566 323.256C332.577 324.071 331.727 324.68 331.094 324.87L330.926 324.922C328.845 325.573 326.715 326.064 324.557 326.392C320.653 326.984 319.957 327.473 318.341 330.75C318.193 331.051 317.77 332.507 317.53 333.348C317.475 333.548 317.422 333.731 317.374 333.898C316.989 333.843 316.6 333.83 316.212 333.858C315.668 333.904 315.12 333.888 314.58 333.809C313.165 333.625 311.728 333.683 310.333 333.98C309.856 334.049 309.375 334.088 308.893 334.095C307.272 334.166 305.256 334.255 304.672 335.709C304.545 335.951 304.404 336.186 304.252 336.414C303.429 337.732 303.098 338.357 303.374 338.805C303.432 338.897 303.515 338.973 303.612 339.024C303.71 339.075 303.82 339.1 303.931 339.097H303.981C304.654 339.036 305.318 338.908 305.964 338.714C307.003 338.437 307.901 338.197 309.051 338.575C309.498 338.721 310.398 338.606 312.232 338.34C312.834 338.256 313.588 338.15 314.368 338.061C314.234 338.296 314.076 338.554 313.888 338.855C313.343 339.736 313.343 341.016 313.888 342.115C314.184 342.706 314.629 343.214 315.182 343.589C315.734 343.964 316.376 344.194 317.045 344.258C318.812 344.46 321.803 343.083 323.373 342.268C323.366 342.602 323.436 342.934 323.579 343.238C323.722 343.542 323.933 343.81 324.197 344.023C325.265 344.871 326.597 344.387 327.303 344.129H327.339C327.454 344.445 327.679 344.712 327.975 344.883C328.633 345.247 329.416 344.972 330.057 344.751C330.233 344.684 330.413 344.629 330.597 344.584C330.707 344.746 330.851 344.881 331.021 344.982C331.19 345.083 331.379 345.147 331.576 345.169C331.663 345.181 331.75 345.186 331.838 345.186C333.321 345.186 335.523 343.638 337.016 342.115C337.378 341.747 339.7 337.988 341.054 335.773C342.254 333.823 343.049 332.502 343.586 331.6C343.721 331.554 343.844 331.477 343.944 331.377C344.275 331.048 345.953 329.587 348.529 327.367C349.833 331.875 351.376 337.154 352.908 342.341C354.85 348.919 356.531 354.514 357.767 358.55C358.487 360.878 358.982 362.485 359.346 363.599C359.212 368.948 357.872 379.79 349.638 384.897C349.473 385.019 349.32 385.156 349.18 385.305C347.906 386.544 346.542 387.691 345.099 388.738C343.056 390.161 342.264 391.157 342.53 391.968C342.825 392.872 344.28 392.976 345.348 392.976C345.886 392.976 346.522 392.976 347.231 392.994C348.131 393.006 349.132 393.02 350.19 393.02C355.309 393.02 361.713 392.71 363.91 390.436C364.15 390.187 364.7 389.576 365.456 388.733C367.136 386.854 370.8 382.771 372.247 381.54C372.283 384.359 372.471 391.982 372.487 392.219L372.514 392.658L375.623 392.75L375.721 392.377C375.889 391.735 375.892 389.673 375.875 386.83C375.875 386.247 375.875 385.688 375.875 385.186C375.875 381.777 377.075 378.568 378.223 375.465C379.041 373.266 379.814 371.187 380.059 369.246C380.407 366.477 379.236 364.87 377.994 363.169C377.274 362.168 376.511 361.132 376.036 359.791L375.899 359.403L373.354 359.812C372.442 353.958 369.801 326.505 370.068 322.225C371.193 322.46 374.057 323.056 377.75 323.761C378.489 328.558 378.95 331.657 378.969 331.76L379.032 332.178H379.13C379.809 336.602 380.758 342.595 381.975 350.251C382.796 355.419 383.444 359.481 383.554 360.319L383.593 360.622C385.136 372.432 386.154 380.234 390.874 383.245C392.3 384.157 394.05 384.61 396.206 384.61C398.263 384.61 400.685 384.197 403.547 383.367C409.438 381.662 427.642 375.145 438.985 371.074H439.006C440.49 371.736 441.856 372.303 443.061 372.801C449.576 375.505 452.31 376.637 453.667 383.87C453.53 384.006 453.29 384.232 453.057 384.453C451.761 385.672 449.593 387.711 448.976 389.262C448.037 391.566 447.874 392.057 448.124 392.482C448.197 392.593 448.297 392.686 448.414 392.753C448.531 392.819 448.663 392.858 448.798 392.865C449.518 392.978 452.294 393.086 455.078 393.086C455.515 393.086 455.95 393.086 456.379 393.086C463.154 392.997 463.3 392.308 463.396 391.853L463.795 389.955C465.034 384.103 465.497 381.913 465.211 380.046C464.321 374.173 460.597 368.61 458.809 365.932C458.694 365.76 458.569 365.589 458.473 365.427C459.892 365.706 462.074 366.056 463.442 366.27C468.243 367.015 468.243 367.015 468.447 366.759L468.649 366.524L468.522 366.268C468.483 366.033 468.666 365.135 468.915 364.311L469.036 363.921L468.661 363.742C468.349 363.585 464.801 362.558 462.537 361.961ZM391.421 382.432C387.083 379.665 386.087 372.04 384.579 360.496L384.541 360.192C384.428 359.34 383.78 355.259 382.959 350.091C382.128 344.876 381.002 337.807 380.133 332.15L408.955 331.713C409.056 331.948 409.159 332.167 409.272 332.418C410.112 334.248 411.147 336.35 412.167 338.383C412.038 339.087 411.884 339.947 411.711 340.917C410.576 347.232 408.269 360.08 407.817 361.825C407.734 361.942 407.696 362.085 407.712 362.227C407.722 362.347 407.776 362.459 407.864 362.542C407.953 362.626 408.069 362.675 408.192 362.68C408.296 362.69 408.401 362.665 408.489 362.608C408.576 362.551 408.641 362.466 408.672 362.368C410.626 361.344 430.928 359.784 436.973 359.572C437.141 359.572 437.316 359.572 437.494 359.572L438.672 370.144C427.342 374.224 409.145 380.715 403.278 382.425C397.716 384.049 393.949 384.049 391.421 382.432ZM369.76 321.168L369.307 321.071L369.179 321.508C368.481 323.933 371.527 354.143 372.389 359.976L359.92 362.091C357.683 355.069 352.699 338.19 349.357 326.641L354.879 321.891C360.64 316.93 367.859 310.73 374.744 304.742C375.841 311.477 376.847 317.869 377.601 322.742C373.028 321.872 369.818 321.182 369.76 321.168ZM344.686 329.39C343.927 330.052 343.435 330.492 343.267 330.658C343.181 330.672 343.093 330.662 343.013 330.628C342.545 330.489 341.332 329.836 338.451 326.996C337.011 325.572 335.664 324.097 334.961 323.315L334.74 323.068C335.076 322.713 335.681 322.077 336.473 321.257C338.183 319.49 340.768 316.864 343.435 314.322L343.942 313.852L344.463 313.361L344.755 313.089L345.202 312.675L345.665 312.25C346.402 311.576 347.13 310.927 347.826 310.328C352.003 306.746 356.206 302.318 360.398 297.469C360.568 297.269 360.741 297.072 360.912 296.87L361.423 296.273C364.712 292.413 367.989 288.314 371.234 284.179L371.642 283.66L372.046 283.143C373.158 281.734 374.264 280.317 375.363 278.894C376.735 277.132 378.086 275.402 379.416 273.704L379.718 273.321L380.018 272.941C381.459 271.108 382.877 269.332 384.265 267.632C384.51 267.331 384.75 267.033 384.985 266.739C385.22 266.444 385.473 266.139 385.744 265.823C386.786 264.57 387.808 263.37 388.812 262.224L389.157 261.829L389.505 261.439L390.132 260.734C390.371 260.621 390.622 260.534 390.881 260.474C391.457 260.516 392.321 260.859 393.402 261.648C395.404 263.116 397.989 266.086 399.247 270.014C400.207 273.047 400.688 277.717 397.471 282.749C396.801 283.792 392.379 287.882 386.368 293.228L385.801 293.731L385.218 294.269C382.215 296.931 378.871 299.858 375.431 302.853C375.287 302.98 375.143 303.107 374.996 303.231L374.559 303.614C367.372 309.866 359.86 316.323 354.231 321.165L349.062 325.61L348.654 325.962L348.246 326.315C346.755 327.595 345.555 328.645 344.686 329.402V329.39ZM314.856 310.244C314.681 309.473 314.501 308.578 314.335 307.671C313.948 305.557 313.643 303.365 313.651 302.609C313.735 302.583 313.843 302.557 313.972 302.529C315.744 302.139 321.676 301.486 327.44 300.849C338.195 299.675 351.578 298.188 354.543 296.832C359.188 294.718 364.095 285.61 368.039 278.299C368.642 277.183 369.213 276.124 369.751 275.149C369.739 275.883 369.805 276.616 369.948 277.336C370.286 279.063 370.639 280.926 370.999 282.885C367.314 287.583 363.588 292.256 359.855 296.588C358.175 296.952 356.514 297.344 354.908 297.762C346.851 299.896 344.367 306.069 344.65 311.841C344.11 312.337 343.57 312.844 343.027 313.356C332.407 313.41 321.181 312.8 315.991 312.417L315.499 312.382C315.324 312.107 315.093 311.296 314.856 310.244ZM372.951 269.95C374.09 268.847 375.511 268.062 377.065 267.679C377.229 267.636 377.397 267.596 377.562 267.561L377.896 267.495L378.074 267.462C380.553 267.034 382.944 266.209 385.151 265.022C384.654 265.618 384.152 266.229 383.646 266.847C383.405 267.129 383.185 267.411 382.954 267.697L382.27 268.543C381.276 269.779 380.269 271.046 379.248 272.344L379.075 272.563C378.412 272.161 378.256 271.879 378.237 271.658C378.232 271.583 378.237 271.508 378.251 271.435C378.287 271.307 378.293 271.172 378.267 271.042C378.241 270.912 378.185 270.789 378.102 270.683C377.824 270.364 377.31 270.267 375.81 270.256V271.219C376.069 271.219 376.29 271.219 376.465 271.233C376.739 271.237 377.012 271.261 377.281 271.306C377.265 271.416 377.257 271.528 377.257 271.639C377.259 271.866 377.314 272.09 377.418 272.292C377.671 272.724 378.037 273.082 378.479 273.328C377.205 274.952 375.911 276.617 374.598 278.299C373.676 279.482 372.752 280.666 371.827 281.851C371.522 280.207 371.222 278.628 370.934 277.153C370.603 275.627 370.709 274.04 371.242 272.57C371.454 272.011 371.736 271.481 372.079 270.989C372.192 270.827 372.319 270.671 372.442 270.519C372.591 270.326 372.761 270.138 372.939 269.96L372.951 269.95ZM375.131 262.134C374.994 261.921 374.845 261.688 374.67 261.453C374.568 261.314 374.458 261.181 374.341 261.054C374.216 260.914 374.08 260.784 373.935 260.664C373.467 260.273 372.893 260.024 372.283 259.945C368.923 259.475 366.179 257.596 364.541 254.594C363.646 252.949 363.101 250.87 362.515 248.657C362.297 247.823 362.071 246.977 361.824 246.132L361.975 246.2L361.68 245.643C361.533 245.161 361.377 244.685 361.2 244.208C361.145 244.057 361.089 243.907 361.032 243.754C360.974 243.602 360.916 243.451 360.856 243.301C360.796 243.151 360.732 242.984 360.664 242.831C360.269 241.902 360.075 240.903 360.095 239.897L360.009 239.812C359.872 239.674 359.743 239.535 359.618 239.399L359.486 239.256C359.383 239.141 359.285 239.026 359.19 238.91L359.013 238.696C357.402 236.669 357.003 234.785 357.676 232.697L358.614 232.988C358.093 234.607 358.333 236.07 359.452 237.653C359.478 237.696 359.505 237.736 359.534 237.776C359.623 237.895 359.719 238.011 359.817 238.14L359.848 238.18C359.966 238.325 360.088 238.471 360.225 238.619C360.504 238.932 360.814 239.249 361.157 239.57L361.185 239.594C362.1 240.341 363.305 241.321 364.786 242.032C365.01 242.138 365.235 242.239 365.47 242.331L365.588 242.38C365.797 242.46 366.003 242.542 366.205 242.615C376.576 246.844 376.813 254.481 376.914 257.781C376.943 258.721 376.962 259.283 377.289 259.51C377.356 259.558 377.432 259.591 377.512 259.609C377.616 259.636 377.723 259.649 377.831 259.649C378.142 259.636 378.449 259.572 378.739 259.461C379.382 259.229 380.007 258.951 380.609 258.629C381.206 258.324 381.922 257.925 382.786 257.422C383.162 257.201 383.568 256.958 384.003 256.691C384.457 256.414 384.942 256.113 385.465 255.782C386.38 257.694 387.386 259.555 388.18 261.026C388.221 261.098 388.259 261.171 388.298 261.246C386.752 263.286 383.005 265.609 377.709 266.549L377.56 266.579C377.142 265.827 376.727 265.055 376.415 264.465C375.875 263.469 375.407 262.595 375.119 262.144L375.131 262.134ZM397.216 255.435C402.853 255.808 410.112 265.611 419.398 285.387C416.517 281.56 413.569 277.754 410.664 274.28C411.783 274.073 411.745 273.54 411.598 271.618L410.616 271.689C410.677 272.223 410.695 272.761 410.669 273.298C410.614 273.312 410.528 273.326 410.453 273.34C410.314 273.364 410.151 273.394 409.956 273.441C405.253 267.899 400.687 263.304 396.734 260.99L396.957 260.972L397.408 261.145C397.423 261.106 397.495 260.929 397.593 260.676C397.999 259.668 398.438 258.561 398.527 258.261L397.581 257.998C397.497 258.284 396.943 259.661 396.678 260.323C396.561 260.615 396.501 260.76 396.472 260.849C394.379 259.675 392.463 259.158 390.797 259.506H390.725C392.842 256.715 394.806 255.43 396.883 255.43C396.983 255.435 397.096 255.437 397.211 255.444L397.216 255.435ZM438.668 309.252L439.321 308.888L439.527 309.194C440.619 310.824 442.074 312.992 443.332 315.05C443.488 315.304 443.639 315.555 443.788 315.804C445.279 318.313 445.709 319.462 445.826 319.974C445.859 320.089 445.868 320.208 445.855 320.327L445.555 320.526C445.37 320.648 445.161 320.792 444.931 320.947L444.52 321.226L444.115 321.503L443.258 322.091C441.709 323.153 439.628 324.579 437.275 326.148L436.855 326.425L436.435 326.705L435.955 327.029L435.537 326.127C435.141 325.272 434.415 324.605 433.518 324.273C432.621 323.94 431.626 323.969 430.75 324.353V324.353C429.876 324.74 429.195 325.451 428.856 326.329C428.516 327.207 428.547 328.181 428.94 329.037L429.577 330.447L429.797 330.917L429.817 330.961L429.096 331.41C424.334 334.33 419.547 336.968 416.181 338.072C415.828 337.309 415.065 336.04 413.965 334.231L413.884 334.1C413.785 333.94 413.684 333.771 413.576 333.597L413.188 332.953C412.947 332.542 412.679 332.108 412.415 331.664L412.134 331.194C412.04 331.037 411.949 330.877 411.858 330.724C411.175 329.587 410.564 328.411 410.028 327.2C409.875 326.903 409.793 326.575 409.788 326.242L409.819 326.218C409.838 326.201 409.858 326.184 409.879 326.169L409.956 326.108L410.043 326.04L410.136 325.969L410.237 325.896L410.345 325.819L410.458 325.739L410.58 325.655L410.705 325.568L410.842 325.476L410.979 325.382L411.128 325.283L411.274 325.185L411.437 325.079L411.596 324.976L411.771 324.863L411.937 324.757L412.129 324.633L412.297 324.529L412.508 324.395L412.686 324.283L412.904 324.146L413.096 324.027L413.324 323.886L413.512 323.77L413.764 323.615L413.946 323.503L414.109 323.404L414.22 323.336L414.412 323.221L414.63 323.087L414.688 323.052C414.76 323.009 414.832 322.967 414.902 322.922L415.142 322.781L415.178 322.76L415.418 322.615L415.679 322.457L415.919 322.312L416.196 322.147L416.409 322.02L416.733 321.828L416.93 321.71L417.271 321.508L417.511 321.367L417.823 321.184L418.063 321.045L418.402 320.846L418.587 320.735L418.971 320.5L419.184 320.376L419.556 320.157L419.734 320.054L420.149 319.819L420.317 319.72L420.745 319.471L420.939 319.361L421.338 319.126L421.578 318.985L421.947 318.769L422.154 318.649L422.557 318.414L422.773 318.29L423.174 318.055L423.414 317.923L423.789 317.707L424.046 317.559L424.422 317.343L424.566 317.261L425.047 316.991L425.246 316.878L425.666 316.643L425.8 316.565C427.721 315.468 429.603 314.395 431.341 313.41L431.776 313.164L432.205 312.929C434.344 311.719 436.209 310.669 437.551 309.917L437.844 309.753L438.269 309.518L438.528 309.372L438.668 309.252ZM448.589 328.234L448.006 328.624L447.552 328.932L446.035 329.97C441.349 333.184 431.833 339.705 424.446 343.525C422.683 344.471 420.847 345.282 418.956 345.952C418.579 345.075 417.693 343.321 416.335 340.638C416.114 340.208 415.879 339.743 415.631 339.252L416.023 339.134C419.679 338.042 425.003 335.094 430.239 331.852C430.657 332.554 431.31 333.094 432.088 333.379C432.531 333.544 433.004 333.623 433.478 333.609C433.953 333.595 434.42 333.49 434.853 333.299C435.287 333.108 435.677 332.835 436.002 332.495C436.327 332.156 436.581 331.757 436.747 331.321V331.297C436.807 331.139 436.855 330.978 436.891 330.813C436.927 330.654 436.952 330.492 436.966 330.329C437.013 329.742 436.907 329.152 436.658 328.615L436.344 327.933L436.776 327.649L437.196 327.372L437.616 327.092C439.99 325.509 442.129 324.038 443.812 322.89L444.532 322.401L444.938 322.124L445.349 321.842L445.97 321.421C447.533 324.734 448.673 327.522 448.585 328.243L448.589 328.234ZM417.434 346.76C417.06 345.884 416.174 344.129 414.813 341.446C414.333 340.506 413.778 339.407 413.192 338.239C413.07 338.004 412.952 337.753 412.825 337.504C412.698 337.255 412.585 337.015 412.458 336.769C411.606 335.049 410.744 333.273 410.026 331.704C409.951 331.542 409.877 331.382 409.807 331.234C409.738 331.086 409.663 330.912 409.594 330.764C408.782 328.932 408.247 327.513 408.293 327.034C408.432 326.918 408.612 326.781 408.833 326.625C408.904 326.968 409.009 327.304 409.147 327.628C409.387 328.354 409.781 329.347 410.396 330.724L410.612 331.194L410.794 331.593L410.83 331.673C411.387 332.883 412.03 334.208 412.691 335.552C412.808 335.787 412.931 336.033 413.048 336.273C413.166 336.513 413.288 336.762 413.413 337.006C414.114 338.415 414.815 339.794 415.451 341.049C416.728 343.562 417.852 345.747 418.128 346.499C417.89 346.605 417.66 346.687 417.434 346.76ZM358.797 297.819C354.917 302.256 351.028 306.297 347.175 309.605C346.669 310.039 346.145 310.5 345.617 310.977C345.634 305.846 348.08 300.584 355.165 298.709C356.35 298.394 357.561 298.098 358.797 297.819ZM378.705 323.446C378.681 323.279 378.655 323.11 378.628 322.939L378.542 322.391C378.511 322.175 378.477 321.959 378.441 321.741C377.68 316.833 376.691 310.556 375.615 303.983L376.897 302.87C377.064 303.176 377.249 303.472 377.45 303.758C377.85 304.354 378.307 305.033 378.307 305.588H379.291C379.291 304.744 378.748 303.943 378.271 303.238C378.033 302.915 377.833 302.568 377.673 302.202C380.909 299.383 384.008 296.656 386.781 294.192L387.364 293.67L387.923 293.174C390.509 290.865 392.763 288.817 394.513 287.175L397.046 292.977L397.25 293.447L397.466 293.943L398.714 296.802L398.933 297.307L399.154 297.809L402.221 304.841L402.462 305.409L402.702 305.975L410.674 324.25C409.591 324.892 408.549 325.598 407.553 326.364C407.181 326.688 407.008 327.273 408.514 330.771L404.252 330.837C404.473 330.132 404.807 329.11 404.862 328.981L404.413 328.781L404.034 328.474C403.914 328.617 403.436 330.137 403.215 330.853L379.968 331.206H379.884C379.737 330.228 379.341 327.611 378.777 323.956L378.705 323.446ZM433.156 325.185C433.48 325.303 433.776 325.482 434.028 325.714C434.281 325.945 434.483 326.222 434.625 326.531L435.105 327.583L435.312 328.032L435.518 328.481L435.758 329.009C435.949 329.428 436.023 329.89 435.972 330.346C435.953 330.51 435.918 330.672 435.866 330.83C435.853 330.881 435.836 330.931 435.816 330.98C435.772 331.095 435.719 331.207 435.657 331.314C435.431 331.707 435.103 332.036 434.707 332.267C434.31 332.498 433.859 332.624 433.397 332.631C432.936 332.638 432.481 332.527 432.077 332.308C431.673 332.089 431.335 331.771 431.096 331.384L431.067 331.335C431.029 331.267 430.993 331.201 430.962 331.131L430.858 330.896V330.884L430.652 330.435V330.416L429.833 328.64C429.548 328.017 429.527 327.309 429.774 326.67C430.021 326.031 430.516 325.514 431.151 325.232V325.232C431.466 325.095 431.805 325.021 432.149 325.013C432.493 325.005 432.835 325.063 433.156 325.185V325.185ZM414.671 337.339C414.96 337.806 415.206 338.297 415.408 338.805C415.173 338.336 414.933 337.845 414.669 337.339H414.671ZM425.08 298.164C424.832 298.136 424.581 298.182 424.36 298.296C423.88 298.547 423.753 299.052 423.64 299.47C423.541 299.825 423.465 300.062 423.318 300.114L423.64 301.023C424.293 300.802 424.463 300.177 424.6 299.719C424.662 299.484 424.742 299.205 424.84 299.151C424.989 299.117 425.145 299.132 425.284 299.193L425.387 298.867C427.174 303.079 429.027 307.611 430.947 312.461C428.163 314.002 424.855 315.882 421.602 317.761L421.558 317.653C421.215 316.782 421.078 316.439 421.743 315.699L421.791 315.677V315.656L421.82 315.623L421.746 315.555L421.405 314.797L421.165 314.898L421.095 314.973C419.943 316.206 420.269 317.038 420.649 318.001C420.682 318.085 420.716 318.17 420.749 318.259C418.798 319.387 416.884 320.505 415.142 321.548L414.642 321.844L414.126 322.152C413.195 322.709 412.326 323.235 411.541 323.719L403.321 304.881L403.081 304.314L402.841 303.746L399.874 296.933L399.653 296.43L399.434 295.928L398.565 293.936L398.349 293.438L398.143 292.968L395.272 286.449C396.911 284.886 397.989 283.773 398.311 283.275C401.737 277.933 401.225 272.967 400.193 269.739C398.865 265.592 396.112 262.456 393.999 260.892C393.906 260.821 393.812 260.755 393.719 260.692C396.734 261.632 400.68 264.723 405.501 269.917C406.646 271.146 407.803 272.455 408.967 273.817C408.866 273.866 408.763 273.92 408.655 273.981C407.798 274.451 408.005 275.335 408.127 275.861C408.177 276.02 408.203 276.185 408.204 276.352C408.209 276.341 408.215 276.331 408.223 276.321L408.982 276.934C409.303 276.556 409.188 276.072 409.087 275.645C408.946 275.039 408.974 274.914 409.14 274.82C409.306 274.726 409.471 274.649 409.62 274.585C413.569 279.272 417.573 284.558 421.362 289.667C422.562 292.328 423.801 295.16 425.078 298.164H425.08ZM424.528 293.957C430.345 301.85 434.219 307.042 436.668 309.227C435.629 309.807 433.905 310.772 431.797 311.961C429.076 305.114 426.497 298.899 424.058 293.318L424.528 293.957ZM294.775 308.649L294.904 308.672C295.101 308.703 295.31 308.729 295.524 308.747C295.672 308.747 295.821 308.766 295.97 308.766C296.186 308.767 296.401 308.752 296.613 308.719C296.978 308.658 297.574 308.613 298.21 308.566C298.846 308.519 299.441 308.475 299.934 308.409C300.174 308.378 300.452 308.339 300.752 308.296L300.87 308.28C301.182 308.235 301.513 308.188 301.844 308.146C302.509 308.057 303.162 307.977 303.623 307.946H303.64C304.855 307.97 305.784 308.245 306.062 308.667C306.12 308.762 306.155 308.868 306.163 308.978C306.171 309.088 306.153 309.198 306.11 309.299C305.644 309.429 305.168 309.524 304.687 309.584C304.125 309.653 303.571 309.77 303.03 309.934C302.92 309.969 302.673 310.028 302.178 310.122C301.938 310.171 301.607 310.227 301.218 310.298C300.346 310.45 299.091 310.655 297.293 310.937L297.053 310.977L296.875 310.941C296.627 310.89 296.385 310.811 296.155 310.707C295.104 310.225 294.902 309.351 294.775 308.649ZM297.605 311.865C299.285 311.602 300.587 311.395 301.525 311.223C301.919 311.155 302.245 311.094 302.517 311.04C302.793 310.99 303.067 310.927 303.338 310.85C303.826 310.704 304.326 310.6 304.833 310.54C305.297 310.479 305.758 310.391 306.211 310.277C306.265 310.57 306.265 310.871 306.211 311.165C306.199 311.242 306.192 311.315 306.187 311.381C306.182 311.447 306.187 311.496 306.187 311.505C306.034 311.705 304.725 312.064 303.465 312.379C303.088 312.473 302.716 312.562 302.38 312.642L301.9 312.757C301.571 312.835 301.268 312.92 300.975 312.992C299.775 313.326 299.021 313.535 298.095 312.88C298.027 312.83 297.958 312.779 297.888 312.722C297.795 312.647 297.721 312.552 297.672 312.445C297.624 312.337 297.601 312.22 297.607 312.102C297.595 312.034 297.6 311.952 297.605 311.865V311.865ZM290.821 298.296C290.581 298.43 290.168 298.192 289.928 297.765C289.688 297.337 289.688 296.881 289.952 296.745C290.216 296.609 290.602 296.846 290.842 297.274C291.082 297.701 291.061 298.159 290.821 298.296ZM293.013 305.559C293.069 305.37 293.15 305.189 293.253 305.019C293.347 304.863 293.464 304.721 293.601 304.599C294.002 305.005 294.215 305.249 294.355 305.407C294.607 305.696 294.746 305.834 295.154 305.806C295.241 305.801 295.328 305.801 295.416 305.806C297.215 305.858 299.017 305.77 300.803 305.545L301.023 305.517C301.277 305.483 301.531 305.462 301.787 305.456C302.987 305.428 303.844 305.724 303.964 305.893C304.173 306.229 304.072 306.436 303.458 306.953L303.41 306.995C302.958 307.03 302.385 307.098 301.796 307.176L300.815 307.312L300.613 307.34L299.799 307.453C299.338 307.514 298.726 307.561 298.135 307.603C297.48 307.653 296.861 307.697 296.455 307.765C295.93 307.825 295.399 307.799 294.883 307.688C294.628 307.638 294.403 307.584 294.222 307.54C294.173 307.519 294.122 307.504 294.069 307.495C294.026 307.495 293.987 307.476 293.946 307.467L293.814 307.436C293.708 307.405 293.606 307.362 293.509 307.307C293.346 307.217 293.207 307.088 293.106 306.934C293.004 306.779 292.943 306.602 292.926 306.419C292.926 306.396 292.926 306.37 292.926 306.346C292.9 306.082 292.926 305.815 293.003 305.559H293.013ZM311.541 312.924L311.495 312.849C309.522 309.664 307.75 306.708 306.326 304.331C305.582 303.09 304.912 301.982 304.324 301.004C304.905 300.45 305.328 299.935 305.366 299.419C305.388 299.118 305.424 298.831 305.46 298.554C305.597 297.434 305.729 296.376 304.98 294.758C304.43 293.553 304.684 292.763 304.994 292.315C305.18 292.028 305.458 291.81 305.784 291.694C306.819 292.869 307.224 294.326 307.805 296.487C307.892 296.797 307.98 297.123 308.076 297.464C309.037 300.896 310.717 301.641 311.946 302.186C312.203 302.292 312.452 302.416 312.69 302.557C312.705 304.218 313.684 310.455 314.493 312.511C313.581 312.652 312.563 312.795 311.531 312.924H311.541ZM322.355 333.428C322.619 333.21 323.817 333.022 324.852 332.909C324.372 333.4 323.923 333.959 323.45 334.535C323.224 334.809 322.994 335.091 322.754 335.376L322.514 335.286C322.157 335.16 321.808 335.015 321.467 334.852C321.772 334.426 322.048 333.95 322.327 333.466L322.355 333.428ZM318.325 338.507L318.353 338.406C318.388 338.283 318.416 338.158 318.438 338.032C318.561 338.073 318.672 338.145 318.757 338.242C318.871 338.387 319.021 338.502 319.194 338.575L318.954 338.716C318.615 338.909 318.334 339.059 318.101 339.186C318.188 338.953 318.25 338.725 318.315 338.507H318.325ZM336.329 341.415C334.709 343.06 332.652 344.31 331.737 344.18C331.669 344.177 331.603 344.156 331.546 344.119C331.489 344.082 331.443 344.031 331.413 343.971C331.35 343.847 331.252 343.744 331.13 343.674C331.008 343.604 330.867 343.571 330.726 343.579C330.391 343.605 330.061 343.685 329.752 343.814C329.329 343.962 328.751 344.162 328.484 344.016C328.321 343.878 328.219 343.685 328.198 343.476C328.182 343.4 328.15 343.328 328.103 343.265C328.056 343.202 327.996 343.15 327.927 343.111C327.658 342.966 327.389 343.062 326.986 343.21C326.384 343.429 325.471 343.76 324.84 343.257C324.422 342.926 324.36 342.487 324.389 342.04C324.533 341.958 324.792 341.838 325.01 341.735C325.82 341.396 326.579 340.954 327.269 340.419L327.341 340.386L326.933 339.51L326.724 339.602L326.669 339.653C326.076 340.173 325.229 340.574 324.588 340.866C324.439 340.934 324.312 340.995 324.197 341.051C324.114 340.999 324.018 340.97 323.92 340.968C323.821 340.966 323.724 340.99 323.64 341.039C320.905 342.545 318.375 343.431 317.192 343.295C316.686 343.252 316.2 343.081 315.782 342.799C315.364 342.516 315.029 342.133 314.808 341.685C314.407 340.884 314.388 339.945 314.76 339.336C315.132 338.728 315.396 338.281 315.593 337.927C316.219 337.87 316.849 337.853 317.477 337.875C317.463 337.965 317.443 338.055 317.417 338.143L317.388 338.246C317.247 338.716 317.103 339.212 316.793 339.503C316.313 339.947 316.529 340.295 316.603 340.391C316.913 340.793 317.393 340.727 319.46 339.555C320.339 339.053 321.151 338.448 321.88 337.753C322.12 337.581 322.342 337.387 322.543 337.173C322.636 337.067 322.72 336.973 322.795 336.893C322.965 336.713 323.111 336.513 323.229 336.296C323.57 335.904 323.889 335.514 324.189 335.138C325.01 334.135 325.721 333.259 326.511 332.716L326.784 332.526L326.621 331.889L326.29 331.847C326.252 331.847 322.046 331.955 321.489 332.93L321.45 332.991C321.163 333.515 320.842 334.021 320.49 334.506C319.856 334.342 319.088 334.156 318.344 334.02C318.685 332.803 319.112 331.361 319.218 331.138C320.694 328.145 321.102 327.849 324.696 327.313C326.902 326.978 329.079 326.476 331.206 325.812L331.374 325.76C332.167 325.525 333.1 324.863 334.2 323.956C335.88 325.864 340.202 330.534 342.504 331.473C340.514 334.802 336.749 340.943 336.32 341.415H336.329Z" fill="black"/>
<path d="M171.908 2.01176C172.249 2.01176 172.664 2.60188 173.151 3.78212C173.639 4.91316 174.151 6.46222 174.688 8.42929C175.273 10.3964 175.882 12.6585 176.516 15.2156C177.199 17.7728 177.857 20.4775 178.491 23.3298C179.174 26.1328 179.832 28.9359 180.466 31.7389C181.101 34.542 181.686 37.222 182.222 39.7793C182.758 42.3366 183.222 44.5985 183.612 46.5656C184.051 48.5328 184.392 50.1064 184.636 51.2866C184.88 52.4175 185.002 52.9832 185.002 52.9832L170.225 53.8684C168.372 37.9845 167.153 29.8456 166.568 29.4522C166.471 29.403 166.178 29.6981 165.69 30.3374C165.202 30.9767 164.593 31.8127 163.861 32.8454C163.13 33.8781 162.325 35.0339 161.447 36.3124C160.57 37.5908 159.668 38.8696 158.741 40.1481C157.814 41.4266 156.936 42.6068 156.107 43.6888C155.279 44.7215 154.547 45.5822 153.913 46.2706C153.279 46.91 152.816 47.2295 152.523 47.2295C152.133 47.2295 151.255 46.2951 149.89 44.4265C148.524 42.5086 147.134 40.4187 145.72 38.1565C144.306 35.8942 142.965 33.8288 141.697 31.9602C140.429 30.0915 139.673 29.1818 139.429 29.2309C139.039 29.3293 138.332 31.4931 137.308 35.7222C136.284 39.9023 135.357 44.0821 134.528 48.2622L133.358 54.4585L119.752 52.4668C128.091 18.8301 133.138 2.01176 134.894 2.01176C135.382 2.01176 136.308 2.87235 137.674 4.59353C139.088 6.26554 140.6 8.33095 142.209 10.7898C143.867 13.1994 145.476 15.609 147.037 18.0187C148.597 20.4284 149.914 22.4938 150.987 24.2149L152.523 26.7229C163.593 10.2488 170.055 2.01176 171.908 2.01176ZM211.002 1.93799C212.075 2.28223 214.733 4.446 218.975 8.42929C223.218 12.4126 227.241 16.5188 231.045 20.748C234.849 24.9772 236.751 27.4852 236.751 28.272C236.751 29.108 234.849 31.6898 231.045 36.0173C227.241 40.3449 223.218 44.5247 218.975 48.5573C214.733 52.5406 212.075 54.5322 211.002 54.5322C210.222 54.5815 208.344 53.4013 205.369 50.9915C202.443 48.5328 199.42 45.7787 196.299 42.7299C193.226 39.6318 190.545 36.6567 188.252 33.8044C185.96 30.903 184.985 29.0588 185.326 28.272C185.814 27.141 187.911 24.387 191.617 20.0104C195.324 15.5845 199.201 11.4045 203.248 7.47035C207.344 3.48706 209.929 1.64294 211.002 1.93799ZM222.048 28.272C222.243 27.5835 220.658 25.6902 217.293 22.5921C213.977 19.4448 211.88 17.6499 211.002 17.2073C210.319 16.9122 208.295 18.4859 204.93 21.9282C201.566 25.3706 199.883 27.4852 199.883 28.272C199.932 28.9605 201.639 30.9767 205.004 34.3207C208.417 37.6156 210.417 39.2629 211.002 39.2629C211.539 39.2629 213.465 37.6156 216.781 34.3207C220.097 31.0259 221.853 29.0096 222.048 28.272ZM211.002 24.0674C211.343 24.2641 212.124 24.9526 213.343 26.1328C214.611 27.2639 215.22 27.9769 215.171 28.272C215.074 28.5179 214.391 29.2801 213.123 30.5587C211.904 31.7881 211.197 32.4028 211.002 32.4028C210.758 32.4028 210.002 31.7881 208.734 30.5587C207.466 29.2801 206.832 28.5179 206.832 28.272C206.832 27.9769 207.466 27.1901 208.734 25.9115C210.002 24.5838 210.758 23.9691 211.002 24.0674ZM283.045 13.2978C271.292 22.9855 265.367 28.149 265.27 28.7884C265.221 29.0342 266.659 30.362 269.585 32.7716C272.56 35.1814 275.535 37.5171 278.51 39.7793L283.045 43.1725L275.949 54.3847C266.001 46.1231 258.662 39.558 253.931 34.6895L253.273 53.9421H241.13C241.081 52.0735 241.057 49.0244 241.057 44.7953C241.057 40.5662 241.057 36.1155 241.057 31.4439C241.057 26.7229 241.057 22.1741 241.057 17.7974C241.106 13.3715 241.13 9.73248 241.13 6.88023V2.52812H254.224C254.468 5.57705 254.468 12.7322 254.224 23.9936C256.272 21.5348 259.003 18.4859 262.417 14.8468C265.831 11.2078 268.732 8.18342 271.122 5.77376L274.706 2.08552L283.045 13.2978ZM306.342 38.304C306.391 38.6483 308.146 39.2629 311.609 40.1481C315.071 41.0333 318.509 41.8447 321.923 42.5824C325.386 43.32 327.117 43.6888 327.117 43.6888L324.703 54.3847C298.613 47.8441 285.568 43.8608 285.568 42.4348C285.568 41.8447 286.738 40.4677 289.079 38.304C291.42 36.1403 293.736 34.1487 296.028 32.3291L299.539 29.526C290.225 19.7891 285.568 14.1584 285.568 12.6339C285.568 12.388 286.007 12.0683 286.884 11.6749C287.811 11.2815 289.03 10.8635 290.542 10.4209C292.053 9.92916 293.785 9.43742 295.736 8.94564C297.686 8.40471 299.734 7.86375 301.88 7.32282C304.075 6.78189 306.245 6.26554 308.391 5.77376C310.536 5.23283 312.584 4.76563 314.535 4.37223C316.534 3.92964 318.29 3.53624 319.802 3.192C321.313 2.84776 322.508 2.57729 323.386 2.38058L324.703 2.08552L326.605 14.0354C325.678 14.1829 324.484 14.3797 323.021 14.6255C321.558 14.8222 319.265 15.1665 316.144 15.6582C313.023 16.15 310.414 16.5926 308.317 16.986C306.269 17.3794 305.269 17.6253 305.318 17.7236C305.318 17.822 306.171 18.7809 307.878 20.6005C309.585 22.42 311.219 24.2887 312.78 26.2066C314.34 28.0753 314.998 29.2064 314.755 29.5998C314.559 29.944 313.755 30.8538 312.341 32.3291C310.926 33.8044 309.561 35.1814 308.244 36.4599L306.342 38.304ZM364.019 27.4606C364.36 27.5098 365.189 19.0268 366.506 2.01176L380.843 3.70835C380.843 3.70835 379.478 15.2402 376.747 38.304C375.381 48.7786 374.504 54.1389 374.113 54.3847C373.479 54.6305 370.846 52.6144 366.213 48.336C361.629 44.0576 357.167 39.8038 352.827 35.5747C348.535 31.2964 346.365 29.2555 346.316 29.4522C346.268 29.5998 346.17 30.5587 346.024 32.3291C345.926 34.0994 345.804 36.1893 345.658 38.5991C345.56 41.0088 345.463 43.4182 345.366 45.828C345.268 48.1885 345.195 50.1801 345.146 51.8029L345 54.3109L331.101 52.6144C332.857 19.1252 335.003 2.30682 337.538 2.15929C338.563 2.11011 341.22 4.17552 345.512 8.35553C349.803 12.5355 353.924 16.7647 357.874 21.0431C361.824 25.2722 363.872 27.4114 364.019 27.4606Z" fill="black"/>
</svg>
