<svg width="631" height="364" viewBox="0 0 631 364" fill="none" xmlns="http://www.w3.org/2000/svg">
<path d="M453.767 290.532C454.542 287.82 455.55 284.882 456.725 281.768L460.468 290.919H475.86L468.192 254.25C478.882 228.631 489.382 198.668 480.154 173.857C477.008 161.601 475.386 151.8 474.773 144.075C474.999 144.301 475.185 144.459 475.307 144.428C476.141 144.213 477.232 144.233 476.511 141.792C476.217 140.791 475.332 139.374 475.343 139.241C475.381 138.766 477.689 143.494 477.813 143.596C480.005 145.417 480.62 144.134 480.279 142.269C480.631 143.112 480.993 143.851 481.456 144.303C482.869 145.659 484.017 144.043 483.264 141.612C481.366 135.532 477.79 134.14 474.554 133.971C474.877 127.123 476.281 122.987 477.888 120.939C479.244 119.201 485.648 112.223 487.154 110.302C487.154 110.302 485.452 108.211 483.312 105.635C487.536 98.2535 491.558 90.5401 492.291 88.992C493.47 86.4947 496.903 80.7069 499.927 75.658C504.025 68.8125 506.933 62.3353 510.854 55.544C513.291 51.3178 513.376 43.053 512.183 37.9929C510.28 29.9247 507.754 30.7496 507.503 30.1981V30.1846C506.576 26.7064 505.672 23.3323 505.469 22.5232C504.257 17.628 502.165 17.4743 499.932 17.8721C498.038 18.2088 496.553 18.5501 494.747 18.7264C492.108 18.9682 490.663 19.6304 491.633 23.4385C492.458 26.6951 494.797 35.2289 495.861 38.637C496.338 40.167 496.469 40.28 496.539 40.897C496.865 41.9705 497.373 42.7615 498.083 43.2677C498.716 44.2192 499.938 45.6385 502.363 48.0386C503.9 49.5618 504.544 52.2286 500.212 58.6854C494.93 66.5593 487.33 77.6175 485.899 80.6594C484.932 82.707 478.855 91.3944 475.119 96.3416C475.074 96.3031 475.031 96.267 474.993 96.2399C474.387 95.7766 470.129 104.376 463.975 104.719C463.357 104.759 462.742 104.834 462.133 104.945L462.106 104.841L462.072 104.715L461.97 104.333C461.957 104.283 461.943 104.233 461.932 104.186L461.864 103.928L461.824 103.77L461.763 103.522C461.749 103.467 461.733 103.411 461.72 103.354C461.706 103.298 461.681 103.192 461.661 103.11L461.62 102.941C461.6 102.859 461.582 102.776 461.561 102.694C461.541 102.613 461.537 102.586 461.523 102.532C461.503 102.441 461.485 102.353 461.464 102.265C461.464 102.218 461.442 102.17 461.433 102.125C461.41 102.016 461.385 101.912 461.365 101.806L461.344 101.718L461.263 101.316C461.263 101.289 461.263 101.262 461.247 101.232C461.227 101.13 461.207 101.027 461.189 100.925C461.189 100.88 461.173 100.839 461.164 100.794C461.15 100.71 461.134 100.624 461.121 100.538C461.121 100.493 461.105 100.446 461.096 100.398C461.087 100.351 461.071 100.242 461.06 100.172C461.048 100.102 461.044 100.077 461.037 100.03C461.03 99.9824 461.017 99.8807 461.008 99.8039C460.999 99.727 460.994 99.7135 460.99 99.6705C460.985 99.6276 460.972 99.5214 460.963 99.4445L460.949 99.3248C460.949 99.2434 460.942 99.1643 460.929 99.0875V99.0016C460.929 98.8954 460.913 98.7937 460.911 98.6942C460.912 98.6829 460.912 98.6716 460.911 98.6603C460.911 98.5744 460.911 98.4908 460.911 98.4117C460.911 98.3823 460.911 98.353 460.911 98.3236C460.911 98.2942 460.911 98.2061 460.911 98.1518C460.911 98.0976 460.911 98.0885 460.911 98.0569L460.924 97.9145L460.938 97.8241C460.938 97.7812 460.951 97.7405 460.96 97.6998C460.969 97.6591 460.972 97.6478 460.976 97.623C460.981 97.5981 460.999 97.5484 461.01 97.5145C461.016 97.4922 461.024 97.4703 461.033 97.449C461.046 97.4158 461.061 97.3833 461.078 97.3518C461.078 97.336 461.094 97.3201 461.103 97.3066C461.126 97.2661 461.155 97.2288 461.189 97.1958C464.319 94.1448 464.642 88.5513 463.356 83.3805C467.34 82.5013 466.206 73.9969 466.206 73.9969L461.805 75.8456C460.101 61.2528 444.883 61.5285 440.076 71.694C436.686 78.874 432.961 94.4771 415.557 107.766C414.809 108.338 422.757 112.898 431.325 117.538C427.935 122.933 426.113 130.309 423.908 139.634L424.717 139.553C424.457 140.373 424.163 141.331 423.871 142.375C418.644 152.948 410.675 174.436 407.778 184.224C402.042 190.441 391.488 228.174 391.043 232.025C390.871 233.521 404.501 237.223 405.834 237.833C411.67 240.545 429.006 244.839 435.196 246.993C435.481 247.093 436.683 243.66 438.216 238.835C438.815 239.965 439.391 241.022 439.935 242.03L440.071 242.286C441.145 244.274 442.087 246.015 442.806 247.395L442.849 247.475C443.142 248.04 443.396 248.54 443.608 248.975C443.651 249.063 443.694 249.149 443.732 249.231C443.771 249.312 443.834 249.457 443.879 249.545L443.958 249.719C444.051 249.927 444.128 250.112 444.184 250.263L436.9 290.548H453.758L453.767 290.532ZM414.698 184.249L423.896 157.504C426.339 160.076 433.522 156.159 435.861 154.114C434.855 159.804 433.321 165.388 431.277 170.793L431.146 171.129V171.154C431.106 171.261 431.067 171.362 431.027 171.464L431.015 171.493C430.979 171.588 430.941 171.683 430.907 171.774L430.889 171.814L430.789 172.067L430.771 172.11C430.74 172.189 430.71 172.266 430.679 172.336L430.66 172.382L430.577 172.589L430.559 172.632L430.48 172.822L430.466 172.858L430.407 172.998C427.686 177.37 425.765 182.191 424.735 187.236C421.001 186.059 417.498 184.976 414.698 184.249Z" fill="white"/>
<path d="M487.231 317.512L485.844 317.498C485.923 318.592 486.669 317.835 487.231 317.512Z" fill="white"/>
<path d="M489.736 317.53L487.785 317.514C487.8 317.541 487.811 317.569 487.819 317.598C488.199 318.886 489.058 318.025 489.736 317.53Z" fill="white"/>
<path d="M489.736 317.53H490.602C490.46 317.089 490.13 317.248 489.736 317.53Z" fill="white"/>
<path d="M492.647 318.167C492.861 317.982 493.061 317.781 493.244 317.564L490.602 317.541C490.602 317.571 490.62 317.602 490.629 317.638C490.692 317.935 492.181 318.61 492.647 318.167Z" fill="white"/>
<path d="M485.845 317.496C485.815 317.096 485.524 317.227 485.146 317.496H485.845Z" fill="white"/>
<path d="M487.232 317.512H487.786C487.682 317.304 487.474 317.372 487.232 317.512Z" fill="white"/>
<path d="M434.665 318.161C435.86 317.555 434.701 319.489 437.517 318.066C438.697 317.469 437.707 320.129 441.117 317.996C442.021 317.437 442.071 319.779 445.158 317.564C445.935 317.006 445.038 319.049 448.223 317.697C449.951 316.963 448.315 319.489 451.877 317.627C454.051 316.497 451.933 319.785 455.907 317.772C457.516 316.956 456.029 319.451 458.982 317.903C460.074 317.333 459.721 319.679 461.853 318.115C462.531 317.611 461.945 319.747 464.196 317.663C464.999 316.915 465.182 317.876 466.981 317.783C467.158 317.788 467.334 317.811 467.507 317.851C468.748 320.018 469.394 317.399 470.28 318.472C471.058 319.415 472.179 317.634 472.655 318.246C473.478 319.306 474.025 317.268 474.877 318.079C476.109 319.25 477.024 316.741 477.609 317.919C478.353 319.413 479.316 316.542 480.285 318.124C481.343 319.846 482.568 316.287 483.411 318.124C483.686 318.728 484.529 317.935 485.146 317.501L456.444 317.245L465.894 317.125C466.603 317.125 467.297 317.125 467.952 317.101L493.172 316.782C492.688 314.547 491.92 310.298 489.581 310.298H489.072C491.764 308.601 485.214 302.318 482.697 300.942C476.595 297.599 477.639 292.471 471.015 298.596C467.442 301.9 465.38 292.268 461.247 295.045C459.003 296.557 458.16 298.243 457.778 299.791C457.525 299.579 457.258 299.355 456.978 299.113C449.854 292.977 451.685 297.531 449.373 299.204L450.862 290.55C450.605 291.474 449.551 297.253 449.316 299.242C448.812 299.572 448.224 299.75 447.621 299.755C439.829 300.108 441.16 295.49 438.877 294.351C439.424 292.514 439.962 290.697 439.989 290.55L438.859 294.347C438.485 294.173 438.076 294.089 437.664 294.101C435.89 294.101 434.244 296.919 433.117 300.008L432.482 300.065C432.644 300.203 432.803 300.327 432.961 300.447C432.118 302.874 431.605 305.394 431.605 306.79C431.605 307.64 431.243 308.391 431.243 309.826C428.723 310.504 425.946 316.997 427.614 316.997C429.144 316.997 430.694 317.015 432.253 317.04L427.614 316.997C427.876 317.738 428.938 318.818 430.084 317.946C430.807 317.381 430.857 320.095 434.665 318.161ZM482.455 310.269L469.426 310.228C474.235 310.16 479.429 310.117 482.455 310.269Z" fill="white"/>
<path d="M511.251 55.7678C513.706 51.5099 513.877 43.1683 512.63 37.8799C511.048 31.1812 508.957 30.3586 508.065 30.0083L507.904 29.9427C507.705 29.1924 507.506 28.4534 507.319 27.7483C506.641 25.2148 506.062 23.0271 505.909 22.4056C504.72 17.5828 502.632 16.9229 499.85 17.4156C499.323 17.5082 498.826 17.6031 498.344 17.6958C497.141 17.947 495.926 18.137 494.703 18.2653C493.164 18.4054 492.005 18.6879 491.356 19.6032C490.767 20.4394 490.71 21.696 491.182 23.5537C492.019 26.8488 494.346 35.3261 495.418 38.7748C495.612 39.4008 495.75 39.7918 495.852 40.0788C495.963 40.3575 496.039 40.6491 496.078 40.9467L496.093 41.0235C496.441 42.1626 496.988 43.0131 497.734 43.5751C498.412 44.5649 499.644 45.991 502.028 48.3595C503.199 49.5189 504.243 51.8218 499.818 58.4187C498.884 59.8109 497.877 61.3025 496.846 62.8325C492.075 69.9018 486.676 77.9158 485.471 80.4605C484.567 82.3747 478.739 90.739 474.98 95.7426C475.085 95.76 475.183 95.8035 475.265 95.8692L475.39 95.9709C475.489 96.0545 475.602 96.1607 475.731 96.2828C479.444 91.3402 485.311 82.9714 486.31 80.856C487.476 78.3858 492.864 70.4035 497.61 63.3591C498.643 61.8291 499.644 60.3375 500.584 58.9431C504.293 53.4151 504.939 49.9505 502.675 47.7086C501.176 46.226 500.159 45.1367 499.459 44.3186C499.278 44.1062 499.117 43.9095 498.977 43.731C498.751 43.4304 498.557 43.175 498.412 42.9558C498.213 42.6662 498.054 42.3516 497.938 42.0202C497.379 40.3252 497.698 40.0336 497.7 40.0314C497.735 40.012 497.775 40.0034 497.816 40.0065C498.042 40.0065 498.518 40.1444 499.375 40.7681C499.786 41.0759 500.18 41.4064 500.555 41.758C501.185 42.3275 501.798 42.888 502.618 43.1547C503.018 43.2881 503.439 43.3508 503.861 43.34C504.165 43.3348 504.467 43.3022 504.765 43.2428C505.127 43.1645 505.476 43.0335 505.8 42.8541C506.199 42.6372 506.577 42.3845 506.93 42.0993C507.265 41.8322 507.581 41.5414 507.875 41.2292C508.734 40.289 508.817 38.3974 508.63 36.4041C508.494 34.9599 508.218 33.4661 507.99 32.2276L507.936 31.9406L507.893 31.7146C507.844 31.4533 507.812 31.189 507.798 30.9236C507.934 30.9765 508.066 31.0384 508.193 31.1089C509.079 31.6016 510.499 32.9757 511.71 38.1149C512.921 43.2541 512.772 51.2636 510.431 55.3248C508.623 58.4436 507.025 61.5398 505.459 64.5366C503.619 68.0757 501.716 71.7347 499.501 75.4343C496.206 80.9396 492.997 86.3704 491.845 88.8112C491.108 90.3706 487.239 97.7721 483.211 104.841L483.528 105.221L483.844 105.601C487.946 98.423 491.933 90.7955 492.681 89.2067C493.811 86.8021 497.013 81.3962 500.297 75.9111C502.525 72.1867 504.435 68.5142 506.281 64.9637C507.857 61.9579 509.464 58.8685 511.251 55.7678Z" fill="black"/>
<path d="M435.218 247.443C435.335 247.442 435.449 247.402 435.541 247.33C435.736 247.183 436.115 246.894 438.332 240.001L438.029 239.433L437.724 238.864C436.025 244.204 435.338 245.917 435.064 246.437C432.655 245.617 428.75 244.505 424.625 243.33C417.588 241.327 409.612 239.058 406.037 237.397C405.655 237.219 404.455 236.843 402.791 236.326C400.746 235.686 397.942 234.812 395.654 233.976C392.217 232.719 391.62 232.154 391.519 232.005C391.792 229.921 394.877 218.253 398.685 206.632C402.385 195.343 404.938 189.616 406.613 186.723C406.916 186.199 407.189 185.77 407.436 185.417C407.665 185.08 407.919 184.761 408.195 184.461C408.647 183.987 408.941 183.846 409.117 183.815C409.953 183.661 411.737 183.973 414.089 184.57L414.541 184.687L414.993 184.805C417.608 185.503 420.808 186.488 424.173 187.562C424.203 187.41 424.237 187.259 424.268 187.11C424.3 186.961 424.332 186.807 424.365 186.658C421.009 185.589 417.884 184.624 415.294 183.946L424.108 158.299C424.545 158.564 425.035 158.731 425.543 158.79C425.768 158.819 425.994 158.834 426.221 158.833C429.035 158.833 432.935 156.849 435.18 155.246C435.222 155.02 435.263 154.794 435.302 154.568C435.34 154.342 435.383 154.116 435.424 153.89C433.476 155.524 428.555 158.254 425.665 157.87C425.214 157.826 424.784 157.659 424.422 157.386C424.285 157.277 424.164 157.15 424.06 157.009C424.04 156.98 424.015 156.952 423.995 156.921C423.907 156.785 423.823 156.645 423.746 156.498C421.898 153.047 423.089 146.952 424.313 142.522C424.553 141.664 424.793 140.866 425.01 140.163C425.03 140.104 425.048 140.043 425.066 139.984L424.564 140.034H424.551L424.063 140.082C423.864 140.728 423.651 141.438 423.441 142.183C419.692 149.761 415.097 161.845 413.554 165.988C411.63 171.136 408.889 178.827 407.359 183.987C406.469 184.988 405.271 186.911 403.634 190.608C401.903 194.518 399.939 199.816 397.795 206.358C394.045 217.798 390.834 229.783 390.581 231.969C390.45 233.117 393.123 234.294 402.507 237.223C404.012 237.693 405.309 238.098 405.637 238.249C409.278 239.944 417.292 242.225 424.361 244.236C428.655 245.454 432.691 246.607 435.042 247.427C435.099 247.443 435.159 247.449 435.218 247.443ZM414.449 166.248C416.86 159.782 419.791 152.41 422.402 146.617C421.662 150.561 421.498 154.754 423.235 157.414C423.281 157.481 423.328 157.542 423.376 157.603L414.399 183.695C411.852 183.053 409.917 182.726 408.95 182.902C408.844 182.922 408.741 182.951 408.64 182.99C409.886 178.963 411.865 173.168 414.449 166.248Z" fill="black"/>
<path d="M464.416 264.336C461.794 270.465 459.265 276.378 457.225 281.763L460.78 290.453H475.287L468.055 255.8C466.825 258.704 465.605 261.557 464.416 264.336Z" fill="black"/>
<path d="M479.828 174.316H430.144C427.853 178.235 426.204 182.494 425.258 186.934L425.163 187.386C425.131 187.539 425.098 187.691 425.068 187.838C423.565 195.632 424.11 204.067 426.77 212.661C429.116 220.235 434.002 229.871 438.115 237.619L438.42 238.193C438.522 238.383 438.624 238.575 438.725 238.762C439.439 240.098 440.127 241.37 440.759 242.554C442.17 245.167 443.304 247.269 443.998 248.684L449.747 216.96C450.089 214.438 448.787 212.643 447.155 210.435L447.114 210.379L446.809 209.954L446.461 209.477C444.104 206.216 441.451 201.793 442.373 193.28C442.389 193.126 442.407 192.972 442.425 192.816C442.443 192.66 442.466 192.507 442.486 192.351C442.642 191.185 442.861 189.951 443.164 188.631L444.068 188.834C443.767 190.177 443.546 191.426 443.39 192.602C443.37 192.755 443.347 192.914 443.329 193.054C443.311 193.194 443.295 193.363 443.279 193.517C442.497 200.882 444.482 204.955 446.617 208.069C446.744 208.254 446.87 208.435 446.997 208.614C447.124 208.792 447.275 209 447.413 209.188L447.865 209.803C449.447 211.954 450.855 213.855 450.73 216.445H450.78L450.678 217.014C450.647 217.254 450.602 217.502 450.543 217.756L437.469 290.046H453.424C454.17 287.474 455.131 284.692 456.236 281.756L456.475 281.119C456.554 280.911 456.638 280.699 456.717 280.489C458.699 275.336 461.093 269.74 463.57 263.95C464.926 260.786 466.322 257.511 467.714 254.178C467.821 253.927 467.925 253.674 468.031 253.423L468.345 252.663C478.795 227.453 488.646 198.482 479.828 174.316Z" fill="black"/>
<path d="M432.301 319.338C432.938 319.338 433.772 319.141 434.875 318.581L434.983 318.531C435.474 319.259 436.217 319.245 437.725 318.484C437.744 318.473 437.765 318.464 437.786 318.457C437.813 318.49 437.847 318.542 437.871 318.581C438.45 319.451 439.227 319.724 441.363 318.393L441.393 318.375C441.472 318.419 441.547 318.469 441.619 318.524C442.328 319.031 443.255 319.449 445.278 318.045C445.678 318.626 446.385 318.981 448.394 318.127C448.505 318.07 448.625 318.036 448.749 318.027C448.78 318.067 448.808 318.109 448.835 318.151C449.307 318.911 449.992 319.135 452.082 318.043C452.24 317.945 452.415 317.879 452.598 317.849C452.632 317.908 452.663 317.969 452.69 318.032C452.753 318.212 452.854 318.377 452.986 318.516C453.119 318.654 453.279 318.763 453.456 318.834C454.021 319.028 454.84 318.834 456.107 318.19C456.196 318.142 456.289 318.104 456.385 318.077C456.401 318.106 456.419 318.145 456.435 318.172C456.495 318.324 456.586 318.462 456.703 318.576C456.82 318.69 456.96 318.778 457.113 318.834C457.579 318.985 458.218 318.834 459.186 318.319C459.217 318.303 459.249 318.289 459.283 318.278C459.361 318.34 459.431 318.411 459.491 318.49C459.988 319.083 460.621 319.501 461.94 318.617C462.008 318.731 462.099 318.829 462.209 318.904C462.318 318.979 462.442 319.029 462.573 319.051C463.055 319.121 463.631 318.805 464.501 317.996C464.727 317.788 464.741 317.792 465.134 317.939C465.723 318.178 466.359 318.28 466.994 318.24C467.064 318.237 467.134 318.246 467.202 318.264C467.529 318.784 467.866 319.071 468.246 319.168C468.745 319.291 469.15 319.033 469.444 318.843C469.552 318.77 469.668 318.71 469.789 318.662C469.789 318.662 469.83 318.662 469.905 318.764C470.583 319.593 471.469 319.076 471.939 318.796C472.061 318.72 472.188 318.652 472.318 318.592C472.49 318.82 472.744 318.972 473.026 319.017C473.457 319.067 473.79 318.791 474.056 318.59C474.416 318.303 474.432 318.319 474.535 318.416C475.471 319.306 476.343 318.655 476.825 318.305C476.928 318.223 477.037 318.147 477.15 318.079L477.173 318.12C477.236 318.281 477.334 318.425 477.46 318.542C477.587 318.66 477.738 318.747 477.903 318.798C478.355 318.909 478.739 318.631 479.074 318.384C479.245 318.26 479.505 318.07 479.611 318.09C479.63 318.09 479.722 318.122 479.869 318.362C479.958 318.535 480.084 318.687 480.237 318.806C480.391 318.926 480.57 319.01 480.759 319.053C481.324 319.15 481.795 318.764 482.208 318.425C482.377 318.264 482.571 318.133 482.782 318.036C482.782 318.036 482.859 318.077 482.965 318.312C483.013 318.423 483.086 318.521 483.178 318.6C483.27 318.678 483.379 318.734 483.496 318.764C484.012 318.893 484.559 318.484 485.078 318.086C485.171 318.016 485.289 317.928 485.397 317.86C485.421 317.986 485.472 318.105 485.548 318.208C485.623 318.312 485.721 318.398 485.833 318.459C486.285 318.685 486.737 318.371 487.142 318.1C487.216 318.05 487.32 317.98 487.408 317.925C487.46 318.098 487.55 318.257 487.673 318.389C487.795 318.521 487.946 318.624 488.114 318.689C488.699 318.879 489.255 318.463 489.748 318.079C489.87 317.987 490.032 317.853 490.157 317.785C490.317 318.292 491.223 318.594 491.409 318.653C492.087 318.861 492.611 318.809 492.934 318.504L493.015 318.427C493.483 317.996 493.594 317.871 493.648 317.722L492.778 317.406C492.788 317.377 492.801 317.349 492.819 317.324C492.76 317.401 492.478 317.661 492.385 317.747L492.299 317.828C492.107 317.948 491.273 317.672 491.029 317.455C491.011 317.389 490.988 317.325 490.959 317.263L493.723 317.229L493.497 316.23C493.009 313.97 492.211 310.305 489.989 309.871C490.003 309.837 490.019 309.803 490.03 309.767C490.984 307.055 485.121 301.751 482.879 300.526C480.963 299.477 479.765 298.239 478.811 297.244C477.708 296.114 476.838 295.301 475.697 295.278L475.019 291.382L474.938 290.93L474.924 290.851L474.472 290.93L474.02 291.009L474.086 291.393L474.786 295.425C473.749 295.737 472.461 296.605 470.675 298.259C470.237 298.664 469.826 298.851 469.419 298.833C468.528 298.79 467.631 297.787 466.677 296.727C465.773 295.705 464.707 294.53 463.461 294.175L462.689 291.393L462.56 290.941L462.526 290.817L462.074 290.941L461.622 291.063L461.714 291.404L462.463 294.092C461.917 294.155 461.397 294.356 460.951 294.675C459.201 295.854 458.087 297.237 457.497 298.982L457.244 298.767C454.345 296.268 452.724 295.346 451.648 295.579C450.844 295.755 450.505 296.483 450.177 297.208C450.116 297.346 450.053 297.484 449.985 297.619C450.338 295.409 450.916 292.22 451.19 291.018C451.221 290.878 451.251 290.76 451.273 290.679L450.821 290.555L450.369 290.43C450.369 290.464 450.349 290.507 450.338 290.555C450.306 290.672 450.272 290.83 450.231 291.007C449.861 292.72 449.088 297.021 448.837 298.955C448.441 299.166 448 299.28 447.551 299.287C442.523 299.513 441.569 297.642 440.726 295.99C440.373 295.298 440.012 294.593 439.37 294.137C439.851 292.516 440.147 291.511 440.29 291.007C440.351 290.792 440.385 290.668 440.391 290.627L439.953 290.543L439.481 290.453C439.475 290.483 439.467 290.514 439.458 290.543C439.433 290.638 439.388 290.799 439.327 290.995C439.151 291.608 438.843 292.641 438.52 293.73C438.225 293.654 437.921 293.616 437.616 293.619C435.582 293.619 433.849 296.557 432.673 299.762L432.136 300.401C432.217 300.472 432.298 300.537 432.38 300.603C431.564 303.05 431.094 305.505 431.094 306.772C431.08 307.119 431.034 307.463 430.956 307.801C430.834 308.353 430.759 308.915 430.73 309.48C428.54 310.431 426.37 314.748 426.603 316.506C426.612 316.698 426.677 316.883 426.788 317.039C426.899 317.195 427.053 317.316 427.231 317.388C427.52 317.977 428.031 318.427 428.651 318.642C428.915 318.72 429.194 318.736 429.466 318.688C429.737 318.639 429.993 318.529 430.215 318.364C430.251 318.398 430.294 318.439 430.328 318.475C430.571 318.757 430.875 318.98 431.216 319.13C431.558 319.279 431.928 319.35 432.301 319.338ZM437.306 317.659C436.427 318.111 436.05 318.151 435.908 318.142C435.835 318.142 435.835 318.142 435.752 318.016C435.526 317.697 435.196 317.379 434.454 317.756C432.16 318.92 431.487 318.258 431.042 317.819C430.908 317.677 430.752 317.559 430.578 317.469C432.859 317.494 435.171 317.544 437.449 317.596C437.404 317.612 437.361 317.631 437.318 317.652L437.306 317.659ZM438.644 318.07C438.534 317.884 438.378 317.729 438.192 317.618H438.477L440.767 317.67C439.076 318.703 438.837 318.35 438.644 318.063V318.07ZM442.165 317.772L442.059 317.697L444.03 317.736C442.934 318.312 442.516 318.014 442.165 317.756V317.772ZM449.879 317.869C449.847 317.872 449.815 317.866 449.786 317.852C449.758 317.838 449.733 317.817 449.716 317.79H450.369C450.211 317.842 450.045 317.866 449.879 317.862V317.869ZM453.771 317.959C453.701 317.935 453.658 317.883 453.592 317.751L454.412 317.733H454.907C454.168 318.016 453.875 317.982 453.771 317.953V317.959ZM431.921 307.986C432.011 307.59 432.063 307.186 432.075 306.779C432.075 305.638 432.468 303.464 433.205 301.174C434.373 301.947 435.422 302.255 436.405 302.255C438.111 302.255 439.63 301.333 441.277 300.331C441.693 300.078 442.125 299.816 442.575 299.558L442.43 299.305C443.54 299.927 445.158 300.318 447.628 300.209C448.201 300.198 448.763 300.055 449.273 299.794C449.439 299.706 449.595 299.604 449.741 299.486C450.419 298.944 450.76 298.198 451.043 297.581C451.325 296.964 451.533 296.544 451.87 296.471C452.582 296.315 454.15 297.292 456.663 299.457L457.246 299.952C456.507 303.098 456.636 304.004 456.774 304.96C456.883 305.703 457 306.472 456.7 308.513C456.617 308.913 456.634 309.328 456.752 309.719C451.739 309.898 446.13 309.945 445.341 309.916C445.006 309.9 444.211 309.9 443.094 309.9H442.642C439.704 309.9 433.015 309.9 431.706 309.563C431.731 309.03 431.803 308.5 431.921 307.979V307.986ZM433.853 299.38C435.067 296.358 436.495 294.553 437.67 294.553C437.885 294.55 438.099 294.574 438.308 294.625C438.623 294.701 438.91 294.866 439.133 295.102C439.466 295.495 439.74 295.934 439.948 296.406C440.36 297.217 440.852 298.169 441.84 298.919C441.483 299.127 441.135 299.337 440.8 299.54C438.154 301.147 436.335 302.252 433.519 300.266C433.625 299.963 433.736 299.676 433.853 299.373V299.38ZM466.013 297.346C466.565 298.01 467.183 298.616 467.859 299.154C467.516 299.376 467.205 299.642 466.933 299.947C466.101 301.007 464.266 301.041 462.792 301.077H462.411C461.744 301.093 460.074 300.625 459.021 300.209C458.75 300.111 458.489 299.989 458.241 299.843C458.259 299.769 458.279 299.694 458.302 299.617C458.632 298.453 459.364 296.876 461.507 295.432C463.129 294.327 464.291 295.414 466.02 297.335L466.013 297.346ZM469.403 299.757C470.061 299.789 470.709 299.513 471.331 298.939C475.478 295.097 476.212 295.866 478.179 297.9C479.184 298.939 480.439 300.234 482.473 301.351C484.931 302.707 489.831 307.654 489.194 309.471C489.141 309.616 489.048 309.742 488.925 309.835L482.45 309.817C480.924 309.742 478.87 309.713 476.597 309.713C474.323 309.713 471.823 309.742 469.421 309.776H468.456C468.415 309.752 468.371 309.733 468.325 309.719L468.309 309.776H465.453H463.658L458.098 309.758C458.041 309.74 457.984 309.719 457.929 309.695C457.844 309.66 457.767 309.607 457.703 309.541C457.581 309.401 457.561 309.145 457.628 308.664C457.943 306.492 457.816 305.62 457.705 304.847C457.585 304.008 457.479 303.265 458.024 300.792C458.184 300.878 458.363 300.962 458.555 301.043C458.977 301.217 459.407 301.368 459.845 301.495C460.2 301.602 460.557 301.696 460.892 301.773C461.387 301.903 461.893 301.986 462.404 302.02H462.433H462.811C464.481 301.988 466.558 301.947 467.663 300.544C467.911 300.287 468.189 300.059 468.49 299.866C468.605 299.787 468.698 299.719 468.777 299.66C468.983 299.719 469.196 299.748 469.41 299.746L469.403 299.757ZM472.94 316.576L467.932 316.64L465.898 316.664L455.12 316.8C455.307 315.125 455.798 311.774 457.341 310.675H457.961L468.045 310.707H469.423L482.464 310.748L489.203 310.768H489.574C491.359 310.768 492.134 314.199 492.597 316.332L472.94 316.576ZM457.409 317.959C457.373 317.946 457.341 317.896 457.274 317.761C457.274 317.742 457.253 317.722 457.242 317.702L458.399 317.686C457.708 317.996 457.468 317.966 457.407 317.948L457.409 317.959ZM461.579 317.754C460.659 318.432 460.492 318.231 460.223 317.901C460.152 317.821 460.077 317.745 459.997 317.675L461.775 317.652C461.706 317.674 461.639 317.705 461.577 317.742L461.579 317.754ZM462.743 318.138C462.722 318.111 462.698 318.066 462.677 318.034C462.594 317.864 462.459 317.725 462.291 317.638L463.547 317.623C463.039 318.036 462.811 318.113 462.741 318.127L462.743 318.138ZM473.505 317.867C473.402 317.957 473.287 318.033 473.164 318.093C473.108 318.057 473.061 318.011 473.024 317.957C472.572 317.363 471.894 317.756 471.493 317.993C470.877 318.357 470.775 318.332 470.641 318.172C470 317.394 469.299 317.842 468.965 318.059C468.777 318.179 468.601 318.285 468.488 318.264C468.415 318.246 468.217 318.149 467.911 317.614L467.88 317.559L474.12 317.483C473.895 317.573 473.687 317.699 473.503 317.855L473.505 317.867ZM476.298 317.562C475.726 317.987 475.525 318.057 475.2 317.747C475.082 317.63 474.941 317.54 474.786 317.48L476.441 317.46L476.298 317.562ZM478.558 317.648C478.435 317.747 478.301 317.832 478.158 317.901C478.108 317.846 478.066 317.783 478.036 317.715C477.987 317.617 477.926 317.525 477.853 317.442L478.875 317.428C478.75 317.487 478.646 317.564 478.547 317.636L478.558 317.648ZM481.654 317.718C481.428 317.898 481.101 318.17 480.949 318.147C480.897 318.147 480.802 318.066 480.692 317.885C480.587 317.704 480.452 317.544 480.292 317.41L482.088 317.388C481.926 317.478 481.781 317.593 481.643 317.706L481.654 317.718ZM484.563 317.365C484.329 317.556 484.076 317.722 483.808 317.862C483.721 317.678 483.601 317.511 483.453 317.37L484.583 317.356L484.563 317.365ZM486.667 317.342C486.572 317.406 486.441 317.498 486.326 317.568C486.324 317.54 486.324 317.511 486.326 317.483C486.324 317.436 486.318 317.39 486.308 317.345H486.694L486.667 317.342ZM489.228 317.354C489.033 317.503 488.581 317.849 488.446 317.819C488.446 317.819 488.362 317.77 488.276 317.48C488.259 317.422 488.235 317.365 488.206 317.311L489.305 317.297L489.228 317.354ZM427.826 314.963C428.447 313.08 429.891 310.863 431.146 310.332C431.545 310.48 431.965 310.566 432.391 310.585C433.083 310.657 434.086 310.712 435.372 310.75C437.709 310.818 440.57 310.818 442.645 310.818C443.928 310.818 444.945 310.818 445.302 310.834C445.411 310.834 445.705 310.834 446.143 310.834C447.82 310.834 451.626 310.793 455.425 310.678L456.026 310.66C454.864 312.174 454.412 314.728 454.182 316.795C449.029 316.92 443.693 316.795 438.493 316.678C434.897 316.597 431.182 316.511 427.609 316.508C427.57 316.411 427.505 315.964 427.826 314.963ZM429.801 317.559C429.689 317.658 429.555 317.727 429.41 317.761C429.264 317.795 429.113 317.792 428.969 317.754C428.782 317.692 428.611 317.586 428.472 317.446H429.971C429.913 317.477 429.859 317.515 429.81 317.559H429.801Z" fill="black"/>
<path d="M430.683 117.696L431.089 117.922L431.501 118.148C428.475 123.141 426.725 129.828 424.908 137.451C424.78 137.998 424.648 138.547 424.517 139.103L424.879 139.067L425.105 139.042L425.376 139.015L425.675 138.985L426.251 138.929L429.917 138.563L430.425 138.513L430.931 138.461L436.247 137.932C436.202 137.428 436.149 136.924 436.089 136.42C436.041 136.016 435.971 135.29 435.892 134.413C435.878 134.264 435.865 134.108 435.851 133.95C435.838 133.792 435.824 133.643 435.811 133.482C435.551 130.413 435.241 126.155 435.241 125.084L436.165 125.048L436.843 133.521L436.88 133.991L436.916 134.463L437.255 138.757C437.293 139.324 437.323 139.887 437.343 140.457H436.877H436.848C436.79 141.073 436.658 141.68 436.455 142.265C435.906 144.098 434.945 146.577 434.626 146.891L435.255 147.569C435.537 147.309 435.964 146.403 436.385 145.309C436.559 144.857 436.733 144.373 436.895 143.89C437.074 143.361 437.239 142.832 437.377 142.348C437.371 145.899 437.086 149.444 436.523 152.95C436.486 153.176 436.45 153.402 436.412 153.628C436.373 153.854 436.333 154.105 436.29 154.34C435.332 159.708 433.905 164.982 432.025 170.101C431.896 170.454 431.77 170.779 431.652 171.1C431.32 171.97 431.035 172.682 430.823 173.184C430.796 173.249 430.769 173.31 430.746 173.367H479.562C479.561 173.353 479.561 173.34 479.562 173.326C476.751 162.266 475.001 152.534 474.335 144.244C474.484 144.422 474.655 144.58 474.843 144.717C474.98 144.819 475.147 144.872 475.318 144.868C475.358 144.866 475.398 144.861 475.437 144.852C475.51 144.832 475.584 144.816 475.663 144.798C476.115 144.696 476.683 144.572 477.006 144.021C477.112 143.834 477.181 143.628 477.207 143.415C477.433 143.847 477.465 143.867 477.535 143.928C478.588 144.803 479.408 145.094 480.039 144.816C480.195 144.744 480.335 144.641 480.449 144.512C480.564 144.383 480.65 144.232 480.703 144.068C480.833 144.267 480.985 144.45 481.155 144.615C481.657 145.099 482.107 145.241 482.457 145.241C482.696 145.241 482.931 145.176 483.135 145.051C483.994 144.52 484.231 143.074 483.725 141.451C481.833 135.399 478.301 133.806 475.056 133.519C474.902 133.505 474.748 133.494 474.604 133.487C474.459 133.48 474.294 133.473 474.152 133.469C474.481 127.539 475.666 123.041 477.56 120.63C478.238 119.771 480.075 117.692 482.023 115.511C483.831 113.477 485.705 111.373 486.6 110.281C485.696 109.172 484.588 107.827 483.42 106.419L483.103 106.037L482.744 105.678C479.788 102.132 476.583 98.3755 475.189 97.0173C475.096 96.9269 475.008 96.8432 474.931 96.7754C474.705 97.0127 474.323 97.5077 473.978 97.9552C473.562 98.4953 473.074 99.1371 472.495 99.8129C472.122 100.265 471.718 100.717 471.284 101.169C469.387 103.142 466.92 105.011 464.009 105.178C463.593 105.201 463.161 105.25 462.723 105.316C462.68 105.165 462.639 105.015 462.598 104.864C462.558 104.713 462.517 104.563 462.476 104.412C461.523 100.81 461.093 97.9326 461.52 97.5167C464.759 94.3527 465.062 88.7389 463.911 83.69L463.803 83.238C463.765 83.0866 463.726 82.9352 463.685 82.786C463.838 82.7211 463.982 82.64 464.117 82.5442C466.151 81.0594 465.961 76.3496 465.817 74.6636L462.314 76.1349C462.298 75.9721 462.277 75.814 462.259 75.6558C462.241 75.4976 462.216 75.3371 462.194 75.1789C461.29 69.1402 457.945 65.0609 453.007 64.141C447.669 63.1466 442.182 66.175 439.673 71.4906C439.081 72.7403 438.491 74.2161 437.808 75.9247C434.538 84.1059 429.596 96.4726 415.292 107.393C415.212 107.453 415.149 107.532 415.11 107.624C415.07 107.715 415.055 107.816 415.066 107.915C415.1 108.396 415.181 109.291 430.683 117.696ZM438.674 76.2569C439.352 74.5642 439.935 73.0929 440.516 71.8748C442.851 66.9344 447.924 64.1252 452.849 65.0405C457.434 65.8948 460.533 69.7865 461.324 75.5382C461.344 75.6964 461.362 75.8569 461.38 76.0173C461.398 76.1778 461.414 76.3383 461.428 76.501C461.428 76.5914 461.446 76.6795 461.453 76.7722C461.423 76.8376 461.384 76.8985 461.337 76.953C461.232 77.0757 461.117 77.1898 460.994 77.2943C460.887 77.3877 460.767 77.4848 460.634 77.5858C459.143 78.7384 456.085 80.4808 455.17 80.7362L454.693 80.8696L454.858 81.3351C454.887 81.4099 454.926 81.4799 454.975 81.543C455.048 81.656 455.226 81.9385 455.283 82.0312C455.459 82.5239 455.624 83.0166 455.782 83.5093C455.848 83.7081 455.911 83.9093 455.972 84.1081C456.033 84.307 456.094 84.5195 456.153 84.7251C458.289 92.0973 458.316 99.379 457.536 105.558C457.513 105.725 457.493 105.89 457.47 106.055L457.403 106.552C457.129 108.469 456.783 110.27 456.404 111.922C456.365 112.089 456.325 112.254 456.286 112.419C456.248 112.584 456.207 112.751 456.166 112.914C456.126 113.077 456.103 113.179 456.069 113.307C454.866 118.141 453.135 122.828 450.907 127.283C445.273 124.404 438.267 120.729 432.007 117.353L431.598 117.127L431.191 116.901C423.528 112.74 417.157 109.077 416.103 107.922C430.409 96.902 435.372 84.4878 438.674 76.2569ZM462.901 83.4301C462.937 83.5816 462.976 83.733 463.01 83.8821C464.11 88.6575 463.862 93.9324 460.874 96.8455C460.463 97.2455 460.106 98.2196 460.996 102.24C461.17 103.033 461.369 103.822 461.566 104.568C461.606 104.719 461.645 104.869 461.685 105.02L461.74 105.223C461.611 105.293 461.509 105.405 461.453 105.54C461.418 105.612 461.391 105.688 461.373 105.766C461.353 105.854 461.312 106.073 461.24 106.487C461.118 107.165 460.788 108.973 460.666 109.271C459.988 110.295 458.777 111.135 457.407 111.628C457.773 109.978 458.103 108.191 458.363 106.295C458.384 106.13 458.406 105.965 458.429 105.797L458.49 105.302C459.263 98.8659 459.168 91.2904 456.783 83.6358C456.727 83.4527 456.67 83.2719 456.609 83.0889C456.548 82.9058 456.499 82.7476 456.442 82.5781C456.34 82.2776 456.239 81.9792 456.128 81.6741C456.09 81.5792 456.04 81.4895 455.979 81.4074C457.125 80.8764 458.236 80.2725 459.306 79.5994C460.06 79.1316 460.628 78.7407 461.059 78.4107C461.324 78.9395 461.577 79.4977 461.814 80.0808C462.194 81.0225 462.517 81.9863 462.781 82.9668C462.822 83.1205 462.856 83.2742 462.901 83.4301ZM474.524 134.432C474.678 134.432 474.834 134.452 474.976 134.465C477.953 134.746 481.078 136.235 482.803 141.747C483.239 143.144 482.954 144.07 482.611 144.283C482.326 144.459 481.933 144.12 481.768 143.969C481.374 143.589 481.045 142.916 480.719 142.145C480.378 140.31 479.198 138.077 477.709 137.245L477.257 138.05C478.328 138.676 478.952 140.226 479.555 141.725C479.648 141.951 479.743 142.177 479.835 142.403C479.886 142.69 479.907 142.983 479.899 143.275C479.881 143.646 479.783 143.915 479.646 143.976C479.578 144.007 479.194 144.111 478.156 143.266C478.061 143.105 477.783 142.565 477.535 142.086C477.2 141.442 476.787 140.642 476.445 140.021C475.86 138.956 475.673 138.653 475.266 138.737C475.204 138.749 475.144 138.774 475.092 138.81C475.04 138.846 474.995 138.891 474.961 138.945C474.913 139.017 474.884 139.1 474.877 139.187C474.872 139.324 474.907 139.46 474.979 139.578C475.031 139.688 475.105 139.833 475.205 140.03C475.543 140.627 475.829 141.253 476.057 141.901C476.357 142.925 476.283 143.363 476.179 143.553C476.075 143.743 475.822 143.808 475.431 143.896L475.3 143.926C475.267 143.901 475.236 143.874 475.207 143.844C475.029 143.666 474.861 143.478 474.703 143.282L474.502 143.038C474.389 142.895 474.276 142.775 474.192 142.662C474.057 140.579 473.993 138.594 474 136.71C474 135.916 474.023 135.148 474.052 134.398C474.217 134.418 474.382 134.425 474.524 134.432Z" fill="black"/>
<path d="M407.938 219.093H407.976C410.489 219.116 412.024 221.372 412.539 225.797C412.562 225.991 412.62 226.504 413.052 226.658C413.531 226.829 413.956 226.432 414.634 225.779C415.764 224.689 417.638 222.89 420.546 222.766C420.745 223.274 421.002 223.757 421.312 224.206C421.83 224.988 422.203 225.562 422.203 229.327C422.203 229.553 422.203 230.28 422.723 230.586C422.872 230.672 423.041 230.715 423.213 230.712C423.787 230.712 424.524 230.296 425.584 229.697C426.604 229.104 427.661 228.576 428.748 228.115L428.974 228.032C429.706 227.758 430.142 227.58 430.35 227.392L429.733 226.698C429.385 226.881 429.023 227.036 428.651 227.162L428.402 227.257C427.282 227.735 426.194 228.284 425.143 228.9C424.397 229.322 423.473 229.842 423.213 229.804C423.155 229.66 423.132 229.506 423.145 229.352C423.145 225.299 422.693 224.606 422.101 223.72C421.769 223.243 421.506 222.721 421.321 222.169L421.213 221.857H420.883C417.416 221.857 415.199 223.989 414.008 225.134C413.832 225.304 413.631 225.498 413.473 225.634C412.738 219.518 410.098 218.21 408.008 218.189H407.938C403.962 218.189 399.033 222.935 398.816 224.547L399.734 224.671C399.863 223.699 404.297 219.093 407.938 219.093Z" fill="black"/>
<path d="M396.863 226.936L397.767 227.139C398.285 224.836 401.928 216.052 405.144 208.302C408.43 200.378 410.059 196.396 410.441 194.968C411.917 195.099 414.188 195.924 416.39 196.726C418.914 197.644 421.515 198.586 423.364 198.686C423.52 198.686 423.674 198.699 423.816 198.686L423.787 197.759C423.644 197.759 423.491 197.759 423.335 197.759C421.642 197.651 419.136 196.738 416.706 195.854C414.118 194.914 411.673 194.023 410.066 194.023H409.562L409.603 194.509C409.533 195.284 406.746 202.003 404.285 207.936C401.056 215.731 397.394 224.554 396.863 226.936Z" fill="black"/>
<path d="M413.665 202.702C411.179 202.702 409.28 203.97 408.438 206.182C407.441 208.808 408.173 212.112 410.146 213.866C411.08 214.703 412.293 215.162 413.547 215.152C414.544 215.152 415.728 214.888 417.107 214.169C419.758 212.788 421.094 210.033 420.427 207.319C419.882 205.084 417.819 202.702 413.665 202.702Z" fill="black"/>
<path d="M479.088 14.6252L478.66 15.4473L486.835 19.6976L487.263 18.8755L479.088 14.6252Z" fill="black"/>
<path d="M485.128 22.1686L477.117 23.6404L477.285 24.5517L485.296 23.08L485.128 22.1686Z" fill="black"/>
<path d="M488.475 24.8742L486.588 31.2639L487.477 31.5263L489.363 25.1366L488.475 24.8742Z" fill="black"/>
<path d="M491.133 8.1992L490.213 16.2648L491.134 16.3698L492.054 8.30425L491.133 8.1992Z" fill="black"/>
<path d="M131.016 88.3975L130.252 88.6991C130.828 88.6515 131.221 88.563 131.016 88.3975Z" fill="white"/>
<path d="M293.979 266.083C290.281 267.347 281.96 266.029 273.521 266.309C273.682 266.186 273.853 266.075 274.032 265.979C281.264 262.137 279.847 259.122 276.152 261.007C273.487 262.363 272.324 264.978 272 265.893C272.039 265.742 272.088 265.534 272.149 265.261C274.448 254.573 264.377 255.543 269.889 264.54C270.328 265.256 270.506 266.074 270.793 266.429C266.909 266.483 266.237 264.942 261.715 267.216C261.263 266.438 260.68 265.267 260.058 264.083L263.141 262.454C263.426 261.855 260.822 256.537 256.802 249.011C256.802 249.011 253.297 242.606 248.44 233.982H263.22V228.262H245.208C237.899 215.38 228.916 199.994 223.853 192.943C221.351 189.456 215.986 188.034 206.722 188.05C199.344 188.066 183.96 188.143 168.528 188.256C164.686 179.216 160.361 168.39 160.124 167.796L160.772 168.056V168.026C161.145 168.252 162.058 168.747 165.97 170.024C206.982 183.426 190.536 151.786 170.603 139.458C162.976 134.741 147.205 121.064 136.423 121.412V119.999C136.421 119.685 136.294 119.384 136.07 119.163C135.846 118.942 135.544 118.818 135.23 118.819L129.101 118.851C129.089 118.01 128.963 117.21 128.936 116.41C128.897 115.28 128.843 113.951 130.014 112.898C132.701 110.48 134.308 107.958 133.856 103.429C133.449 99.397 131.125 93.6814 130.09 88.7659L130.264 88.6981L130.079 88.7117C130.061 88.6303 130.041 88.5467 130.025 88.4676C127.638 76.589 106.295 78.1439 109.027 92.3096C109.084 92.5966 109.294 94.0385 109.608 95.9618C109.429 96.0974 109.278 96.267 109.165 96.4609C109.051 96.6548 108.977 96.8691 108.946 97.0918L109.744 96.7776C110.144 99.1732 110.679 102.104 111.265 104.489C111.73 106.389 112.98 108.435 113.479 109.083C115.36 111.524 115.479 116.202 115.633 118.923L108.876 118.957C108.561 118.96 108.261 119.087 108.039 119.31C107.818 119.534 107.695 119.836 107.696 120.151V120.275C101.208 118.982 94.5044 124.117 87.7877 129.828C83.3378 133.611 77.29 137.876 74.7362 140.199C64.3086 149.691 51.7837 163.723 62.3062 171.88C67.2172 175.688 74.1961 177.405 81.4552 178.176C92.6964 178.303 108.548 178.511 108.548 178.511L111.619 191.804C111.619 191.804 108.987 221.2 137.718 228.262H59.1806V233.984H186.676C189.187 249.981 189.483 267.609 189.483 283.93C189.483 283.976 190.803 283.878 192.826 283.704C192.787 284.721 192.756 285.86 192.758 286.844C191.402 286.918 190.218 286.995 190.224 287.056C190.45 289.269 189.671 307.281 190.952 307.516C192.986 307.889 202.456 308.558 203.274 307.041C203.439 306.736 204.024 302.585 205.195 301.708C205.561 301.432 205.986 301.482 206.474 302.067C206.89 302.569 207.351 305.025 207.862 306.286C209.342 309.954 234.055 307.557 238.358 307.538C239.468 307.538 243.138 303.059 236.299 300.738C231.553 299.124 228.229 297.994 225.756 297.007L221.028 295.402C219.043 294.726 217.317 293.45 216.089 291.749C214.862 290.048 214.194 288.008 214.178 285.91L213.726 233.973H214.619L242.821 270.61C243.791 271.74 244.351 272.389 244.351 272.389L246.81 271.089C247.769 272.346 248.822 273.855 249.599 274.931C249.041 275.295 248.659 275.559 248.695 275.589C250.144 277.304 259.769 292.46 260.942 292.076C262.813 291.465 270.886 287.748 270.699 286.132C270.635 285.619 266.608 277.682 273.318 282.459C276.613 284.805 296.038 272.682 299.534 270.725C300.427 270.239 300.461 263.868 293.979 266.083ZM104.747 158.34H104.695H104.629H104.55H104.496C104.292 158.324 104.044 158.308 103.748 158.293H103.483C102.602 158.256 101.434 158.234 100.161 158.22H100.046H99.1894H98.7871H97.5419H96.5362H95.9305H94.9926H93.6117H92.4298H92.0569C91.754 158.22 91.5077 158.22 91.3337 158.207C91.1257 158.207 91.015 158.191 91.0286 158.18L91.0873 158.13C92.0252 158.148 92.8659 158.171 93.5598 158.207L91.1664 158.067C93.3247 156.32 103.144 150.105 103.165 148.733L105.074 158.503C104.979 158.425 104.867 158.369 104.747 158.34ZM184.19 219.753C184.4 221.758 184.868 224.273 185.512 227.469C185.567 227.731 185.616 227.998 185.668 228.262H155.488C164.894 226.667 174.886 223.247 184.19 219.753Z" fill="white"/>
<path d="M245.565 178.228L246.017 171.285C247.482 171.925 249.127 172.56 250.989 173.195C255.889 174.865 264.323 176.847 265.272 177.177C270.039 178.838 263.284 170.081 261.632 166.232C258.854 159.757 248.555 147.178 247.633 137.959C246.79 129.543 236.618 128.061 235.077 135.681C233.495 137.021 231.528 139.243 232.835 139.243C233.287 139.243 234.096 139.27 234.966 139.243C234.966 139.275 234.966 139.304 234.966 139.333C236.67 154.249 230.972 162.193 241.398 168.874C241.624 172.427 242.164 178.162 242.164 178.162L241.47 168.919C242.915 169.817 244.426 170.605 245.99 171.274C245.803 173.545 245.733 175.412 245.592 177.864L245.565 178.228Z" fill="white"/>
<path d="M263.289 303.394H264.216V291.228C263.895 291.379 263.585 291.52 263.289 291.653V303.394Z" fill="black"/>
<path d="M158.007 228.262C157.164 228.429 156.325 228.584 155.492 228.725C154.437 228.903 153.388 229.054 152.344 229.177H185.367C185.337 229.022 185.306 228.868 185.276 228.725C185.247 228.583 185.215 228.416 185.184 228.262H158.007Z" fill="black"/>
<path d="M208.74 282.821L208.272 282.857L207.82 282.893C204.805 283.119 201.083 283.456 197.786 283.743L193.266 284.136L192.814 284.175L192.362 284.213C192.337 284.936 192.317 285.693 192.314 286.407L192.766 286.38L193.218 286.355L194.403 286.294C195.368 286.245 196.278 286.199 196.52 286.172C198.835 285.931 202.423 285.766 205.045 285.648C206.042 285.603 206.903 285.562 207.452 285.531L207.94 285.501L208.403 285.481L208.855 285.463C208.855 285.379 208.855 285.298 208.855 285.21C208.842 284.877 208.826 284.507 208.81 284.098C208.785 283.632 208.765 283.21 208.74 282.821Z" fill="black"/>
<path d="M251.694 273.076C252.451 272.599 253.165 272.149 253.346 272.02C256.781 269.573 259.222 268.007 261.093 267.026L261.504 266.813C261.647 266.741 261.785 266.675 261.92 266.61C261.658 266.128 261.355 265.545 261.043 264.944L260.698 264.28L260.288 264.506L259.877 264.732L247.515 271.272L247.099 271.498L246.686 271.724C247.364 272.612 248.042 273.595 248.647 274.436L248.948 274.859C249.059 274.784 249.174 274.698 249.334 274.603L249.725 274.35C250.204 274.011 250.844 273.6 251.694 273.076Z" fill="black"/>
<path d="M192.834 283.239L193.286 283.2L197.687 282.821C200.984 282.532 204.693 282.208 207.728 281.971L208.18 281.937L208.65 281.901C210.711 281.745 212.356 281.643 213.17 281.641C213.981 279.2 213.678 256.458 213.475 241.291C213.441 238.688 213.407 236.226 213.38 233.984C213.38 233.829 213.38 233.673 213.38 233.521C213.38 233.37 213.38 233.212 213.38 233.069V232.843C213.38 232.343 213.375 231.856 213.364 231.383C213.346 230.662 213.314 229.932 213.267 229.2L213.233 228.748C213.233 228.594 213.211 228.438 213.197 228.285C212.693 222.248 211.088 216.239 207.773 214.047C206.22 213.023 204.383 212.96 202.299 213.857L202.245 213.88H202.186C200.469 214.142 195.696 215.85 193.655 216.637L191.72 217.38C189.44 218.262 187.083 219.17 184.676 220.076C184.902 221.986 185.34 224.37 185.955 227.392C186.016 227.686 186.072 227.982 186.129 228.278C186.161 228.432 186.19 228.585 186.222 228.741L186.31 229.193C186.554 230.47 186.778 231.761 186.988 233.062L187.062 233.514L187.137 233.978C189.673 250.159 189.93 267.817 189.935 283.456C190.421 283.429 191.291 283.361 192.373 283.271L192.834 283.239Z" fill="black"/>
<path d="M259.448 263.893L259.859 263.667L260.266 263.453L262.7 262.164C262.569 261.659 262.392 261.165 262.173 260.691C262.06 260.426 261.927 260.119 261.766 259.764C260.458 256.881 257.405 250.833 250.369 238.165C249.61 236.796 248.828 235.395 248.032 233.975L247.773 233.512L247.513 233.06C246.795 231.782 246.068 230.493 245.332 229.191L245.07 228.739L244.807 228.276C239.34 218.628 233.521 208.598 228.888 200.873C228.648 200.471 228.412 200.071 228.178 199.673C226.962 197.612 225.803 195.648 224.203 193.958C223.941 193.68 223.663 193.408 223.374 193.146C220.32 190.378 215.69 188.527 206.876 188.527H206.754C199.334 188.543 184.364 188.617 169.258 188.726H168.754H168.25C160.989 188.778 153.734 188.841 147.311 188.909L147.338 188.457L147.352 188.231H147.151L147.076 188.005C146.624 186.667 146.106 185.218 145.573 183.693C143.539 177.88 141.227 171.292 139.923 166.542C139.638 165.509 138.549 162.417 137.381 159.163L159.782 168.151C160.442 169.803 164.302 179.43 167.843 187.797H168.347H168.851C165.662 180.3 162.175 171.638 160.984 168.666C161.599 168.971 162.864 169.498 165.848 170.474C183.735 176.321 189.494 173.229 191.175 169.606C192.787 166.137 191.245 160.589 186.949 154.38C182.904 148.516 176.881 142.791 170.856 139.062C169.102 137.98 166.939 136.436 164.435 134.648C159.203 130.913 152.694 126.266 146.506 123.464C142.809 121.787 139.618 120.944 136.892 120.928V119.997C136.889 119.561 136.714 119.144 136.405 118.837C136.096 118.529 135.678 118.357 135.243 118.356L129.563 118.385C129.545 118.069 129.518 117.762 129.491 117.461C129.457 117.093 129.425 116.745 129.414 116.394V116.372C129.376 115.278 129.335 114.146 130.338 113.242C133.084 110.774 134.811 108.152 134.327 103.381C134.101 101.026 133.231 98.1833 132.323 95.1708C131.715 93.1526 131.089 91.0734 130.65 89.1252C130.519 89.1411 130.366 89.1569 130.198 89.1705C130.058 89.1705 129.902 89.1885 129.728 89.1953C129.301 89.2111 128.768 89.2179 128.101 89.2157H127.07C124.763 89.2157 119.958 89.1863 118.688 89.4417C118.541 89.471 118.374 89.4936 118.18 89.5185C116.496 89.7445 115.016 90.1581 115.228 92.7322C115.352 94.1651 115.174 95.0397 114.649 95.5708C113.99 96.2488 112.977 96.1606 111.804 96.0725C111.612 96.0589 111.415 96.0431 111.212 96.0318C110.846 95.9973 110.478 96.0524 110.139 96.1923C109.978 96.267 109.836 96.3748 109.72 96.5087C109.564 96.6989 109.461 96.9275 109.422 97.1709L109.361 97.1596C109.757 99.5032 110.265 102.303 110.835 104.597C111.321 106.572 112.593 108.665 113.135 109.364C114.799 111.524 115.016 115.637 115.169 118.358C115.169 118.395 115.169 118.426 115.169 118.46L108.9 118.492C108.538 118.496 108.186 118.619 107.901 118.841C107.615 119.064 107.41 119.375 107.318 119.726C100.895 118.758 94.2711 123.73 87.5182 129.473C85.2898 131.367 82.6185 133.414 80.2613 135.22C77.8364 137.08 75.7413 138.685 74.4554 139.855C63.0243 150.218 57.6094 158.34 57.8557 164.695C57.9732 167.663 59.3676 170.203 62.0028 172.246C65.7657 175.168 70.7377 176.872 76.1165 177.869C71.1897 178.37 66.3397 179.991 63.3 183.652C59.4264 188.303 59.006 202.333 58.328 225.577C58.2105 229.629 58.0862 233.817 57.9348 238.324V303.412H58.8614V260.7H100.068V303.394H100.995V238.306C100.995 237.338 100.995 235.851 100.961 233.975H186.199C186.176 233.819 186.149 233.666 186.124 233.512C186.099 233.358 186.077 233.203 186.052 233.06H100.947C100.931 231.887 100.909 230.59 100.879 229.191H139.026C138.517 229.11 138.013 229.019 137.516 228.915C137.227 228.854 136.942 228.793 136.66 228.728C136.046 228.585 135.444 228.43 134.852 228.264H100.859C100.73 222.388 100.488 214.942 100.057 207.698C98.7775 186.195 96.8362 182.217 95.4078 181.46C94.8926 180.502 92.7501 179.711 91.0325 179.213C93.8304 179.277 96.5401 179.272 99.051 179.268C102.839 179.268 106.134 179.254 108.717 179.466L110.74 189.765L110.966 189.684C111.035 189.661 111.106 189.642 111.178 189.627C111.282 189.603 111.429 189.571 111.63 189.533L109.675 179.543L103.79 149.427C103.77 149.246 103.67 148.749 103.243 146.631L102.748 144.102V144.186C102.382 142.362 102.023 140.518 102.021 140.235H101.094C101.094 140.687 101.591 143.173 102.292 146.606C102.441 147.332 102.59 148.071 102.701 148.624C102.459 149.528 97.2588 153.117 94.4586 155.056C92.9422 156.107 91.611 157.027 90.9263 157.574L88.8923 157.542C84.4197 157.483 78.8533 157.409 76.747 156.679L76.4419 157.556C78.6906 158.333 84.3406 158.41 88.8719 158.471C89.5341 158.471 90.1669 158.487 90.7635 158.498C90.9353 158.582 91.2947 158.586 92.21 158.595C92.9467 158.595 93.9682 158.607 95.1186 158.611C98.3006 158.611 103.481 158.638 104.667 158.79L108.523 178.508C105.944 178.314 102.723 178.321 99.0306 178.327C94.7592 178.327 89.9093 178.341 85.0412 178.011C84.0039 177.884 82.9123 177.785 81.7891 177.735C74.4938 176.987 67.4426 175.301 62.5565 171.511C60.1473 169.645 58.8727 167.337 58.7665 164.654C58.5405 158.677 64.0006 150.563 75.0181 140.54C76.2747 139.397 78.3561 137.803 80.7653 135.957C83.1315 134.149 85.8119 132.09 88.0561 130.18C91.8845 126.926 96.3232 123.31 100.572 121.592C102.94 120.643 105.139 120.331 107.205 120.659L107.275 133.781C107.278 134.216 107.453 134.633 107.762 134.941C108.071 135.248 108.489 135.421 108.925 135.421L120.103 135.363L120.026 135.331L120.193 134.899L120.358 134.465C120.623 134.567 120.88 134.691 121.136 134.807L121.312 134.893L121.631 135.06C121.805 135.152 121.979 135.247 122.15 135.347L122.804 135.724C124.361 136.628 125.968 137.577 128.146 137.577V138.504C125.719 138.504 123.922 137.453 122.336 136.526C121.976 136.316 121.626 136.113 121.278 135.923C121.14 135.848 121.002 135.776 120.862 135.697C120.722 135.618 120.584 135.561 120.444 135.498C120.39 135.59 120.344 135.686 120.306 135.785C119.933 136.789 120.381 138.104 121.662 139.794C121.866 139.874 122.114 139.973 122.415 140.097L122.487 140.127L122.993 140.332C125.086 141.18 128.474 142.448 131.764 142.448H132.248V143.374H131.764C128.759 143.374 125.726 142.389 123.567 141.566C123.233 141.437 122.921 141.313 122.632 141.196L122.062 140.97L121.958 140.927C122.069 141.293 122.426 141.743 123.104 142.421C123.124 142.473 123.156 142.567 123.181 142.647C123.565 143.808 124.734 147.341 130.908 148.995C132.603 149.447 140.147 151.734 141.471 152.419L136.757 157.538C136.287 156.234 135.821 154.952 135.401 153.815C135.512 153.589 135.369 153.314 135.154 153.137C134.594 151.592 134.142 150.346 134.101 150.199L133.649 150.312L133.197 150.355C133.197 150.453 133.197 150.471 134.291 153.454C134.135 153.822 134.325 154.173 134.517 154.164H134.544C134.996 155.382 135.512 156.83 136.045 158.311L135.842 158.537L136.171 158.67C137.419 162.135 138.676 165.676 138.972 166.756C140.285 171.538 142.599 178.142 144.64 183.971C145.137 185.383 145.609 186.732 146.043 187.984C146.095 188.14 146.149 188.294 146.201 188.436C146.253 188.579 146.308 188.744 146.36 188.888C136.436 188.995 128.634 189.114 126.117 189.234C116.523 189.686 112.959 190.19 111.759 190.414L111.533 190.459C111.533 190.889 111.533 191.329 111.553 191.779C111.58 192.832 111.637 193.94 111.727 195.085C112.704 207.289 117.804 223.862 137.654 227.98C138.106 228.077 138.583 228.16 139.055 228.237C140.916 228.529 142.795 228.684 144.678 228.701H145.788C147.946 228.667 150.101 228.513 152.242 228.237C162.397 226.958 173.452 223.236 183.636 219.423L184.088 219.256L184.54 219.089C186.863 218.212 189.141 217.333 191.347 216.483L193.279 215.737C194.911 215.109 199.967 213.263 201.947 212.939C202.914 212.508 203.959 212.278 205.018 212.261C206.182 212.254 207.321 212.602 208.284 213.258C210.851 214.953 212.462 218.664 213.369 222.94C213.536 223.738 213.68 224.553 213.802 225.381C213.943 226.337 214.051 227.304 214.132 228.271C214.132 228.425 214.157 228.581 214.169 228.734L214.202 229.186C214.25 229.926 214.282 230.66 214.3 231.385C214.31 231.857 214.315 232.325 214.315 232.789V232.818C214.318 232.894 214.328 232.97 214.345 233.044C214.38 233.199 214.428 233.35 214.487 233.496C214.541 233.636 214.609 233.792 214.688 233.96C215.57 235.808 217.95 239.216 221.15 243.422C221.45 243.818 221.76 244.222 222.076 244.631C225.575 249.176 229.894 254.505 234.255 259.748C234.513 260.058 234.768 260.368 235.026 260.675C238.285 264.58 241.539 268.409 244.466 271.794L246.114 270.922L246.53 270.696L246.945 270.47L259.448 263.893ZM156.211 165.287V165.346C156.145 165.439 156.099 165.544 156.078 165.656L141.959 159.981C142.411 159.658 143.105 158.921 144.522 157.368C145.336 156.464 146.256 155.465 146.579 155.244C148.879 153.662 151.311 150.416 153.266 147.811C154.43 146.258 155.526 144.787 156.227 144.208C160.112 146.134 165.316 148.561 166.571 148.773C166.571 149.018 166.713 149.203 166.855 149.196C168.867 149.11 167.023 147.304 166.72 148.254L166.697 147.865C165.658 147.808 154.29 142.393 152.403 141.164L152.075 140.952L150.945 142.17L150.821 141.987C150.703 141.808 150.534 141.761 150.299 141.713C147.555 141.078 144.866 138.452 142.294 133.916C142.158 133.677 141.817 132.775 141.455 131.823C140.664 129.74 139.679 127.145 138.969 126.232C138.517 125.631 138.043 125.328 137.548 125.278C137.326 125.262 137.104 125.302 136.901 125.394L136.881 121.879C142.884 121.911 150.461 126.214 157.192 130.73C157.158 130.776 157.133 130.828 157.117 130.883V130.947C156.819 131.367 157.034 131.826 157.26 131.814C157.865 131.79 158.118 131.606 158.164 131.392C160.179 132.764 162.105 134.14 163.875 135.401C166.392 137.209 168.566 138.75 170.347 139.851C176.277 143.517 182.196 149.142 186.181 154.898C190.292 160.826 191.81 166.044 190.341 169.206C188.188 173.846 179.593 173.979 166.141 169.584C161.967 168.228 161.267 167.776 160.968 167.583C160.744 167.43 160.484 167.336 160.213 167.31H160.161L157.056 166.06C157.793 165.606 156.455 164.474 156.211 165.287ZM100.068 238.315V259.773H58.8636V238.33C58.9134 236.85 58.9608 235.406 59.006 233.984H100.034C100.057 235.858 100.068 237.347 100.068 238.315ZM100.021 233.058H59.2117V229.189H99.9527C99.9821 230.588 100.005 231.885 100.021 233.058ZM89.1725 179.67C93.0575 180.574 94.531 181.582 94.6078 181.901L94.6643 182.149L94.9084 182.233C95.7423 182.522 97.8238 185.587 99.1391 207.744C99.5708 214.976 99.8171 222.402 99.9414 228.262H59.18C59.2057 227.358 59.2313 226.469 59.2569 225.595C59.9123 203.343 60.344 188.642 64.0029 184.237C67.9873 179.451 75.3526 178.361 81.7077 178.662C82.7865 178.773 83.8675 178.865 84.9508 178.938C86.367 179.107 87.7732 179.351 89.1635 179.67H89.1725ZM95.1412 157.687H94.0473C93.5953 157.655 93.0439 157.633 92.4382 157.615C93.1162 157.12 94.0202 156.5 94.9965 155.825C99.2792 152.86 101.808 151.027 102.934 149.842L104.5 157.854C103.404 157.75 100.947 157.705 95.1321 157.687H95.1412ZM108.957 134.508C108.765 134.509 108.581 134.434 108.444 134.299C108.308 134.164 108.231 133.981 108.229 133.79L108.161 120.867V120.377V120.151C108.161 120.068 108.176 119.986 108.204 119.909C108.253 119.768 108.345 119.646 108.466 119.559C108.587 119.472 108.733 119.424 108.882 119.423L115.21 119.391H115.673H116.139L128.648 119.326H129.572L135.249 119.296C135.44 119.297 135.623 119.373 135.759 119.507C135.894 119.642 135.971 119.824 135.973 120.015V120.971V121.925L135.993 125.676L135.891 125.706L135.995 126.133L136.022 131.331C135.928 131.578 135.8 131.81 135.643 132.022C135.215 132.587 134.603 132.874 133.769 132.904C131.794 132.974 127.934 131.835 124.833 130.919C122.91 130.354 121.246 129.864 120.148 129.672C118.699 129.421 118.03 130.124 117.888 130.802C117.662 131.993 118.74 133.514 120.955 134.452L108.957 134.508ZM152.247 142.154C152.846 142.493 153.973 143.08 155.345 143.768C154.602 144.495 153.659 145.752 152.532 147.257C150.617 149.809 148.238 152.984 146.061 154.489C145.677 154.753 144.967 155.52 143.844 156.749C142.972 157.707 141.654 159.154 141.324 159.303C141.367 159.287 141.413 159.282 141.458 159.287L141.419 159.766L137.491 158.184L152.247 142.154ZM118.024 88.6032C118.2 88.5783 118.354 88.558 118.476 88.5354C119.832 88.2574 124.528 88.2755 127.048 88.2868H128.076C128.671 88.2868 129.134 88.2868 129.5 88.271C129.681 88.271 129.837 88.2597 129.972 88.2529C130.169 88.2416 130.32 88.228 130.438 88.2145C129.055 81.83 122.372 79.1745 116.652 80.3045C112.021 81.2085 107.124 84.9329 108.568 92.3955C108.593 92.5175 108.651 92.8995 108.733 93.4306C108.825 94.0249 108.959 94.8385 109.106 95.7787C109.23 95.6553 109.37 95.5482 109.522 95.46C109.661 95.379 109.808 95.3117 109.96 95.2589C110.373 95.1261 110.808 95.0739 111.241 95.1052L111.847 95.1482C112.83 95.2227 113.605 95.2815 113.962 94.9222C114.268 94.6148 114.374 93.9052 114.277 92.8158C113.951 89.1433 116.803 88.7636 118.024 88.6032Z" fill="black"/>
<path d="M132.21 122.98C132.318 123.085 132.448 123.164 132.591 123.209C132.734 123.255 132.886 123.267 133.035 123.244C133.282 123.221 133.513 123.108 133.682 122.926C133.852 122.745 133.95 122.508 133.957 122.259C133.957 122.248 133.957 122.239 133.957 122.23C133.946 122.079 133.891 121.936 133.799 121.816C133.666 121.646 133.477 121.529 133.265 121.486C133.05 121.444 132.828 121.468 132.627 121.554C132.425 121.64 132.254 121.784 132.135 121.968C132.035 122.123 131.987 122.305 131.998 122.49C131.998 122.517 132.009 122.539 132.013 122.566C132.036 122.721 132.105 122.865 132.21 122.98Z" fill="black"/>
<path d="M294.129 266.522C291.835 267.306 287.895 267.134 283.33 266.938C280.338 266.806 277.002 266.666 273.68 266.77L273.703 266.752C273.874 266.615 274.057 266.493 274.25 266.386L274.439 266.284C274.733 266.124 275.016 265.966 275.282 265.81C279.172 263.534 280.028 261.642 279.524 260.666C279.048 259.762 277.642 259.726 275.94 260.598C274.745 261.224 273.712 262.119 272.923 263.213C273.181 259.841 272.051 257.945 270.839 257.312C270.463 257.093 270.023 257.009 269.592 257.073C269.161 257.138 268.764 257.347 268.468 257.667C267.497 258.709 267.259 261.125 269.506 264.786C269.694 265.11 269.854 265.451 269.983 265.803C270.005 265.855 270.026 265.905 270.046 265.957C270.114 266.124 270.184 266.284 270.258 266.429C270.346 266.609 270.471 266.768 270.625 266.897C269.656 266.891 268.691 266.8 267.739 266.623C266.609 266.44 265.662 266.289 264.206 266.707C263.919 266.791 263.612 266.895 263.28 267.026C263.002 267.136 262.705 267.265 262.389 267.414C262.253 267.478 262.113 267.545 261.969 267.618L261.557 267.828C259.749 268.775 257.338 270.314 253.887 272.775C253.681 272.92 253.021 273.336 252.187 273.86C251.634 274.208 250.895 274.674 250.269 275.074C250.131 275.162 250 275.245 249.878 275.327L249.489 275.582L249.34 275.684C249.927 276.47 250.992 278.043 252.278 279.948C254.913 283.84 259.779 291.022 260.891 291.621C261.39 291.449 262.247 291.092 263.275 290.627C263.576 290.491 263.885 290.347 264.202 290.193C264.907 289.856 265.646 289.483 266.369 289.09C269.551 287.368 270.231 286.448 270.231 286.22C270.206 286.136 270.109 285.892 270.021 285.675C269.223 283.693 268.455 281.515 269.445 280.735C270.173 280.161 271.447 280.581 273.581 282.091C274.186 282.522 276.324 282.687 283.852 278.963C288.709 276.561 293.961 273.462 297.1 271.611C298.052 271.051 298.807 270.605 299.279 270.339C299.505 270.086 299.702 268.531 298.965 267.347C298.135 266.013 296.461 265.726 294.129 266.522ZM269.146 258.3C269.304 258.129 269.517 258.019 269.748 257.988C269.979 257.958 270.213 258.01 270.41 258.135C271.343 258.623 272.67 260.652 271.696 265.163C271.639 265.423 271.594 265.615 271.558 265.76C271.535 265.823 271.517 265.884 271.501 265.941C271.475 266.032 271.456 266.125 271.445 266.219L271.303 266.038C271.258 266.073 271.212 266.105 271.162 266.133C271.123 266.079 271.089 266.022 271.061 265.961C270.988 265.814 270.909 265.618 270.835 265.457C270.685 265.056 270.501 264.669 270.286 264.3C268.446 261.288 268.385 259.116 269.146 258.3ZM271.757 266.856C271.809 266.82 271.852 266.786 271.881 266.761L271.825 266.691H271.91C272.136 266.691 272.252 266.608 272.349 266.359C272.393 266.245 272.43 266.128 272.457 266.009C272.471 265.973 272.487 265.932 272.5 265.891C272.862 264.956 273.958 262.655 276.363 261.425C277.655 260.763 278.553 260.808 278.702 261.098C278.941 261.55 278.046 263.326 273.816 265.57C273.659 265.655 273.508 265.749 273.364 265.853L273.138 266.02C273.075 266.072 273.01 266.119 272.941 266.162C272.982 266.148 273.027 266.142 273.07 266.146C273.114 266.151 273.156 266.165 273.194 266.187L272.794 266.339L272.365 266.501C272.405 266.615 272.462 266.721 272.534 266.818C272.274 266.82 272.014 266.84 271.757 266.856Z" fill="black"/>
<path d="M236.141 301.172C228.715 298.652 224.767 297.289 222.077 295.847C221.749 295.673 221.442 295.497 221.151 295.319C219.591 294.367 218.439 293.319 217.116 291.847L217.189 291.813L217.559 291.644L217.998 291.438C219.097 290.923 220.151 290.318 221.151 289.63V294.207C221.442 294.401 221.749 294.591 222.077 294.778V288.902C223.295 287.847 223.817 286.853 223.474 286.073C223.291 285.655 222.841 285.334 222.077 285.316V260.682H233.829L233.059 259.755H222.077V246.173C221.756 245.761 221.447 245.362 221.151 244.975V285.429C220.713 285.531 220.287 285.673 219.876 285.854C218.557 286.442 217.374 287.295 216.4 288.36C217.229 284.97 216.524 282.936 215.431 282.127C215.057 281.837 214.591 281.693 214.12 281.72C213.945 281.731 213.773 281.767 213.609 281.826C213.423 281.893 213.247 281.985 213.087 282.1L213.021 282.147C212.86 282.271 212.714 282.415 212.587 282.574C212.068 283.221 211.702 284.254 211.726 285.664C211.726 285.82 211.726 285.978 211.749 286.143C211.772 286.308 211.778 286.475 211.801 286.649C211.06 286.385 210.183 286.335 208.895 286.38L208.443 286.398L207.991 286.423L207.525 286.45C206.969 286.484 206.106 286.523 205.105 286.568C202.494 286.688 198.921 286.85 196.634 287.09C196.367 287.119 195.529 287.162 194.467 287.217L193.235 287.28L192.783 287.305L192.331 287.332C191.687 287.368 191.099 287.406 190.749 287.44C190.79 288.41 190.767 290.329 190.749 292.665C190.695 297.33 190.593 305.934 191.201 307.077C193.33 307.364 195.474 307.515 197.622 307.529C202.191 307.563 202.836 306.935 202.906 306.838C202.937 306.743 203.003 306.433 203.062 306.16C203.484 304.203 204.015 302.053 204.964 301.344C205.172 301.183 205.425 301.093 205.688 301.088C206.024 301.088 206.44 301.249 206.879 301.778C207.163 302.121 207.383 302.89 207.719 304.11C207.921 304.842 208.128 305.597 208.339 306.121C208.585 306.727 210.171 307.76 218.057 307.859C223.277 307.927 229.302 307.57 233.705 307.31C235.847 307.184 237.547 307.084 238.41 307.084C238.704 307.068 239.746 306.149 239.909 304.93C240.053 303.366 238.774 302.076 236.141 301.172ZM222.626 286.453C222.701 286.624 222.579 287.031 222.077 287.603V286.247C222.398 286.27 222.581 286.358 222.626 286.459V286.453ZM220.242 286.708C220.535 286.579 220.837 286.472 221.146 286.387V288.473C219.971 289.371 218.696 290.129 217.347 290.733C217.205 290.801 217.06 290.866 216.909 290.934L216.805 290.982C216.685 291.036 216.579 291.092 216.479 291.147C216.296 290.936 216.106 290.717 215.914 290.489C215.998 290.362 216.086 290.231 216.185 290.093C216.285 289.956 216.371 289.845 216.472 289.716C217.458 288.415 218.754 287.381 220.242 286.708ZM212.725 286.572C212.698 286.38 212.68 286.195 212.667 286.014C212.556 284.446 212.954 283.368 213.584 282.886C213.764 282.734 213.991 282.648 214.226 282.646C214.462 282.643 214.691 282.722 214.875 282.871C215.564 283.388 216.314 285.106 215.415 288.464C215.367 288.638 215.318 288.814 215.263 288.995C215.209 289.176 215.157 289.336 215.096 289.515C214.165 288.428 213.496 287.693 212.836 287.212C212.793 286.995 212.755 286.78 212.725 286.575V286.572Z" fill="black"/>
<path d="M246.396 171.945C247.727 172.51 249.203 173.075 250.836 173.627C254.211 174.777 259.323 176.092 262.378 176.879C263.752 177.231 264.837 177.512 265.117 177.609C265.479 177.745 265.861 177.821 266.247 177.835C266.42 177.846 266.594 177.818 266.754 177.752C266.914 177.685 267.057 177.583 267.172 177.453C267.999 176.443 266.643 174.042 264.365 170.207C263.425 168.625 262.534 167.127 262.066 166.035C261.113 163.814 259.354 160.973 257.293 157.673C253.465 151.531 248.705 143.887 248.102 137.889C247.776 134.642 246.016 132.013 243.394 130.838C241.234 129.875 238.897 130.067 237.141 131.356C235.88 132.28 235.044 133.679 234.655 135.424C233.335 136.554 231.839 138.181 231.943 139.022C231.986 139.34 232.241 139.679 232.824 139.679H233.276H233.999C234.183 139.679 234.363 139.679 234.544 139.679C235.05 144.371 234.827 148.346 234.628 151.863C234.205 159.28 233.911 164.499 240.956 169.102C241.146 172.04 241.53 176.266 241.663 177.69C235.959 177.889 230.031 179.39 226.521 183.618C225.165 185.252 224.227 188.048 223.561 191.994C223.847 192.236 224.122 192.486 224.385 192.742C225.027 188.674 225.924 185.783 227.235 184.21C232.98 177.308 245.749 178.095 252.387 179.645C256.272 180.549 257.745 181.557 257.811 181.876L257.867 182.124L258.109 182.208C258.943 182.497 261.025 185.562 262.342 207.719C262.772 214.951 263.02 222.377 263.144 228.237H245.869L246.131 228.701L246.393 229.153H262.765V233.022H248.572L248.832 233.474L249.092 233.937H263.244C263.269 235.813 263.278 237.3 263.278 238.267V259.726H262.763C262.916 260.078 263.043 260.386 263.149 260.652H263.278V260.987C263.748 262.241 263.644 262.46 263.574 262.607L263.508 262.745L263.282 262.867V265.982C263.615 265.862 263.92 265.756 264.209 265.69V238.315C264.209 234.183 264.042 220.623 263.273 207.687C261.994 186.183 260.053 182.206 258.624 181.449C257.946 180.167 254.33 179.189 252.73 178.802C250.536 178.292 248.304 177.958 246.057 177.801C246.095 177.123 246.129 176.501 246.161 175.896C246.228 174.535 246.294 173.297 246.396 171.945ZM233.288 138.777H232.901C233.055 138.364 233.71 137.598 234.445 136.875C234.612 136.71 234.784 136.547 234.955 136.389C235.127 136.23 235.322 136.061 235.498 135.914C235.779 135.666 236.082 135.444 236.402 135.25C236.547 135.385 236.691 135.514 236.834 135.641C237.414 136.16 237.918 136.608 238.19 137.277C238.345 137.656 238.266 137.844 238.19 137.955C237.83 138.484 236.571 138.685 235.365 138.755L234.899 138.777L234.447 138.789C233.993 138.786 233.581 138.782 233.29 138.777H233.288ZM242.59 177.695C242.474 176.447 242.126 172.639 241.912 169.73C243.067 170.405 244.259 171.014 245.483 171.554C245.365 173.044 245.295 174.37 245.218 175.848C245.184 176.452 245.153 177.078 245.114 177.747C244.305 177.701 243.449 177.683 242.592 177.695H242.59Z" fill="black"/>
<path d="M83.5242 145.704C83.4966 145.821 83.4754 145.938 83.4609 146.057C83.4609 146.997 84.9096 146.712 84.6384 145.844C84.4508 145.243 83.6802 145.39 83.5242 145.704Z" fill="black"/>
<path d="M100.288 134.789C100.26 134.905 100.239 135.022 100.225 135.141C100.225 136.081 101.671 135.796 101.402 134.929C101.214 134.327 100.444 134.474 100.288 134.789Z" fill="black"/>
<path d="M159.124 139.971C159.094 140.087 159.072 140.204 159.059 140.323C159.059 141.263 160.507 140.979 160.236 140.113C160.048 139.51 159.28 139.657 159.124 139.971Z" fill="black"/>
<path d="M142.606 166.169C142.578 166.286 142.557 166.404 142.543 166.523C142.543 167.461 143.989 167.177 143.72 166.311C143.537 165.71 142.767 165.857 142.606 166.169Z" fill="black"/>
<path d="M157.569 178.651C157.539 178.767 157.518 178.886 157.504 179.005C157.504 179.946 158.953 179.659 158.681 178.793C158.494 178.192 157.723 178.339 157.569 178.651Z" fill="black"/>
<path d="M122.468 158.021C122.281 157.42 121.51 157.569 121.357 157.881C121.327 157.997 121.305 158.115 121.291 158.234C121.291 159.174 122.74 158.889 122.468 158.021Z" fill="black"/>
<path d="M69.9972 160.688C69.9672 160.805 69.9453 160.923 69.9316 161.043C69.9316 161.981 71.3803 161.696 71.1091 160.831C70.9215 160.229 70.1509 160.374 69.9972 160.688Z" fill="black"/>
<path d="M95.3161 169.545C95.1285 168.942 94.3579 169.093 94.202 169.403C94.1741 169.52 94.153 169.638 94.1387 169.758C94.1387 170.695 95.5986 170.411 95.3161 169.545Z" fill="black"/>
<path d="M123.988 146.165C123.8 145.564 123.03 145.713 122.874 146.025C122.846 146.141 122.825 146.259 122.811 146.378C122.811 147.318 124.259 147.04 123.988 146.165Z" fill="black"/>
<path d="M127.931 180.872C127.744 180.271 126.973 180.42 126.819 180.732C126.79 180.848 126.768 180.966 126.754 181.085C126.754 182.025 128.203 181.74 127.931 180.872Z" fill="black"/>
<path d="M88.8864 174.537C88.6989 173.934 87.9282 174.085 87.7723 174.395C87.7446 174.511 87.7235 174.629 87.709 174.748C87.709 175.688 89.1554 175.403 88.8864 174.537Z" fill="black"/>
<path d="M94.7121 144.581V144.642C94.4138 145.063 94.6307 145.521 94.8545 145.512C96.8704 145.426 95.0036 143.607 94.7121 144.581Z" fill="black"/>
<path d="M181.41 155.535C183.43 155.449 181.564 153.63 181.272 154.604V154.665C180.969 155.086 181.186 155.544 181.41 155.535Z" fill="black"/>
<path d="M86.6463 163.436V163.5C86.348 163.92 86.5627 164.379 86.7864 164.367C88.8046 164.282 86.9379 162.462 86.6463 163.436Z" fill="black"/>
<path d="M162.383 158.636C164.401 158.55 162.535 156.731 162.243 157.705V157.766C161.942 158.186 162.159 158.645 162.383 158.636Z" fill="black"/>
<path d="M139.549 180.068V180.129C139.25 180.549 139.465 181.008 139.691 180.999C141.702 180.913 139.84 179.094 139.549 180.068Z" fill="black"/>
<path d="M91.1169 154.001V154.062C90.8186 154.482 91.0333 154.941 91.2593 154.932C93.2752 154.844 91.4085 153.024 91.1169 154.001Z" fill="black"/>
<path d="M144.019 170.63V170.691C143.72 171.111 143.937 171.57 144.161 171.561C146.177 171.475 144.31 169.656 144.019 170.63Z" fill="black"/>
<path d="M81.5265 136.617V136.678C81.2282 137.098 81.4452 137.557 81.6689 137.548C83.6826 137.462 81.8113 135.643 81.5265 136.617Z" fill="black"/>
<path d="M183.821 162.808C185.841 162.722 183.975 160.903 183.683 161.877V161.94C183.383 162.361 183.597 162.819 183.821 162.808Z" fill="black"/>
<path d="M98.2902 125.701V125.762C97.9919 126.182 98.2088 126.641 98.4326 126.632C100.446 126.546 98.5795 124.727 98.2902 125.701Z" fill="black"/>
<path d="M119.357 148.794V148.848C119.059 149.268 119.274 149.727 119.5 149.718C121.515 149.639 119.649 147.82 119.357 148.794Z" fill="black"/>
<path d="M100.641 174.662C102.659 174.576 100.792 172.757 100.501 173.731V173.792C100.2 174.212 100.417 174.671 100.641 174.662Z" fill="black"/>
<path d="M80.615 171.021V171.082C80.3166 171.502 80.5313 171.961 80.7573 171.952C82.7733 171.866 80.9088 170.047 80.615 171.021Z" fill="black"/>
<path d="M66.4246 170.431C68.4428 170.343 66.576 168.526 66.2845 169.5V169.561C65.9929 169.981 66.1986 170.44 66.4246 170.431Z" fill="black"/>
<path d="M115.241 151.422V151.483C114.94 151.904 115.157 152.362 115.381 152.353C117.397 152.267 115.533 150.448 115.241 151.422Z" fill="black"/>
<path d="M119.185 186.138V186.199C118.887 186.619 119.102 187.078 119.328 187.069C121.344 186.974 119.477 185.155 119.185 186.138Z" fill="black"/>
<path d="M65.5134 155.027V155.09C65.2151 155.51 65.4298 155.967 65.6558 155.958C67.6717 155.872 65.8049 154.046 65.5134 155.027Z" fill="black"/>
<path d="M114.472 136.949V137.012C114.171 137.433 114.388 137.892 114.612 137.88C116.63 137.794 114.763 135.966 114.472 136.949Z" fill="black"/>
<path d="M118.424 171.658V171.719C118.125 172.14 118.34 172.598 118.566 172.589C120.573 172.501 118.706 170.682 118.424 171.658Z" fill="black"/>
<path d="M59.2365 164.668L59.2953 164.688C59.623 165.086 60.1225 164.998 60.1722 164.779C60.6197 162.801 58.3732 164.123 59.2365 164.668Z" fill="black"/>
<path d="M108.196 146.588L108.254 146.608C108.582 147.006 109.079 146.918 109.131 146.701C109.579 144.724 107.332 146.046 108.196 146.588Z" fill="black"/>
<path d="M151.855 170.838C152.182 171.238 152.682 171.15 152.732 170.93C153.184 168.96 150.924 170.282 151.796 170.82L151.855 170.838Z" fill="black"/>
<path d="M173.469 168.684L173.528 168.702C173.855 169.102 174.355 169.014 174.405 168.795C174.852 166.824 172.606 168.146 173.469 168.684Z" fill="black"/>
<path d="M89.6164 136.73C89.0265 136.852 89.3633 138.466 90.378 137.634C90.708 137.367 90.708 136.504 89.6164 136.73Z" fill="black"/>
<path d="M176.935 147.659C177.265 147.39 177.267 146.529 176.176 146.755C175.586 146.875 175.92 148.489 176.935 147.659Z" fill="black"/>
<path d="M148.178 136.511C147.588 136.633 147.922 138.249 148.937 137.415C149.267 137.148 149.269 136.285 148.178 136.511Z" fill="black"/>
<path d="M143.283 154.272C143.613 154.001 143.613 153.142 142.522 153.368C141.927 153.481 142.264 155.097 143.283 154.272Z" fill="black"/>
<path d="M72.2341 145.205C71.6443 145.329 71.9788 146.943 72.9935 146.109C73.3235 145.844 73.3257 144.981 72.2341 145.205Z" fill="black"/>
<path d="M187.214 168.02C187.544 167.751 187.546 166.89 186.455 167.116C185.865 167.233 186.199 168.849 187.214 168.02Z" fill="black"/>
<path d="M143.736 127.737C143.146 127.859 143.481 129.475 144.495 128.641C144.825 128.375 144.828 127.511 143.736 127.737Z" fill="black"/>
<path d="M152.628 185.835C152.958 185.564 152.96 184.705 151.869 184.931C151.279 185.049 151.614 186.662 152.628 185.835Z" fill="black"/>
<path d="M125.896 162.745C126.226 162.474 126.228 161.615 125.136 161.841C124.547 161.956 124.881 163.574 125.896 162.745Z" fill="black"/>
<path d="M110.062 157.384C109.472 157.506 109.809 159.12 110.823 158.288C111.156 158.021 111.156 157.158 110.062 157.384Z" fill="black"/>
<path d="M81.5506 155.585C80.9607 155.707 81.2952 157.323 82.3099 156.489C82.6399 156.222 82.6421 155.359 81.5506 155.585Z" fill="black"/>
<path d="M96.5433 133.098C96.8733 132.829 96.8733 131.968 95.784 132.194C95.1919 132.312 95.5286 133.932 96.5433 133.098Z" fill="black"/>
<path d="M157.909 150.76C158.239 150.491 158.239 149.63 157.149 149.856C156.557 149.978 156.894 151.589 157.909 150.76Z" fill="black"/>
<path d="M135.21 173.123C135.54 172.854 135.543 171.993 134.451 172.219C133.861 172.336 134.196 173.952 135.21 173.123Z" fill="black"/>
<path d="M99.548 163.086C98.9582 163.208 99.2949 164.824 100.31 163.99C100.64 163.73 100.64 162.86 99.548 163.086Z" fill="black"/>
<path d="M175.908 158.265C176.238 157.996 176.24 157.135 175.148 157.361C174.558 157.479 174.893 159.095 175.908 158.265Z" fill="black"/>
</svg>
