<svg width="355" height="189" viewBox="0 0 355 189" fill="none" xmlns="http://www.w3.org/2000/svg">
<g clip-path="url(#clip0_924_10)">
<path d="M312.542 87.5144C312.6 77.9096 312.459 66.8504 313.084 57.2967C306.532 59.9214 299.634 58.8839 299.662 50.2611C299.669 47.7907 301.929 23.3628 303.279 22.5893C303.567 22.4256 304.117 22.3546 304.821 22.3593C304.306 20.6517 305.902 12.0675 308.796 9.73768C308.814 9.72378 311.005 8.10884 312.667 7.30445L312.801 7.24116L312.364 3.69013C312.347 3.54398 312.39 3.39732 312.481 3.28179C312.571 3.16626 312.703 3.09112 312.85 3.07256C312.996 3.05637 313.142 3.09809 313.257 3.18876C313.372 3.27941 313.448 3.41176 313.467 3.55735L313.876 6.8876C314.075 6.84954 314.283 6.87741 314.466 6.96704C314.649 7.05666 314.798 7.20322 314.89 7.38474C315.129 7.78616 314.593 8.28793 314.094 8.65076L314.115 8.82677C314.716 8.5751 315.085 8.72641 315.248 9.06299C315.823 8.51489 316.373 8.22154 316.87 8.58591C318.338 9.17724 315.447 12.6819 315.7 15.6231C315.734 16.0292 315.526 16.7687 315.193 17.6071L315.688 21.6306C315.705 21.7768 315.663 21.9236 315.572 22.0392C315.481 22.1549 315.349 22.23 315.203 22.2481C315.056 22.2642 314.91 22.2223 314.795 22.1313C314.679 22.0404 314.603 21.9077 314.585 21.7617L314.312 19.5153C313.607 20.8416 312.8 22.001 312.307 22.1477V22.0952C312.243 23.8198 312.228 23.8862 311.293 23.5589H311.282C312.441 23.9757 313.289 24.459 313.396 24.9484C313.405 24.9885 313.371 28.7141 313.385 31.2106C313.385 31.3233 313.385 31.5194 313.385 31.7972C313.385 32.58 313.406 33.1682 313.432 33.3535L315.786 36.7317C316.76 36.2454 318.114 35.6849 319.201 35.2356C319.778 34.9306 320.376 34.6686 320.991 34.4513C323.26 33.596 326.774 32.5353 329.275 31.6721C329.299 31.6645 329.698 31.6568 330.338 31.6521C330.772 29.503 331.159 27.5067 331.159 27.1577C331.159 27.0126 325.059 26.954 325.131 23.1651C325.258 16.5263 327.335 11.5116 329.922 8.76656C326.743 7.7769 326.034 3.34429 329.305 1.34492C330.519 0.602289 332.281 0.807628 333.879 1.35727L332.547 0.00478949C333.907 -0.0893899 335.421 1.2214 336.364 2.52292C337.972 3.31188 340.909 3.94025 343.06 5.55674C345.014 7.01112 345.322 9.9353 344.649 12.2002C344.582 12.4241 344.485 12.8008 344.36 13.2717C345.594 13.9912 345.578 14.689 344.928 16.3472C344.076 18.5086 342.984 21.9779 342.613 22.523C342.59 22.5737 342.562 22.6219 342.528 22.6665C343.09 22.2203 343.806 21.7478 344.057 22.0057C345.079 23.054 344.26 24.5099 343.208 26.2839C342.403 27.6395 341.382 28.9889 341.476 31.7463C347.2 33.7102 353.2 36.8412 354.062 39.1479C355.09 43.0586 351.647 91.1611 351.647 91.1611H351.176C350.484 99.6944 349.548 116.605 348.594 132.812C347.391 153.288 346.163 172.635 345.375 172.534C345.098 172.499 344.473 172.487 343.657 172.485C343.587 173.421 343.502 174.646 343.41 175.736C344.074 175.722 344.608 175.713 344.93 175.713C345.114 176.769 345.001 179.213 345.126 181.154C345.589 188.383 345.532 188.018 345.192 187.904C344.717 187.751 342.269 187.806 341.618 187.769C339.833 187.67 340.161 183.84 338.211 187.838C337.921 188.43 321.411 189.072 319.852 188.422C319.336 188.207 319.057 187.968 318.954 187.72C313.546 187.755 303.668 187.289 302.447 186.743C302.447 186.743 302.952 183.725 306.384 183.589C313.034 183.321 317.955 181.046 320.237 174.031L320.112 174.414C320.42 174.568 321.025 174.696 321.809 174.781C321.702 173.751 321.564 172.51 321.465 171.417L320.076 171.343L314.985 106.889M331.646 119.058C331.638 118.944 331.628 118.844 331.619 118.749V118.726C331.619 118.683 331.609 118.643 331.607 118.606C331.607 118.57 331.599 118.54 331.595 118.51V118.492C331.595 118.464 331.595 118.438 331.584 118.416C331.584 118.394 331.584 118.377 331.574 118.363C331.565 118.35 331.574 118.354 331.574 118.351L331.567 118.317C331.565 118.309 331.565 118.301 331.567 118.292C331.565 118.288 331.565 118.283 331.567 118.279C331.567 118.269 331.567 118.26 331.56 118.248V118.223C331.56 118.211 331.56 118.198 331.56 118.184C331.56 118.17 331.56 118.164 331.56 118.154L331.55 118.104L331.541 118.064L331.531 118.007L331.521 117.959C331.521 117.937 331.513 117.914 331.51 117.891C331.507 117.868 331.51 117.857 331.499 117.839C331.489 117.82 331.499 117.789 331.487 117.763C331.474 117.737 331.479 117.721 331.474 117.698C331.47 117.675 331.463 117.642 331.459 117.613C331.455 117.584 331.459 117.574 331.447 117.554C331.438 117.534 331.438 117.487 331.43 117.453C331.425 117.419 331.422 117.406 331.419 117.382C331.416 117.357 331.403 117.3 331.395 117.256V117.212C331.374 117.087 331.351 116.954 331.328 116.813L331.314 116.735L331.291 116.597L331.276 116.511C331.276 116.463 331.26 116.417 331.25 116.369L331.239 116.293C331.229 116.234 331.217 116.176 331.207 116.115L331.198 116.055C331.189 116 331.178 115.943 331.169 115.884L331.151 115.777C331.142 115.728 331.134 115.677 331.125 115.623C331.118 115.569 331.114 115.555 331.108 115.521L331.081 115.354L331.063 115.249L331.034 115.084L330.975 114.984L330.942 114.786C330.942 114.762 330.932 114.737 330.929 114.714L330.902 114.547C330.855 114.271 330.807 113.986 330.76 113.698C330.749 113.636 330.74 113.576 330.729 113.516L330.713 113.42L330.682 113.233L330.657 113.079L330.631 112.917C330.618 112.849 330.607 112.782 330.597 112.714C330.597 112.693 330.597 112.673 330.586 112.651C330.574 112.581 330.563 112.512 330.551 112.442C330.551 112.399 330.536 112.356 330.53 112.311L330.502 112.148L330.475 111.982C330.465 111.918 330.455 111.854 330.444 111.79V111.765L330.402 111.513C330.392 111.454 330.384 111.396 330.373 111.335L330.356 111.227L330.33 111.073C330.33 111.031 330.314 110.988 330.307 110.945L331.67 119.27C331.67 119.206 331.659 119.146 331.655 119.088L331.646 119.058ZM330.567 181.125C332.125 179.888 333.296 178.099 333.994 174.99L333.907 175.379C334.302 175.58 335.362 175.688 336.684 175.742C336.652 174.724 336.603 173.478 336.579 172.367C335.306 172.274 334.407 172.112 334.378 171.825C334.258 170.624 333.356 151.108 332.598 135.987C332.579 135.605 332.559 135.215 332.541 134.846L332.531 134.672L332.508 134.2C332.508 134.128 332.508 134.057 332.497 133.986C332.49 133.852 332.483 133.719 332.477 133.587C332.477 133.537 332.477 133.488 332.47 133.432C332.46 133.25 332.451 133.069 332.441 132.89V132.864C332.433 132.674 332.423 132.486 332.412 132.299V132.257L332.389 131.794C332.389 131.729 332.389 131.664 332.378 131.6C332.378 131.445 332.363 131.302 332.355 131.155C332.355 131.115 332.355 131.076 332.355 131.038C332.348 130.883 332.339 130.719 332.331 130.562V130.5L332.302 129.964V129.923C332.294 129.755 332.285 129.586 332.277 129.42V129.376C332.258 129.024 332.241 128.678 332.223 128.339V128.268C332.194 127.743 332.167 127.234 332.142 126.741L331.046 171.913L328.586 171.783C328.586 172.739 328.586 173.965 328.573 175.025C329.499 175.038 330.262 175.05 330.725 175.078C330.08 176.859 330.56 179.181 330.561 181.117L330.567 181.125ZM304.821 22.3593C305.099 22.3593 305.402 22.3748 305.718 22.3993C305.423 22.3446 305.121 22.3311 304.821 22.3593ZM315.809 36.7517L316.829 38.2138C317.459 37.0049 318.185 36.0306 319.018 35.3406C319.047 35.3205 319.082 35.2988 319.118 35.2772L315.809 36.7517Z" fill="white"/>
<path d="M281.055 158.847C283.96 163.032 292.198 172.79 290.184 180.307C290.068 180.741 289.985 181.15 289.921 181.542C293.953 181.224 296.973 176.876 294.499 167.121C293.788 164.316 289.42 159.402 289.795 159.259C294.001 157.666 299.146 165.916 299.702 168.456C300.37 171.501 303.153 182.077 293.01 186.52C290.528 187.6 287.273 187.494 285.702 187.006C284.17 187.18 282.631 187.263 281.09 187.258C273.784 187.329 258.064 186.935 252.919 187.181C251.747 187.236 249.342 185.02 251.811 182.328C252.753 181.304 253.774 180.725 253.774 180.691C253.774 179.178 253.929 177.99 253.998 175.219C254.105 170.631 253.689 140.102 253.809 139.594C253.416 139.372 253.193 139.155 253.146 138.976C252.922 138.115 253.258 135.8 253.547 135.978C253.677 136.057 253.809 136.128 253.947 136.193C253.601 135.533 253.843 133.645 252.497 133.17C249.762 132.205 247.165 127.351 249.164 125.81C253.574 122.413 253.697 125.024 254.563 119.603C255.103 116.227 254.357 116.302 256.005 112.836C257.101 110.53 259.907 118.597 260.135 119.696C260.277 120.377 263.89 120.375 264.712 120.375C265.205 118.455 266.371 114.786 266.647 112.81C267.041 109.999 271.454 115.648 271.662 122.359C271.755 125.43 271.199 134.843 271.424 135.436L271.375 135.475L271.467 135.436C272.362 135.056 271.643 138.101 272.136 139.03C271.963 139.077 271.792 139.134 271.626 139.202C271.451 143.701 274.046 148.744 281.055 158.847ZM260.306 140.954C259.68 140.918 259.095 140.867 258.551 140.8C259.134 140.881 259.719 140.932 260.306 140.954Z" fill="white"/>
<path d="M343.437 175.31H343.397H343.119C343.186 174.461 343.254 173.557 343.311 172.79H343.946C343.897 173.435 343.841 174.18 343.791 174.919C343.782 175.045 343.772 175.17 343.761 175.294L343.437 175.31Z" fill="black"/>
<path d="M336.349 175.298C336.349 175.116 336.337 174.932 336.331 174.744C336.303 173.933 336.281 173.241 336.266 172.651L336.582 172.675L336.9 172.696C336.919 173.411 336.943 174.133 336.963 174.723C336.963 174.93 336.977 175.131 336.984 175.324L336.666 175.312L336.349 175.298Z" fill="black"/>
<path d="M328.878 171.491H328.865C328.851 171.144 328.832 170.602 328.812 169.892C328.682 165.328 328.454 153.827 328.503 142.402C328.575 126.281 329.153 115.924 330.18 112.163L331.353 119.335C331.448 120.57 331.598 123.055 331.797 126.755L330.709 171.589L328.878 171.491Z" fill="black"/>
<path d="M351.939 91.4776H351.147H350.832C350.271 98.4871 349.558 110.757 348.815 123.545C348.638 126.613 348.457 129.721 348.274 132.798C347.559 144.984 346.083 170.094 345.24 172.207C344.963 172.188 344.531 172.179 343.993 172.173H343.057L343.172 171.746C343.219 171.758 343.262 171.781 343.297 171.814C343.333 171.845 343.36 171.885 343.378 171.929C343.385 171.943 343.389 171.957 343.392 171.973C343.387 171.932 343.384 171.889 343.384 171.846C343.384 171.726 343.384 171.538 343.384 171.277C343.384 171.179 343.384 171.068 343.394 170.95C343.402 170.83 343.394 170.74 343.404 170.624C343.558 166.071 344.442 150.944 345.294 136.245C346.424 116.837 347.587 96.7841 347.699 91.4004C347.699 91.2893 347.699 91.1827 347.699 91.0916H347.381H347.073C347.073 91.189 347.073 91.2938 347.073 91.4004C347.03 93.497 346.819 97.939 346.515 103.675C344.949 100.764 341.698 93.4754 341.423 91.2383C341.41 91.136 341.404 91.0328 341.406 90.9295L341.098 90.9187L340.778 90.9063C340.775 91.0126 340.781 91.1189 340.792 91.2245C341.068 93.9401 345.257 102.916 346.435 104.811L346.458 104.846C345.981 113.735 345.305 125.391 344.677 136.221C344.131 145.605 343.617 154.471 343.256 161.096C343.063 164.647 342.931 167.247 342.85 169.048C342.826 169.593 342.807 170.06 342.793 170.458C342.793 170.573 342.793 170.683 342.783 170.785C342.772 170.886 342.775 171.009 342.772 171.11C342.772 171.164 342.772 171.218 342.772 171.264C342.76 171.764 342.755 172.037 342.807 172.183H342.421C341 172.183 338.649 172.183 336.901 172.084L336.583 172.064L336.275 172.04C335.486 171.974 334.898 171.885 334.706 171.746C334.622 170.751 334.267 163.38 333.856 154.876C333.566 148.871 333.239 142.061 332.93 135.986C332.738 132.149 332.582 129.132 332.454 126.764L332.553 122.634L331.994 119.214C331.983 118.884 331.943 118.555 331.876 118.231C331.812 117.996 331.26 114.74 330.672 111.129L329.746 105.433L329.121 105.535C329.303 106.654 329.642 108.736 329.999 110.905C327.172 116.73 327.914 159.617 328.205 169.821C328.205 169.937 328.205 170.046 328.214 170.153C328.224 170.259 328.214 170.38 328.224 170.485C328.237 170.899 328.248 171.234 328.257 171.483L321.777 171.137L321.456 171.12L321.148 171.103L320.394 171.063L315.31 106.986L315.022 107.358L314.735 107.727C307.871 116.48 298.635 125.693 292.715 128.93C290.642 130.062 288.871 131.081 287.16 132.067C282.391 134.812 278.623 136.98 272.25 139.314L271.992 139.41V139.396L271.949 139.412C271.868 143.627 274.22 148.42 281.331 158.666C281.698 159.192 282.142 159.8 282.657 160.505C286.264 165.433 292.302 173.68 290.506 180.391C290.401 180.781 290.324 181.152 290.263 181.504C294.12 180.978 296.921 176.607 294.514 167.119C293.804 164.313 289.437 159.399 289.811 159.256C294.017 157.663 299.162 165.914 299.719 168.453C300.385 171.497 303.168 182.074 293.026 186.517C290.92 187.443 288.262 187.498 286.547 187.197C285.279 187.431 283.532 187.546 281.113 187.572C280.478 187.572 279.783 187.58 279.038 187.58C276.214 187.58 272.673 187.541 268.973 187.499C262.569 187.427 255.946 187.344 252.954 187.499C252.258 187.529 251.199 186.917 250.706 185.864C250.384 185.177 250.074 183.775 251.598 182.115C252.159 181.517 252.786 180.988 253.471 180.538C253.471 179.851 253.511 179.233 253.556 178.464C253.606 177.602 253.661 176.625 253.695 175.221C253.751 172.823 253.662 163.192 253.586 154.699C253.55 150.721 253.515 146.962 253.498 144.184C253.488 142.696 253.484 141.606 253.485 140.852C253.485 140.327 253.485 139.992 253.498 139.771C253.131 139.535 252.913 139.294 252.852 139.064C252.653 138.292 252.839 136.077 253.298 135.737C253.352 135.697 253.415 135.671 253.482 135.663C253.467 135.575 253.451 135.486 253.435 135.391C253.309 134.619 253.167 133.746 252.404 133.477C250.519 132.81 248.558 130.298 248.207 128.101C248.027 126.974 248.296 126.094 248.978 125.567C249.992 124.764 251.105 124.096 252.289 123.579C253.523 123.022 253.718 122.937 254.255 119.565C254.385 118.752 254.468 117.931 254.499 117.108C254.561 115.841 254.598 115.076 255.723 112.711C255.98 112.171 256.326 112.094 256.573 112.123C258.195 112.317 260.292 118.993 260.444 119.619C260.515 119.691 261.046 120.053 264.472 120.07C264.615 119.529 264.8 118.876 264.995 118.189C265.51 116.384 266.149 114.138 266.337 112.774C266.471 111.825 267.023 111.751 267.255 111.765C268.913 111.854 271.816 117.014 271.982 122.358C272.026 123.832 271.925 126.69 271.827 129.46C271.746 131.742 271.655 134.291 271.699 135.112C271.772 135.124 271.843 135.152 271.904 135.194C272.291 135.455 272.28 136.153 272.267 137.119C272.24 137.626 272.263 138.135 272.331 138.638C278.471 136.364 282.175 134.234 286.834 131.547C288.549 130.561 290.324 129.54 292.403 128.404C298.401 125.126 307.82 115.674 314.659 106.84L314.945 106.464L315.239 106.06L314.005 90.3213L313.686 90.3105L313.368 90.2997L312.521 90.2702L312.212 90.2595V89.9507C312.242 87.204 312.246 84.3571 312.253 81.3418C312.266 73.4801 312.28 65.1908 312.742 57.7738C310.796 58.504 308.893 58.8855 307.172 58.8855C306.437 58.8894 305.703 58.8128 304.983 58.6569C301.338 57.8401 299.338 54.8589 299.352 50.2595C299.352 49.0538 299.906 42.4318 300.659 35.756C302.107 22.8981 302.847 22.4782 303.127 22.3145C303.406 22.1508 303.864 22.0737 304.445 22.0505C304.311 20.8771 304.618 18.5133 305.226 16.2021C305.723 14.3109 306.82 10.9219 308.601 9.49068C308.618 9.47679 310.761 7.89118 312.458 7.05282L312.049 3.73185C312.02 3.50161 312.086 3.26968 312.228 3.08681C312.371 2.90395 312.58 2.78503 312.81 2.7561C313.04 2.72815 313.271 2.79255 313.454 2.9352C313.636 3.07786 313.755 3.28714 313.784 3.51725L314.159 6.56032C314.37 6.57429 314.573 6.64247 314.749 6.75824C314.927 6.87401 315.07 7.03346 315.167 7.22112C315.408 7.63026 315.211 8.04249 314.877 8.40068C315.031 8.43101 315.174 8.50007 315.295 8.60139C315.873 8.12123 316.455 7.90507 317.031 8.30496C318.042 8.74652 317.543 10.0388 316.965 11.5333C316.469 12.8148 315.905 14.2691 316.02 15.5938C316.057 16.0261 315.856 16.7873 315.523 17.6488L316.01 21.5889C316.025 21.7038 316.015 21.8201 315.983 21.9314C315.952 22.0427 315.9 22.1467 315.827 22.2374C315.756 22.328 315.667 22.4036 315.566 22.4598C315.465 22.516 315.354 22.5516 315.239 22.5646C315.204 22.5669 315.168 22.5669 315.133 22.5646C314.918 22.5642 314.713 22.4855 314.554 22.3432C314.393 22.201 314.291 22.0052 314.265 21.7927L314.112 20.5051C313.589 21.365 313.048 22.0629 312.612 22.3361C312.584 23.0356 312.554 23.4384 312.435 23.6856C313.19 24.0607 313.606 24.4467 313.703 24.8574C313.714 24.9084 313.714 24.9084 313.703 26.2839C313.703 27.5407 313.687 29.6095 313.694 31.1859C313.694 31.3048 313.703 31.5102 313.694 31.7819C313.703 32.5461 313.714 33.1174 313.738 33.2933L313.666 33.3027C313.653 33.8476 313.638 34.4682 313.619 35.1368C313.601 35.8053 313.581 36.6159 313.562 37.4341C314.024 37.2801 314.468 37.0788 314.889 36.8336C315.814 36.2731 317.666 35.5043 319.055 34.9315C320.207 34.2768 323.093 33.3412 325.891 32.435C327.071 32.052 328.187 31.6908 329.165 31.3541C329.468 31.3277 329.772 31.3163 330.074 31.3202C330.411 29.642 330.724 28.0333 330.813 27.3894L330.676 27.3725C329.209 27.1794 324.745 26.5927 324.814 23.1406C324.905 18.3543 326.048 13.9403 328.026 10.7274C328.424 10.074 328.874 9.45432 329.374 8.87466C328.704 8.58006 328.123 8.11559 327.687 7.52717C327.253 6.93876 326.979 6.24679 326.892 5.51972C326.672 3.7334 327.51 2.07059 329.145 1.07322C330.646 0.146864 332.988 0.554461 334.996 1.45303C335.229 1.66581 335.449 1.89213 335.655 2.13081C335.836 2.33924 336.005 2.55538 336.157 2.76845C336.365 3.05661 336.548 3.36069 336.705 3.67782C337.366 5.06192 338.277 6.31108 339.395 7.36162L339.46 7.45579L339.984 7.09915C339.946 7.03542 339.902 6.97589 339.851 6.92161C338.777 5.92118 337.904 4.72619 337.275 3.39991C337.244 3.33815 337.211 3.27331 337.176 3.21C337.1 3.06488 337.014 2.91667 336.919 2.7669C336.823 2.61714 336.703 2.43804 336.582 2.27131C337.09 2.5137 337.731 2.74374 338.452 3.00312C339.936 3.53423 341.785 4.19658 343.256 5.30202C345.383 6.90153 345.627 10.0511 344.953 12.2991C344.897 12.4813 344.821 12.7715 344.724 13.1374C345.894 13.9001 345.907 14.7261 345.22 16.4707C344.861 17.3708 344.474 18.4886 344.09 19.5695C343.76 20.5051 343.499 21.2476 343.29 21.7865C343.698 21.5966 344.061 21.558 344.285 21.7943C345.505 23.0448 344.476 24.7786 343.482 26.4538C343.399 26.5927 343.314 26.7317 343.23 26.8721C342.506 28.0594 341.759 29.2854 341.788 31.5286C347.238 33.423 353.423 36.5479 354.359 39.046L354.369 39.0768C355.393 42.9891 352.093 89.2235 351.951 91.189L351.939 91.4776ZM265.715 183.056C267.008 181.886 268.614 180.431 267.424 177.548C265.686 173.33 267.75 166.77 270.771 163.289C272.384 161.436 274.098 160.614 275.594 160.997L275.749 160.38C274.008 159.934 272.069 160.818 270.291 162.868C268.695 164.709 267.381 167.312 266.687 170.015C265.93 172.949 265.984 175.715 266.84 177.786C267.861 180.256 266.555 181.439 265.298 182.573C264.463 183.327 263.675 184.041 263.756 185.055L264.386 185.005C264.328 184.313 264.966 183.731 265.715 183.056ZM253.623 136.372C253.468 136.889 253.296 138.272 253.457 138.887C253.481 138.978 253.611 139.106 253.851 139.25L253.937 139.285C255.24 139.817 256.6 140.196 257.989 140.415C258.787 140.526 259.688 140.613 260.71 140.656L260.956 140.665C264.071 140.706 267.478 140.093 271.226 138.824C271.253 138.755 271.302 138.698 271.366 138.66C271.428 138.623 271.501 138.607 271.574 138.615C271.614 138.617 271.654 138.624 271.692 138.637C271.628 138.121 271.607 137.6 271.633 137.08C271.633 136.617 271.65 135.949 271.563 135.728L271.533 135.739C269.528 137.266 265.332 138.098 261.377 138.098C258.411 138.098 255.587 137.635 253.945 136.637C253.857 136.583 253.782 136.51 253.725 136.423L253.623 136.372ZM268.896 121.484C268.896 121.2 268.741 119.435 268.503 117.706C268.007 114.139 267.628 114.071 267.351 114.022L267.241 114.64C267.212 114.635 267.185 114.623 267.161 114.606C267.649 115.089 268.263 120.672 268.263 121.478L268.896 121.484ZM257.844 120.31C257.844 118.848 257.356 117.357 256.882 115.915C256.744 115.49 256.61 115.089 256.491 114.69L255.885 114.871C256.007 115.279 256.146 115.702 256.281 116.106C256.744 117.496 257.205 118.944 257.205 120.304L257.844 120.31ZM251.784 126.347C250.945 126.359 250.28 126.37 249.914 126.854C249.604 127.26 249.593 127.886 249.871 128.953C250.081 129.75 250.557 130.327 251.18 130.539C251.358 130.598 251.544 130.628 251.731 130.627C252.176 130.627 252.748 130.473 253.428 129.935L253.462 129.904C254.123 129.219 254.585 128.018 254.216 127.196C254.027 126.776 253.555 126.287 252.365 126.333C252.163 126.341 251.97 126.344 251.787 126.347H251.784ZM350.877 90.8368H351.194H351.349C351.393 90.2023 351.502 88.5951 351.657 86.3179C351.657 86.2653 351.664 86.2129 351.668 86.1634C351.668 86.06 351.681 85.9551 351.689 85.8469C352.547 73.2671 354.548 42.3762 353.763 39.2437C353.078 37.4696 348.58 34.7385 342.983 32.6248C342.969 32.7051 342.935 32.8796 342.846 33.3135C342.82 33.4401 342.789 33.5928 342.752 33.7766C342.74 33.8321 342.729 33.8877 342.716 33.9495C342.698 34.0437 342.677 34.1441 342.655 34.2475C342.401 35.4826 342.025 37.3169 341.748 38.7435C341.729 38.9209 341.707 39.1247 341.684 39.3532C341.673 39.4629 341.661 39.5772 341.65 39.696C341.639 39.8149 341.627 39.9168 341.614 40.0326C341.306 43.1204 340.733 48.9411 340.46 52.2867C342.049 56.2345 340.703 61.6244 338.147 67.3632C342.598 65.2556 347.488 59.239 351.305 47.1378L351.908 47.3276C347.862 60.1638 342.546 66.2931 337.763 68.203C335.382 73.3474 332.105 78.7248 329.158 83.5619C328.837 84.0868 328.522 84.6015 328.214 85.1059L328.026 85.4147L327.838 85.7234C326.9 87.2673 326.036 88.7233 325.283 90.0572C334.894 90.3908 347.05 90.7797 350.877 90.8368ZM343.85 22.2511C343.679 22.2511 343.245 22.5136 342.76 22.8919C342.515 23.0849 342.253 23.3073 342.008 23.5419L341.982 23.5666L341.793 23.7472L341.738 23.6964L341.575 23.5419L341.494 23.4632L341.269 23.2223L340.947 22.8672C340.929 22.8471 340.912 22.8271 340.892 22.8071L340.616 22.4983C340.513 22.384 340.403 22.2635 340.288 22.1385C339 20.732 337.011 18.6354 335.429 17.5406C335.355 17.4898 335.276 17.4387 335.21 17.3863L335.125 17.3339C335.017 17.2644 334.916 17.2041 334.817 17.1501C334.144 16.7703 333.812 16.7534 333.648 16.8182C333.596 16.8398 333.434 16.9046 333.33 17.3384C333.256 17.6472 333.408 18.3359 333.484 18.6663C333.56 18.7821 333.661 18.9488 333.793 19.1557C333.969 19.4429 334.337 20.0496 334.693 20.5607C334.81 20.7242 334.922 20.8787 335.027 21.0083C335.125 21.1376 335.237 21.2543 335.364 21.3557C335.389 21.3738 335.418 21.3883 335.446 21.3989L335.396 21.68L335.334 22.0212C335.256 22.005 335.18 21.9757 335.112 21.9347C334.983 21.8562 334.865 21.7607 334.762 21.6506C334.362 21.2446 333.881 20.5175 333.252 19.4892L333.151 19.3224C333.107 19.3123 333.065 19.2983 333.023 19.2807C332.9 19.2112 332.754 19.1935 332.617 19.2313C332.499 19.2868 332.396 19.449 332.318 19.6945C332.23 19.9816 332.367 20.4788 332.472 20.8416C332.563 21.1659 332.626 21.4067 332.592 21.5997C332.69 21.7293 332.801 21.9085 332.948 22.1431C333.276 22.6712 333.721 23.3952 334.247 23.7796L333.874 24.2908C333.258 23.8275 332.765 23.0556 332.41 22.4767C332.305 22.3068 332.181 22.1076 332.092 21.9873C331.99 22.0434 331.907 22.1332 331.863 22.2419C331.625 22.7437 331.721 23.8122 332.49 24.9732C334.053 27.3338 333.827 29.7331 333.462 31.3032C333.438 31.4128 333.411 31.5194 333.386 31.6197C333.359 31.72 333.329 31.8359 333.299 31.9285C333.249 32.103 333.204 32.2605 333.161 32.3916C333.141 32.4534 333.123 32.5168 333.104 32.5785V32.5985C333.648 32.5306 334.685 32.421 336.12 32.2681C337.046 32.1709 338.127 32.0567 339.071 31.9517C339.862 31.8637 340.552 31.7834 340.971 31.7232L341.159 31.72V31.629C341.159 31.5502 341.159 31.4746 341.159 31.3943C341.159 31.314 341.159 31.2399 341.159 31.1735C341.167 30.7041 341.215 30.2363 341.302 29.7748C341.569 28.3774 342.153 27.4157 342.689 26.5325L342.938 26.1218C344.033 24.2692 344.635 23.0896 343.851 22.2482L343.85 22.2511ZM342.326 22.4056L342.354 22.3532C342.542 22.0675 343.026 20.6887 343.496 19.3547C343.875 18.274 344.267 17.1517 344.629 16.233C345.133 14.9485 345.272 14.3448 344.55 13.7797C344.46 13.711 344.368 13.6476 344.273 13.5898C344.186 13.5373 344.091 13.4833 343.987 13.4354C343.654 13.261 343.233 13.0772 342.708 12.8672C342.35 12.7237 341.954 12.5245 341.535 12.3145C341.025 12.0507 340.504 11.8127 339.972 11.6012C339.845 11.5534 339.722 11.5101 339.601 11.4731C339.482 11.436 339.352 11.4021 339.236 11.3774C339.064 11.3382 338.888 11.3175 338.711 11.3156C338.506 11.3059 338.303 11.3477 338.118 11.4373C337.934 11.5268 337.775 11.6612 337.655 11.8282C337.59 11.9193 337.522 12.0243 337.451 12.137C337.396 12.2281 337.34 12.3269 337.282 12.4319C337.225 12.5369 337.18 12.6264 337.129 12.7314C336.493 14.0646 335.956 15.443 335.524 16.8553L335.554 16.8753C337.039 17.8356 338.902 19.7285 340.26 21.1875C340.372 21.3078 340.483 21.4252 340.588 21.541L340.916 21.8991L341.362 22.3886L341.803 22.8734C341.968 22.719 342.141 22.5723 342.313 22.4335C342.32 22.4241 342.326 22.4143 342.33 22.404L342.326 22.4056ZM330.764 26.7549C331.24 26.8166 331.477 26.8475 331.477 27.1501C331.477 27.4944 331.169 29.1124 330.727 31.3187C331.322 31.3187 332.044 31.3187 332.806 31.3187C333.163 29.8596 333.424 27.5639 331.958 25.3422C331.158 24.1347 330.893 22.8194 331.285 21.9888C331.346 21.845 331.437 21.7157 331.551 21.6094C331.664 21.503 331.799 21.4218 331.947 21.3712C331.926 21.2693 331.889 21.1319 331.858 21.0222C331.73 20.5591 331.571 19.9831 331.713 19.52C331.848 19.0893 332.059 18.8005 332.346 18.6647C332.494 18.5952 332.657 18.5669 332.819 18.5828C332.727 18.1552 332.63 17.5793 332.72 17.2026C332.837 16.7024 333.072 16.3796 333.418 16.2407C333.802 16.0863 334.301 16.1743 334.96 16.5171C335.364 15.2418 336.059 13.3551 336.717 12.1385C336.539 11.7822 336.409 11.4044 336.329 11.0145C335.875 10.5622 331.842 9.49068 330.027 9.09853C327.527 11.8606 325.57 16.8474 325.449 23.1575C325.398 26.0539 329.442 26.5788 330.768 26.7533L330.764 26.7549ZM329.343 31.9764C328.367 32.3113 327.262 32.6696 326.092 33.0479C324.376 33.6052 322.521 34.2057 321.132 34.7277C320.925 34.8557 320.391 35.0781 319.379 35.4996L319.337 35.5167C319.289 35.5444 319.244 35.5722 319.204 35.5984C316.426 37.9143 314.636 43.6901 313.719 53.2778C313.609 54.4296 313.513 55.6123 313.429 56.815C313.415 57.0497 313.398 57.2859 313.382 57.5221C312.902 64.9778 312.888 73.2779 312.874 81.3479C312.874 84.2505 312.865 86.9987 312.837 89.6527L313.3 89.6682L313.618 89.679L313.936 89.6913C315.941 89.7592 319.917 89.8967 324.56 90.051C325.306 88.717 326.168 87.272 327.102 85.7188L327.291 85.41C327.353 85.3065 327.416 85.2031 327.48 85.1012C327.846 84.495 328.224 83.8774 328.609 83.2485L328.884 82.7961C328.937 82.2048 328.381 80.0742 327.804 77.8217C326.379 72.3438 324.438 64.8743 325.923 61.9686C325.219 59.6501 325.113 57.1908 325.614 54.8202C325.702 54.3833 325.871 53.4231 326.104 52.0937C326.623 49.1093 327.412 44.5995 328.232 40.7103C328.462 39.6296 328.67 38.7032 328.86 37.9143C329.17 36.6113 329.438 35.6741 329.661 34.9994C329.914 34.2275 330.124 33.7998 330.279 33.5528C330.323 33.4667 330.382 33.3902 330.456 33.3277C330.53 33.2652 330.615 33.2178 330.707 33.1884C330.963 33.1034 331.581 32.9475 332.404 32.7654C332.43 32.6309 332.48 32.4658 332.546 32.2497C332.572 32.1617 332.602 32.0659 332.632 31.9625H330.594H330.271H329.948C329.647 31.964 329.432 31.9687 329.348 31.9748L329.343 31.9764ZM340.324 54.7894L339.697 54.8866C339.585 54.1718 340.484 45.0333 340.91 40.7937L340.755 40.7829C340.755 40.6826 340.792 40.485 340.839 40.2101C340.856 40.1098 340.876 40.0001 340.897 39.8797L340.957 39.5462C341.214 38.1767 341.67 35.9382 342.106 33.8182C342.133 33.6886 342.158 33.5636 342.182 33.4431C342.217 33.2887 342.248 33.1343 342.273 33.0031C342.313 32.8054 342.344 32.6527 342.36 32.5724V32.5508C342.36 32.5369 342.34 32.5182 342.302 32.4921C342.14 32.3973 341.96 32.3364 341.773 32.3129C341.705 32.3021 341.634 32.2913 341.559 32.2836C341.501 32.3024 341.443 32.3173 341.383 32.3284C341.288 32.3469 341.178 32.3624 341.056 32.3808C340.762 32.4226 340.348 32.4735 339.787 32.5353C338.756 32.6557 337.39 32.7993 336.187 32.9259C334.644 33.0879 333.059 33.2563 332.845 33.3027C332.835 33.3034 332.825 33.3034 332.815 33.3027C331.953 33.4848 331.271 33.6515 330.928 33.7658C330.801 33.84 330.375 34.3741 329.515 37.9174C329.475 38.0717 329.437 38.2447 329.394 38.4192C329.363 38.5489 329.333 38.6816 329.302 38.8175C329.147 39.4551 328.993 40.1715 328.826 40.979C328.019 44.8219 327.245 49.2513 326.734 52.1816C326.501 53.5171 326.332 54.4806 326.24 54.9268C325.006 61.0329 327.767 66.7841 332.543 68.0208C333.992 68.396 335.608 68.3296 337.302 67.712C339.638 62.6295 341.058 57.8217 340.342 54.0854C340.319 54.3193 340.314 54.5545 340.324 54.7894ZM334.37 68.8917C333.699 68.8925 333.032 68.808 332.383 68.64C329.573 67.9127 327.412 65.742 326.253 62.8641C325.384 65.9643 327.192 72.9166 328.423 77.6488C328.934 79.6219 329.286 80.9943 329.441 81.8883C332.046 77.604 334.815 72.963 336.937 68.4994C336.105 68.7552 335.24 68.8874 334.37 68.8917ZM315.434 100.658L316.032 100.865C316.3 100.093 318.627 92.2634 319.018 90.4926C319.048 90.3552 319.066 90.2533 319.073 90.1962L318.757 90.1668L318.449 90.1391C318.449 90.1391 318.449 90.1515 318.449 90.156C318.449 90.2178 318.419 90.3243 318.385 90.4648C317.96 92.2542 315.712 99.8534 315.434 100.658ZM312.977 16.636C313.151 16.1727 313.325 15.6896 313.469 15.2758C313.562 15.0056 313.642 14.7663 313.701 14.5718C313.701 14.5486 313.717 14.5223 313.723 14.4992C313.802 14.2347 313.865 13.9655 313.91 13.6932C314.027 12.9815 313.863 12.858 313.853 12.8518C313.839 12.8435 313.822 12.8383 313.807 12.8364C313.787 12.8345 313.768 12.8345 313.748 12.8364C313.662 12.84 313.575 12.8567 313.493 12.8858C313.386 12.9193 313.284 12.9612 313.185 13.0108C313.088 13.0587 312.979 13.1189 312.854 13.1946L312.797 13.2393L312.807 13.2563L312.703 13.3119C312.482 13.4833 312.289 13.6207 312.144 13.7318C311.988 13.8522 311.824 13.9645 311.657 14.0684C311.155 14.4987 310.695 14.9742 310.282 15.4888L309.782 15.1013C310.424 14.2976 311.175 13.5883 312.015 12.9938C312.191 12.8657 312.361 12.7515 312.517 12.6557C312.7 12.5121 312.891 12.3562 313.084 12.1926C313.182 12.1123 313.277 12.0304 313.372 11.9471C313.469 11.8637 313.565 11.7757 313.659 11.6908C313.814 11.5503 313.959 11.4098 314.095 11.2724C314.196 11.1705 314.291 11.0686 314.377 10.9713C314.474 10.8608 314.566 10.7454 314.653 10.6255C314.688 10.5761 314.721 10.5282 314.748 10.4803C314.882 10.2619 314.972 10.0197 315.014 9.76705C315.042 9.65707 315.046 9.54268 315.029 9.43071C315.011 9.31876 314.971 9.21155 314.91 9.11551C314.884 9.08591 314.85 9.06315 314.813 9.04912C314.698 9.0103 314.573 9.0103 314.458 9.04912C314.383 9.06796 314.309 9.09222 314.238 9.12169L314.153 9.15874L313.998 9.22358L313.845 9.28534L313.76 9.32085C313.642 9.3749 313.517 9.43666 313.383 9.50613C313.288 9.55708 313.187 9.61112 313.085 9.66978C312.983 9.72845 312.889 9.78248 312.788 9.84271C311.874 10.3939 310.82 11.1782 310.154 11.9517L309.674 11.5379C310.418 10.6764 311.647 9.76242 312.703 9.15566C312.804 9.09853 312.903 9.04295 313.003 8.99046L313.135 8.91943C313.185 8.87214 313.239 8.8307 313.297 8.79592L313.337 8.76967C313.491 8.67395 313.628 8.58596 313.747 8.50258C313.868 8.41921 313.956 8.3559 314.041 8.29106C314.157 8.19842 314.254 8.11815 314.329 8.04557C314.68 7.709 314.622 7.57159 314.61 7.54998C314.572 7.4712 314.519 7.40104 314.453 7.34391C314.387 7.28679 314.311 7.24391 314.227 7.21804C314.122 7.19384 314.012 7.18912 313.906 7.20414C313.802 7.21788 313.699 7.24008 313.598 7.27053C313.44 7.31809 313.285 7.37532 313.135 7.4419C313.04 7.48204 312.94 7.52682 312.827 7.57776L312.788 7.59629C312.702 7.63797 312.614 7.68121 312.526 7.72753C310.935 8.5489 308.991 9.98166 308.977 9.99092C306.255 12.1771 304.792 20.0511 305.058 22.0336C305.213 22.0336 305.42 22.0536 305.649 22.0799C307.367 22.2774 310.708 23.0371 311.357 23.2548H311.384C311.539 23.3158 311.699 23.3618 311.863 23.3921C311.934 23.2378 311.955 22.665 311.979 22.0026C312.005 21.3402 312.037 20.3969 312.134 19.151C312.175 18.8469 312.48 17.9976 312.977 16.636ZM315.394 15.6478C315.269 14.1765 315.884 12.5847 316.38 11.3048C316.916 9.91527 317.21 9.05685 316.763 8.87621L316.726 8.86231L316.693 8.83761C316.407 8.62764 316.052 8.78048 315.627 9.15721C315.745 9.63118 315.627 10.2534 315.3 10.8077C315.147 11.0524 314.97 11.2815 314.771 11.4916L315.343 16.1435C315.383 15.9815 315.4 15.8146 315.394 15.6478ZM313.988 19.4537L313.646 16.6745C313.623 16.7363 313.601 16.7981 313.578 16.8598C313.236 17.8001 312.807 18.9704 312.788 19.2128C312.715 20.1392 312.676 20.8926 312.652 21.4947C313.169 20.8658 313.615 20.1812 313.981 19.4537H313.988ZM315.234 37.3848C315.1 37.4651 314.014 38.0564 313.564 38.0827C313.511 40.5004 313.48 42.9428 313.581 43.2702L312.979 43.4663C312.814 42.9537 312.885 39.6867 313.004 35.129C313.04 33.7565 313.071 32.5229 313.08 31.7973C313.065 30.3892 313.08 28.2895 313.08 26.2901C313.08 25.6726 313.08 25.1259 313.08 24.9871C313.038 24.8697 312.832 24.5486 311.823 24.1086C311.633 24.0252 311.427 23.9449 311.207 23.8677L311.178 23.8569C310.434 23.596 307.377 22.946 305.799 22.7268C305.457 22.6989 305.136 22.682 304.844 22.6789L304.595 22.7484L304.574 22.6789C304.047 22.6881 303.648 22.7452 303.435 22.8595C303.291 23.0046 302.562 24.3201 301.248 36.0322C300.513 42.6063 299.972 49.0954 299.969 50.2611C299.954 54.5933 301.732 57.2828 305.106 58.0378C307.282 58.5241 309.978 58.1736 312.771 57.079C313.388 47.7522 314.755 39.8966 317.767 36.1667C316.897 36.5214 316.049 36.9282 315.227 37.3848H315.234Z" fill="black"/>
<path d="M306.388 183.584C313.039 183.317 317.958 181.044 320.24 174.028L320.115 174.412C320.378 174.549 320.862 174.656 321.486 174.74C321.459 174.487 321.432 174.223 321.403 173.957C321.309 173.073 321.236 172.334 321.177 171.716L321.486 171.733L321.806 171.75C321.879 172.502 321.961 173.27 322.025 173.891C322.059 174.215 322.092 174.524 322.123 174.816C323.87 174.984 326.316 175.014 328.225 175.04C328.225 174.086 328.233 173.003 328.236 172.097L328.553 172.114L328.861 172.131C328.861 172.739 328.861 173.428 328.861 174.102C328.861 174.424 328.861 174.743 328.861 175.048C329.634 175.059 330.287 175.072 330.696 175.096C330.136 176.701 330.477 178.758 330.542 180.573C329.154 181.775 327.411 182.452 325.389 183.238C324.479 183.592 323.537 183.957 322.535 184.402L322.357 184.478C320.435 185.315 318.471 186.331 318.482 187.501C318.482 187.576 318.491 187.651 318.508 187.724C313.021 187.734 303.63 187.276 302.443 186.748C302.45 186.741 302.957 183.722 306.388 183.584Z" fill="black"/>
<path d="M344.628 178.469C344.638 179.377 344.645 180.322 344.7 181.18C344.91 184.448 345.048 186.657 345.034 187.441C344.24 187.373 343.445 187.346 342.648 187.36C342.211 187.36 341.832 187.36 341.636 187.344C341.203 187.322 340.934 186.954 340.602 186.436C340.328 186.009 340.043 185.57 339.539 185.597C339.033 185.625 338.566 186.154 337.884 187.532C337.238 187.735 333.893 188.024 329.1 188.181C323.545 188.363 320.501 188.231 320.016 188.027C319.818 187.954 319.633 187.85 319.468 187.718C319.431 187.691 319.402 187.659 319.377 187.62C319.355 187.582 319.339 187.539 319.332 187.494C319.332 187.262 319.654 186.58 322.7 185.254L322.883 185.173C323.301 184.988 323.708 184.818 324.109 184.654L324.264 184.592C324.752 184.394 325.231 184.207 325.701 184.025C327.52 183.317 329.171 182.678 330.563 181.649C332.155 180.472 333.408 178.788 334.192 175.915C334.912 176.053 335.642 176.132 336.376 176.152L336.684 176.166L337.003 176.178C338.712 176.233 340.859 176.208 343.046 176.168H343.364H343.407H343.682L344.548 176.152C344.611 176.721 344.618 177.575 344.628 178.469Z" fill="black"/>
<path d="M253.644 127.456C253.884 127.993 253.512 128.932 253.026 129.449C252.41 129.924 251.845 130.093 251.388 129.938C250.97 129.798 250.644 129.379 250.489 128.793C250.276 127.981 250.254 127.457 250.421 127.236C250.587 127.016 251.129 126.991 251.797 126.98C251.985 126.98 252.184 126.98 252.393 126.966C253.065 126.94 253.486 127.105 253.644 127.456Z" fill="black"/>
<path d="M24.3809 86.9366L24.6908 86.9552L24.3809 86.9366Z" fill="white"/>
<path d="M161.195 157.556C158.67 158.419 152.99 157.519 147.229 157.71C147.338 157.626 147.455 157.551 147.577 157.485C152.514 154.861 151.547 152.8 149.025 154.089C147.206 155.014 146.411 156.8 146.191 157.426C146.216 157.323 146.251 157.181 146.292 156.994C147.861 149.692 140.987 150.354 144.75 156.502C145.049 156.991 145.171 157.549 145.367 157.792C142.715 157.829 142.256 156.776 139.169 158.329C138.861 157.798 138.463 156.999 138.038 156.189L140.143 155.077C140.337 154.667 138.56 151.034 135.815 145.894C135.815 145.894 133.422 141.518 130.107 135.626H140.197V131.718H127.901C122.912 122.918 116.779 112.407 113.323 107.59C111.615 105.208 107.953 104.237 101.629 104.247C96.5918 104.258 86.09 104.311 75.5559 104.388C72.9331 98.2122 69.9802 90.8168 69.8184 90.4108L70.2611 90.5883V90.5682C70.5157 90.7225 71.139 91.0608 73.8096 91.933C101.806 101.089 90.5795 79.4736 76.9722 71.0515C71.7653 67.8294 60.9997 58.4855 53.6392 58.7233V57.7582C53.6376 57.5435 53.551 57.338 53.3982 57.187C53.2456 57.0359 53.0394 56.9515 52.8247 56.9524L48.6406 56.974C48.6328 56.3997 48.5465 55.853 48.528 55.3065C48.5018 54.5346 48.4647 53.6268 49.2639 52.9073C51.0982 51.2554 52.1952 49.5323 51.8866 46.4383C51.6089 43.6839 50.0229 39.7794 49.3163 36.4213L49.4351 36.375L49.3086 36.3842C49.2962 36.3286 49.2823 36.2715 49.2715 36.2175C47.6424 28.1026 33.0725 29.1648 34.9376 38.8422C34.9763 39.0383 35.1197 40.0232 35.3341 41.3371C35.2118 41.4298 35.1089 41.5456 35.0314 41.6782C34.9538 41.8106 34.9031 41.957 34.8821 42.109L35.4267 41.8945C35.6997 43.5311 36.0654 45.5335 36.465 47.1623C36.7828 48.4609 37.6359 49.858 37.9769 50.3011C39.2605 51.9686 39.3423 55.1645 39.4471 57.0234L34.8343 57.0466C34.6196 57.0481 34.4142 57.1348 34.2633 57.2877C34.1123 57.4405 34.0281 57.6468 34.029 57.8617V57.9467C29.5996 57.0635 25.0238 60.5714 20.4386 64.4729C17.4009 67.0573 13.2724 69.9708 11.529 71.5579C4.41064 78.0423 -4.13943 87.6286 3.04375 93.2006C6.3962 95.8021 11.1603 96.9755 16.1157 97.502C23.7895 97.5885 34.6106 97.7305 34.6106 97.7305L36.7072 106.812C36.7072 106.812 34.9098 126.894 54.5233 131.718H0.910081V135.628H87.9444C89.6585 146.556 89.8605 158.598 89.8605 169.749C89.8605 169.779 90.7615 169.713 92.1423 169.594C92.1161 170.289 92.0945 171.066 92.096 171.738C91.1703 171.79 90.3619 171.842 90.3666 171.883C90.5208 173.395 89.9886 185.7 90.8633 185.861C92.252 186.115 98.7161 186.573 99.2746 185.537C99.3873 185.328 99.7868 182.492 100.586 181.893C100.836 181.704 101.126 181.738 101.459 182.138C101.743 182.482 102.058 184.16 102.407 185.021C103.417 187.526 120.287 185.888 123.225 185.877C123.982 185.877 126.488 182.816 121.819 181.231C118.579 180.128 116.31 179.357 114.622 178.682L111.395 177.585C110.039 177.124 108.861 176.252 108.023 175.089C107.185 173.927 106.729 172.534 106.718 171.1L106.41 135.62H107.019L126.272 160.649C126.934 161.42 127.316 161.864 127.316 161.864L128.995 160.975C129.649 161.834 130.368 162.865 130.899 163.6C130.517 163.849 130.257 164.029 130.281 164.049C131.27 165.222 137.841 175.575 138.642 175.312C139.919 174.896 145.43 172.357 145.302 171.252C145.259 170.901 142.509 165.479 147.09 168.743C149.339 170.346 162.599 162.064 164.986 160.727C165.595 160.396 165.619 156.043 161.195 157.556ZM32.0156 83.9509H31.9801H31.9353H31.8814H31.8443C31.7056 83.9401 31.5357 83.9293 31.3337 83.9185H31.1532C30.5515 83.8938 29.7539 83.8783 28.8853 83.8691H28.8066H28.2219H27.9473H27.0972H26.4107H25.9972H25.357H24.4143H23.6075H23.3528C23.1461 83.8691 22.978 83.8691 22.8593 83.8599C22.7173 83.8599 22.6417 83.8491 22.6509 83.8414L22.691 83.8074C23.3313 83.8198 23.9052 83.8351 24.3788 83.8599L22.7451 83.7641C24.2183 82.5707 30.9217 78.3249 30.9356 77.3878L32.2393 84.0621C32.1739 84.0089 32.0975 83.9708 32.0156 83.9509ZM86.2473 125.906C86.3909 127.275 86.7103 128.993 87.1499 131.177C87.187 131.356 87.2209 131.538 87.2564 131.718H66.654C73.0751 130.628 79.8958 128.292 86.2473 125.906ZM146.654 157.733H146.743H146.654Z" fill="white"/>
<path d="M128.144 97.5375L128.452 92.7946C129.452 93.2316 130.575 93.6654 131.846 94.0991C135.191 95.2401 140.949 96.5942 141.597 96.8196C144.851 97.9543 140.239 91.9717 139.111 89.3424C137.215 84.919 130.185 76.3256 129.555 70.0279C128.98 64.2783 122.036 63.2655 120.984 68.4716C119.904 69.3872 118.562 70.9048 119.453 70.9048C119.762 70.9048 120.314 70.9233 120.908 70.9048C120.908 70.9264 120.908 70.9465 120.908 70.9667C122.071 81.1565 118.182 86.5833 125.299 91.1472C125.453 93.5743 125.822 97.4927 125.822 97.4927L125.348 91.1781C126.334 91.7919 127.366 92.3296 128.434 92.7869C128.306 94.3384 128.258 95.6138 128.162 97.289L128.144 97.5375Z" fill="white"/>
<path d="M140.244 183.044H140.877V174.734C140.658 174.838 140.446 174.933 140.244 175.024V183.044Z" fill="black"/>
<path d="M68.3739 131.718C67.798 131.833 67.2256 131.938 66.6568 132.035C65.9369 132.156 65.2205 132.259 64.5078 132.344H87.0509C87.0307 132.237 87.0091 132.132 86.9891 132.035C86.9691 131.938 86.9475 131.823 86.9259 131.718H68.3739Z" fill="black"/>
<path d="M103.006 168.99L102.686 169.014L102.378 169.04C100.32 169.193 97.7788 169.424 95.528 169.62L92.4423 169.888L92.1339 169.915L91.8254 169.941C91.8083 170.435 91.7944 170.953 91.793 171.44L92.1014 171.422L92.41 171.405L93.2184 171.363C93.8772 171.329 94.4989 171.298 94.6641 171.279C96.2438 171.115 98.6937 171.002 100.483 170.921C101.164 170.892 101.752 170.863 102.126 170.842L102.46 170.822L102.776 170.808L103.085 170.795C103.085 170.738 103.085 170.683 103.085 170.622C103.075 170.396 103.065 170.143 103.054 169.863C103.037 169.544 103.023 169.256 103.006 168.99Z" fill="black"/>
<path d="M132.329 162.333C132.846 162.007 133.333 161.7 133.457 161.612C135.802 159.939 137.468 158.869 138.745 158.2L139.026 158.055C139.123 158.005 139.217 157.96 139.31 157.916C139.131 157.586 138.924 157.188 138.711 156.778L138.475 156.324L138.196 156.478L137.915 156.633L129.476 161.1L129.192 161.255L128.91 161.41C129.373 162.017 129.836 162.688 130.249 163.262L130.454 163.55C130.53 163.501 130.609 163.441 130.718 163.377L130.985 163.204C131.312 162.972 131.749 162.691 132.329 162.333Z" fill="black"/>
<path d="M92.1476 169.276L92.4561 169.25L95.4599 168.99C97.7108 168.793 100.243 168.572 102.315 168.41L102.623 168.386L102.944 168.362C104.351 168.255 105.474 168.186 106.03 168.184C106.583 166.518 106.377 150.98 106.238 140.619C106.215 138.841 106.191 137.159 106.173 135.628C106.173 135.521 106.173 135.415 106.173 135.311C106.173 135.208 106.173 135.1 106.173 135.002V134.848C106.173 134.506 106.169 134.174 106.162 133.851C106.15 133.358 106.128 132.859 106.096 132.359L106.073 132.05C106.073 131.945 106.057 131.839 106.048 131.734C105.704 127.61 104.609 123.505 102.345 122.007C101.285 121.308 100.031 121.265 98.6088 121.877L98.5717 121.893H98.5315C97.3591 122.072 94.1007 123.239 92.7076 123.777L91.387 124.284C89.8304 124.887 88.2212 125.507 86.5781 126.126C86.7325 127.431 87.0317 129.06 87.4514 131.124C87.493 131.325 87.5317 131.527 87.5701 131.729C87.5917 131.834 87.6117 131.939 87.6335 132.046L87.6935 132.355C87.8602 133.227 88.0129 134.108 88.1565 134.998L88.2073 135.307L88.2583 135.623C89.9893 146.677 90.165 158.74 90.1682 169.424C90.4999 169.405 91.0939 169.36 91.8328 169.297L92.1476 169.276Z" fill="black"/>
<path d="M137.621 156.06L137.902 155.905L138.18 155.759L139.841 154.879C139.752 154.534 139.632 154.197 139.482 153.872C139.405 153.691 139.314 153.482 139.204 153.239C138.311 151.27 136.227 147.137 131.424 138.484C130.906 137.548 130.372 136.591 129.829 135.621L129.651 135.305L129.474 134.996C128.984 134.123 128.488 133.242 127.985 132.353L127.806 132.044L127.627 131.728C123.895 125.137 119.923 118.285 116.76 113.008C116.596 112.733 116.435 112.46 116.276 112.188C115.446 110.78 114.654 109.438 113.562 108.283C113.383 108.093 113.193 107.908 112.996 107.729C110.911 105.838 107.75 104.573 101.733 104.573H101.65C96.585 104.584 86.3657 104.635 76.0538 104.709H75.7097H75.3656C70.4087 104.745 65.4563 104.788 61.0718 104.834L61.0902 104.525L61.0996 104.371H60.9623L60.9113 104.217C60.6028 103.303 60.2495 102.313 59.8854 101.271C58.4969 97.2998 56.9186 92.7993 56.0284 89.5539C55.8341 88.8484 55.0905 86.7362 54.2929 84.513L69.5848 90.6532C70.0354 91.7818 72.6703 98.3589 75.0879 104.075H75.432H75.776C73.5992 98.9533 71.2187 93.0355 70.4056 91.0052C70.8252 91.2137 71.6893 91.5734 73.7257 92.2404C85.9368 96.2344 89.8678 94.1224 91.0156 91.6475C92.1155 89.2775 91.0635 85.4873 88.1306 81.246C85.369 77.2396 81.2575 73.3289 77.1445 70.7814C75.9473 70.0419 74.4708 68.9873 72.7614 67.766C69.1899 65.214 64.7467 62.0396 60.5225 60.1252C57.9986 58.9797 55.8202 58.4037 53.9596 58.3929V57.7569C53.9576 57.4591 53.838 57.1742 53.6271 56.9643C53.4161 56.7543 53.1309 56.6364 52.8334 56.6359L48.9563 56.656C48.944 56.4398 48.9255 56.2299 48.9069 56.0246C48.8838 55.7729 48.8622 55.5352 48.8545 55.2959V55.2804C48.8283 54.5331 48.8006 53.7596 49.4854 53.142C51.36 51.456 52.5387 49.6651 52.2086 46.4059C52.0542 44.7971 51.4602 42.8548 50.8401 40.7969C50.425 39.4182 49.9978 37.9977 49.6984 36.6669C49.609 36.6777 49.504 36.6885 49.3899 36.6977C49.2942 36.6977 49.1878 36.7101 49.069 36.7148C48.7774 36.7256 48.4133 36.7301 47.9582 36.7285H47.2546C45.6794 36.7285 42.3995 36.7085 41.5324 36.883C41.4322 36.903 41.318 36.9185 41.1854 36.9354C40.036 37.0899 39.0254 37.3724 39.1704 39.131C39.2553 40.1098 39.1335 40.7073 38.7755 41.0701C38.3251 41.5333 37.6338 41.473 36.8332 41.4129C36.702 41.4037 36.5678 41.3927 36.429 41.385C36.1795 41.3615 35.9278 41.3991 35.6961 41.4948C35.5868 41.5458 35.4895 41.6194 35.4107 41.7109C35.3038 41.8408 35.2335 41.997 35.2071 42.1632L35.1654 42.1555C35.4354 43.7565 35.7826 45.6695 36.1714 47.2365C36.5031 48.586 37.3716 50.0155 37.7419 50.4927C38.8773 51.9686 39.0254 54.7786 39.1304 56.6375C39.1304 56.6622 39.1304 56.6838 39.1304 56.707L34.8506 56.7286C34.6033 56.7313 34.3636 56.8153 34.1685 56.9675C33.9734 57.1198 33.8336 57.3321 33.7707 57.5716C29.3862 56.9108 24.8643 60.3074 20.2545 64.2305C18.7333 65.5243 16.9098 66.9231 15.3006 68.1567C13.6452 69.4274 12.215 70.5236 11.3372 71.3232C3.53383 78.4022 -0.162678 83.951 0.00548549 88.2926C0.0857101 90.3197 1.03761 92.0551 2.83649 93.4509C5.40522 95.447 8.79933 96.6111 12.4711 97.2921C9.10788 97.6349 5.79708 98.7419 3.72205 101.243C1.07772 104.42 0.79076 114.005 0.327926 129.884C0.247702 132.653 0.16285 135.513 0.0594837 138.592V183.057H0.692024V153.879H28.8215V183.044H29.4541V138.58C29.4541 137.919 29.4541 136.903 29.4309 135.621H87.6184C87.6029 135.515 87.5845 135.41 87.5674 135.305C87.5505 135.2 87.535 135.094 87.5182 134.996H29.4217C29.4109 134.195 29.3954 133.309 29.3754 132.353H55.4159C55.0689 132.297 54.7248 132.236 54.3854 132.165C54.1879 132.123 53.9935 132.081 53.8007 132.037C53.3821 131.939 52.9707 131.833 52.5664 131.72H29.3615C29.2736 127.706 29.1084 122.619 28.8138 117.67C27.9406 102.98 26.6153 100.263 25.6404 99.7454C25.2885 99.0907 23.826 98.5503 22.6535 98.2107C24.5634 98.2539 26.4133 98.2509 28.1272 98.2478C30.713 98.2478 32.9623 98.2385 34.7257 98.3836L36.1065 105.419L36.2608 105.364C36.3084 105.348 36.3568 105.335 36.4058 105.325C36.4768 105.308 36.5771 105.287 36.7144 105.26L35.3799 98.4361L31.3625 77.8618C31.3486 77.7383 31.2808 77.3986 30.9891 75.952L30.6513 74.2243V74.2814C30.4013 73.0354 30.156 71.7757 30.1546 71.5827H29.5219C29.5219 71.8915 29.8613 73.5898 30.3396 75.935C30.4414 76.4306 30.5432 76.9354 30.6189 77.3137C30.4537 77.9313 26.9039 80.383 24.9923 81.7077C23.9571 82.4256 23.0484 83.054 22.581 83.4276L21.1925 83.406C18.1394 83.3659 14.3394 83.3149 12.9016 82.8163L12.6933 83.4152C14.2284 83.9464 18.0853 83.9989 21.1786 84.0405C21.6306 84.0405 22.0625 84.0514 22.4699 84.0591C22.5871 84.1162 22.8325 84.1194 23.4573 84.1255C23.9602 84.1255 24.6576 84.1332 25.4428 84.1363C27.615 84.1363 31.1511 84.1548 31.9611 84.2582L34.593 97.7289C32.8328 97.5962 30.6342 97.6009 28.1134 97.6054C25.1975 97.6054 21.8867 97.6147 18.5635 97.3893C17.8555 97.3029 17.1103 97.235 16.3435 97.201C11.3634 96.6899 6.54995 95.5382 3.21447 92.9489C1.56987 91.6737 0.699736 90.0973 0.627225 88.2647C0.472948 84.181 4.2003 78.6384 11.7213 71.791C12.5791 71.0099 14 69.9213 15.6447 68.66C17.26 67.4248 19.0896 66.0183 20.6217 64.7138C23.2352 62.4905 26.2652 60.0202 29.1655 58.8468C30.7823 58.1984 32.2836 57.9854 33.6936 58.2092L33.7415 67.1732C33.7435 67.4709 33.863 67.7558 34.0739 67.9657C34.2849 68.1757 34.5702 68.2937 34.8677 68.2941L42.4983 68.2539L42.4458 68.2323L42.56 67.9374L42.6726 67.641C42.853 67.7105 43.029 67.7955 43.2034 67.8742L43.3236 67.9329L43.5412 68.0471C43.66 68.1104 43.7787 68.1752 43.896 68.2431L44.3419 68.501C45.4049 69.1186 46.5017 69.767 47.989 69.767V70.4C46.332 70.4 45.1056 69.682 44.0226 69.0491C43.7772 68.9054 43.5381 68.7666 43.3005 68.6369C43.2063 68.5858 43.1123 68.5365 43.0166 68.4824C42.9209 68.4284 42.8269 68.3899 42.7312 68.3465C42.6943 68.4092 42.6629 68.4747 42.6371 68.5426C42.3826 69.2282 42.688 70.1267 43.5628 71.2816C43.7016 71.3356 43.8713 71.4035 44.0765 71.4885L44.1259 71.5085L44.4714 71.6491C45.9001 72.228 48.2127 73.0941 50.459 73.0941H50.7891V73.7272H50.459C48.4071 73.7272 46.3367 73.0541 44.8633 72.492C44.635 72.4041 44.4221 72.3191 44.2246 72.2388L43.8358 72.0845L43.7648 72.0551C43.8405 72.3052 44.0842 72.6124 44.5471 73.0757C44.561 73.1112 44.5826 73.176 44.5995 73.23C44.8618 74.0236 45.6594 76.4367 49.8742 77.5669C51.0314 77.8757 56.1812 79.4381 57.0853 79.9059L53.867 83.4029C53.5461 82.512 53.2283 81.6367 52.9413 80.86C53.017 80.7057 52.9197 80.5173 52.7732 80.3969C52.3906 79.3408 52.0821 78.4902 52.0542 78.3898L51.7457 78.467L51.4371 78.4964C51.4371 78.5628 51.4371 78.5751 52.1839 80.6131C52.0774 80.8647 52.207 81.104 52.3381 81.0978H52.3567C52.6652 81.9301 53.017 82.9197 53.3811 83.9309L53.2422 84.0854L53.4674 84.1765C54.319 86.5433 55.1768 88.9626 55.3789 89.7006C56.2753 92.9676 57.8551 97.4788 59.2482 101.461C59.5876 102.426 59.9101 103.347 60.2063 104.203C60.2418 104.309 60.2789 104.414 60.3142 104.511C60.3497 104.609 60.3868 104.721 60.4223 104.82C53.6479 104.893 48.3223 104.975 46.6035 105.056C40.0545 105.365 37.6215 105.71 36.8023 105.862L36.6481 105.893C36.6481 106.187 36.6481 106.488 36.662 106.795C36.6804 107.514 36.7191 108.271 36.7807 109.054C37.4472 117.391 40.9292 128.712 54.4794 131.525C54.788 131.592 55.1136 131.649 55.4359 131.701C56.706 131.901 57.989 132.007 59.2745 132.018H60.0319C61.5055 131.995 62.9766 131.89 64.4382 131.701C71.3699 130.828 78.9171 128.285 85.8688 125.68L86.1774 125.566L86.486 125.452C88.072 124.853 89.6271 124.252 91.1329 123.672L92.4519 123.162C93.5658 122.733 97.017 121.471 98.3685 121.251C99.0289 120.956 99.7421 120.799 100.465 120.787C101.26 120.783 102.038 121.02 102.694 121.468C104.447 122.626 105.547 125.161 106.166 128.082C106.28 128.628 106.379 129.185 106.462 129.75C106.558 130.403 106.632 131.064 106.687 131.725C106.687 131.83 106.704 131.936 106.712 132.041L106.735 132.35C106.767 132.855 106.789 133.357 106.801 133.852C106.809 134.174 106.812 134.494 106.812 134.811V134.831C106.814 134.883 106.821 134.935 106.832 134.985C106.856 135.091 106.889 135.194 106.929 135.294C106.966 135.39 107.013 135.496 107.067 135.611C107.668 136.874 109.293 139.202 111.478 142.075C111.683 142.345 111.894 142.621 112.11 142.901C114.498 146.006 117.446 149.647 120.424 153.228C120.6 153.44 120.774 153.651 120.95 153.862C123.175 156.529 125.396 159.145 127.394 161.457L128.519 160.862L128.803 160.707L129.087 160.553L137.621 156.06ZM67.1473 88.697V88.7372C67.1021 88.8003 67.0711 88.8725 67.0562 88.9487L57.4186 85.0719C57.727 84.8511 58.2007 84.3479 59.168 83.2872C59.7234 82.6696 60.3513 81.9871 60.5719 81.8359C62.1425 80.755 63.8024 78.538 65.137 76.7579C65.9316 75.6972 66.6798 74.6921 67.158 74.2969C69.81 75.6122 73.3632 77.2705 74.2193 77.4156C74.2193 77.5824 74.3166 77.709 74.4137 77.7043C75.7868 77.6456 74.5278 76.412 74.3212 77.0604L74.3058 76.795C73.596 76.7563 65.8359 73.057 64.5477 72.2172L64.324 72.0721L63.5525 72.9043L63.4677 72.7792C63.3875 72.6572 63.2718 72.6248 63.1113 72.5924C61.2383 72.1585 59.4024 70.3644 57.6467 67.2658C57.5543 67.1021 57.3213 66.4862 57.0745 65.8361C56.5345 64.4126 55.8618 62.6403 55.3774 62.0165C55.0689 61.6058 54.7448 61.3989 54.407 61.3649C54.2556 61.3537 54.1038 61.3808 53.9657 61.4438L53.9519 59.0429C58.0495 59.0645 63.2224 62.0041 67.8168 65.0889C67.7938 65.1206 67.7766 65.1561 67.7659 65.1939V65.2371C67.5623 65.5243 67.7089 65.8377 67.8631 65.83C68.2766 65.8131 68.4494 65.6879 68.4802 65.5412C69.8563 66.4784 71.1708 67.4187 72.3788 68.2802C74.0974 69.5154 75.5816 70.5684 76.7973 71.3202C80.8456 73.8244 84.8862 77.6672 87.606 81.5996C90.4124 85.6493 91.4491 89.2143 90.4463 91.3743C88.9761 94.5439 83.1089 94.635 73.9262 91.632C71.0767 90.7057 70.5984 90.3969 70.3948 90.2657C70.2416 90.1608 70.0642 90.0966 69.8795 90.0788H69.844L67.7242 89.2251C68.2272 88.9147 67.3138 88.1412 67.1473 88.697ZM28.8215 138.586V153.245H0.693564V138.597C0.727504 137.585 0.759905 136.599 0.79076 135.628H28.7983C28.8138 136.908 28.8215 137.925 28.8215 138.586ZM28.7891 134.995H0.931154V132.351H28.7428C28.763 133.307 28.7783 134.193 28.7891 134.995ZM21.3838 98.5226C24.0358 99.1402 25.0417 99.8287 25.0941 100.046L25.1327 100.216L25.2993 100.273C25.8687 100.471 27.2896 102.564 28.1874 117.701C28.4821 122.642 28.6502 127.715 28.7351 131.718H0.909553C0.927037 131.101 0.944526 130.494 0.96201 129.897C1.40942 114.695 1.70408 104.652 4.20185 101.643C6.92176 98.3728 11.9497 97.6286 16.288 97.8339C17.0244 97.9101 17.7624 97.9729 18.5019 98.0224C19.4686 98.1379 20.4285 98.3049 21.3777 98.5226H21.3838ZM25.4583 83.5048H24.7115C24.403 83.4832 24.0265 83.4678 23.613 83.4555C24.076 83.1172 24.6931 82.6943 25.3595 82.2326C28.2831 80.2071 30.0094 78.9548 30.7778 78.1458L31.8469 83.619C31.0987 83.5481 29.4217 83.5171 25.4521 83.5048H25.4583ZM34.8893 67.6704C34.7585 67.6708 34.6328 67.6194 34.5397 67.5274C34.4466 67.4354 34.3937 67.3103 34.3925 67.1794L34.3462 58.3513V58.0162V57.8619C34.3464 57.8055 34.3563 57.7496 34.3755 57.6966C34.4092 57.6004 34.4716 57.5168 34.5546 57.4574C34.6373 57.398 34.7365 57.3656 34.8384 57.3646L39.1582 57.343H39.4744H39.7922L48.3315 57.2983H48.9624L52.8379 57.2782C52.9683 57.2787 53.0931 57.3304 53.1855 57.4223C53.278 57.5141 53.3305 57.6388 53.3316 57.7692V58.4222V59.0737L53.3456 61.6368L53.2761 61.6568L53.3471 61.9485L53.3656 65.4996C53.3013 65.6683 53.2141 65.8272 53.1064 65.9721C52.8148 66.3581 52.3967 66.5542 51.8274 66.5742C50.479 66.6221 47.8441 65.8439 45.7273 65.2187C44.4143 64.8326 43.2789 64.4976 42.5291 64.3663C41.5403 64.1949 41.0836 64.6751 40.9863 65.1384C40.8321 65.9519 41.5679 66.991 43.08 67.6317L34.8893 67.6704ZM64.4412 72.8935C64.85 73.125 65.6199 73.5264 66.5564 73.9958C66.0487 74.493 65.4055 75.3513 64.6356 76.3796C63.3289 78.1227 61.7043 80.2919 60.2187 81.3202C59.9564 81.5008 59.4719 82.0242 58.7052 82.8642C58.1097 83.5187 57.2102 84.5069 56.985 84.6088C57.0141 84.5983 57.0452 84.5946 57.076 84.598L57.0498 84.9252L54.3684 83.8445L64.4412 72.8935ZM41.0789 36.3102C41.1992 36.2933 41.3041 36.2793 41.3875 36.2639C42.3132 36.074 45.519 36.0864 47.2393 36.094H47.9412C48.3469 36.094 48.6633 36.094 48.9132 36.0832C49.0366 36.0832 49.1431 36.0756 49.2355 36.0709C49.3699 36.0632 49.4732 36.054 49.5535 36.0446C48.6092 31.6831 44.0473 29.869 40.1424 30.6409C36.9813 31.2585 33.6381 33.8029 34.6239 38.9009C34.6409 38.9843 34.6809 39.2452 34.7366 39.608C34.7998 40.014 34.8908 40.5699 34.9911 41.2121C35.0761 41.1278 35.1716 41.0547 35.2749 40.9944C35.3701 40.9391 35.4703 40.8931 35.5743 40.857C35.8564 40.7663 36.1533 40.7307 36.449 40.7521L36.8625 40.7814C37.5336 40.8324 38.0628 40.8725 38.3065 40.6271C38.5148 40.417 38.5874 39.9323 38.5209 39.1881C38.2988 36.6792 40.2458 36.4197 41.0789 36.3102Z" fill="black"/>
<path d="M50.7632 62.9349C50.8367 63.0067 50.9257 63.0602 51.0234 63.0916C51.1213 63.1229 51.2249 63.1311 51.3263 63.1155C51.4952 63.0993 51.6524 63.022 51.7684 62.8981C51.8842 62.7742 51.9508 62.612 51.9558 62.4424C51.9558 62.4347 51.9558 62.4284 51.9558 62.4223C51.9481 62.3196 51.9105 62.2214 51.8477 62.1397C51.7571 62.0236 51.6281 61.9436 51.4837 61.9143C51.337 61.8857 51.1852 61.9018 51.0476 61.9605C50.9101 62.019 50.7934 62.1175 50.7123 62.2431C50.6439 62.349 50.6109 62.4739 50.6182 62.5998C50.6182 62.6183 50.6258 62.6338 50.629 62.6522C50.6446 62.7578 50.6913 62.8562 50.7632 62.9349Z" fill="black"/>
<path d="M161.295 157.855C159.73 158.391 157.041 158.274 153.924 158.139C151.882 158.049 149.604 157.954 147.337 158.025L147.352 158.013C147.469 157.919 147.594 157.836 147.726 157.762L147.855 157.693C148.055 157.583 148.248 157.475 148.43 157.369C151.085 155.814 151.67 154.522 151.327 153.855C151 153.238 150.042 153.212 148.879 153.809C148.064 154.237 147.358 154.848 146.82 155.595C146.996 153.292 146.225 151.996 145.397 151.564C145.14 151.415 144.84 151.356 144.545 151.4C144.251 151.444 143.981 151.588 143.779 151.807C143.115 152.519 142.953 154.169 144.487 156.67C144.616 156.891 144.724 157.124 144.812 157.365C144.827 157.4 144.842 157.434 144.856 157.47C144.903 157.583 144.95 157.693 145.001 157.792C145.06 157.914 145.145 158.024 145.251 158.112C144.59 158.108 143.93 158.045 143.281 157.924C142.509 157.799 141.863 157.697 140.869 157.983C140.673 158.04 140.463 158.111 140.237 158.2C140.047 158.275 139.845 158.364 139.629 158.466C139.536 158.508 139.44 158.555 139.342 158.604L139.061 158.747C137.827 159.395 136.181 160.447 133.825 162.128C133.684 162.226 133.234 162.51 132.665 162.868C132.287 163.107 131.782 163.424 131.355 163.698C131.261 163.758 131.171 163.815 131.088 163.87L130.823 164.045L130.721 164.115C131.122 164.652 131.848 165.726 132.726 167.028C134.525 169.686 137.847 174.593 138.606 175.003C138.947 174.885 139.532 174.642 140.234 174.323C140.439 174.231 140.65 174.132 140.866 174.026C141.347 173.796 141.852 173.542 142.345 173.273C144.518 172.097 144.982 171.468 144.982 171.312C144.965 171.255 144.898 171.089 144.839 170.94C144.293 169.586 143.77 168.098 144.445 167.565C144.942 167.173 145.813 167.46 147.268 168.491C147.682 168.787 149.141 168.899 154.28 166.354C157.596 164.714 161.182 162.597 163.324 161.332C163.973 160.95 164.489 160.646 164.811 160.464C164.966 160.29 165.099 159.228 164.597 158.419C164.031 157.508 162.888 157.312 161.295 157.855ZM144.242 152.239C144.349 152.122 144.495 152.047 144.653 152.026C144.81 152.006 144.969 152.041 145.104 152.127C145.742 152.459 146.646 153.846 145.982 156.928C145.944 157.104 145.912 157.237 145.888 157.335C145.873 157.379 145.86 157.42 145.85 157.458C145.831 157.521 145.819 157.585 145.81 157.649L145.713 157.525C145.684 157.549 145.651 157.571 145.618 157.59C145.591 157.554 145.567 157.514 145.549 157.473C145.499 157.372 145.445 157.238 145.394 157.129C145.292 156.854 145.167 156.59 145.019 156.337C143.764 154.279 143.721 152.796 144.242 152.239ZM146.023 158.084C146.059 158.059 146.088 158.037 146.108 158.02L146.07 157.971H146.128C146.283 157.971 146.361 157.914 146.428 157.744C146.458 157.666 146.483 157.586 146.502 157.505C146.512 157.48 146.521 157.453 146.531 157.424C146.778 156.786 147.527 155.214 149.168 154.375C150.05 153.921 150.662 153.953 150.764 154.15C150.928 154.458 150.317 155.672 147.429 157.205C147.322 157.264 147.219 157.328 147.121 157.399L146.966 157.512C146.923 157.548 146.879 157.581 146.832 157.61C146.861 157.6 146.891 157.596 146.92 157.599C146.95 157.602 146.979 157.612 147.004 157.627L146.732 157.73L146.439 157.842C146.466 157.919 146.504 157.993 146.554 158.058C146.377 158.059 146.199 158.074 146.023 158.084Z" fill="black"/>
<path d="M121.711 181.527C116.641 179.806 113.946 178.875 112.11 177.889C111.886 177.771 111.676 177.65 111.478 177.528C110.413 176.878 109.626 176.162 108.724 175.156L108.773 175.133L109.026 175.018L109.325 174.878C110.075 174.525 110.795 174.112 111.478 173.643V176.769C111.676 176.901 111.886 177.03 112.11 177.16V173.145C112.942 172.423 113.298 171.744 113.063 171.211C112.938 170.926 112.631 170.707 112.11 170.695V153.866H120.132L119.606 153.234H112.11V143.954C111.891 143.673 111.68 143.4 111.478 143.136V170.772C111.179 170.842 110.888 170.938 110.607 171.062C109.707 171.464 108.9 172.047 108.235 172.774C108.801 170.458 108.319 169.068 107.573 168.517C107.318 168.318 107 168.22 106.678 168.238C106.559 168.246 106.441 168.27 106.329 168.311C106.202 168.356 106.082 168.419 105.973 168.497L105.928 168.53C105.818 168.615 105.718 168.713 105.632 168.822C105.277 169.263 105.027 169.969 105.044 170.933C105.044 171.039 105.044 171.147 105.06 171.26C105.075 171.372 105.08 171.487 105.095 171.606C104.589 171.424 103.99 171.392 103.111 171.422L102.802 171.434L102.494 171.451L102.176 171.47C101.797 171.493 101.207 171.52 100.524 171.549C98.7418 171.632 96.3027 171.743 94.7414 171.906C94.5594 171.927 93.987 171.956 93.2619 171.993L92.4211 172.037L92.1125 172.054L91.804 172.072C91.3642 172.097 90.9631 172.124 90.7239 172.146C90.7518 172.809 90.7363 174.119 90.7239 175.716C90.687 178.902 90.6176 184.779 91.0325 185.561C92.4856 185.757 93.9495 185.861 95.4156 185.869C98.5351 185.894 98.9747 185.464 99.0226 185.398C99.0441 185.332 99.0889 185.121 99.1291 184.934C99.4176 183.597 99.7801 182.129 100.428 181.645C100.57 181.534 100.743 181.473 100.922 181.47C101.152 181.47 101.436 181.579 101.735 181.94C101.929 182.175 102.079 182.7 102.309 183.535C102.446 184.035 102.588 184.549 102.731 184.909C102.9 185.322 103.983 186.027 109.365 186.095C112.929 186.142 117.042 185.898 120.048 185.72C121.51 185.634 122.67 185.565 123.26 185.565C123.46 185.555 124.171 184.927 124.283 184.095C124.381 183.026 123.508 182.145 121.711 181.527ZM112.485 171.471C112.536 171.589 112.452 171.866 112.11 172.257V171.331C112.329 171.346 112.454 171.406 112.485 171.476V171.471ZM110.857 171.646C111.057 171.558 111.264 171.484 111.474 171.427V172.851C110.673 173.465 109.802 173.982 108.881 174.396C108.784 174.441 108.685 174.487 108.582 174.532L108.511 174.565C108.429 174.602 108.356 174.642 108.288 174.679C108.164 174.535 108.034 174.384 107.903 174.228C107.96 174.143 108.02 174.053 108.088 173.958C108.156 173.864 108.215 173.789 108.284 173.701C108.957 172.811 109.842 172.105 110.857 171.646ZM105.726 171.554C105.707 171.422 105.695 171.295 105.686 171.171C105.61 170.1 105.882 169.364 106.312 169.036C106.435 168.93 106.59 168.872 106.751 168.871C106.912 168.868 107.068 168.923 107.193 169.024C107.664 169.378 108.176 170.55 107.562 172.845C107.529 172.965 107.496 173.084 107.458 173.208C107.421 173.331 107.386 173.441 107.344 173.563C106.709 172.821 106.252 172.318 105.802 171.99C105.772 171.842 105.746 171.696 105.726 171.555V171.554Z" fill="black"/>
<path d="M128.711 93.2454C129.62 93.6313 130.627 94.0174 131.743 94.3941C134.046 95.18 137.536 96.0785 139.622 96.6158C140.56 96.8567 141.3 97.0481 141.492 97.1145C141.739 97.2075 141.999 97.2597 142.264 97.2689C142.381 97.2768 142.499 97.2573 142.609 97.2121C142.718 97.1668 142.816 97.097 142.894 97.0079C143.459 96.3178 142.533 94.6782 140.978 92.0581C140.336 90.9774 139.728 89.9538 139.409 89.208C138.758 87.6903 137.558 85.7496 136.151 83.4955C133.537 79.2992 130.288 74.0776 129.876 69.98C129.654 67.7613 128.452 65.9658 126.662 65.163C125.188 64.5053 123.592 64.6364 122.394 65.5165C121.533 66.148 120.962 67.1037 120.697 68.2957C119.796 69.0676 118.774 70.1791 118.845 70.7535C118.874 70.9712 119.049 71.2029 119.447 71.2029H119.755H120.249C120.374 71.2029 120.498 71.2029 120.621 71.2029C120.967 74.408 120.814 77.1238 120.678 79.5261C120.39 84.5933 120.189 88.1581 124.998 91.3032C125.127 93.3103 125.39 96.1973 125.481 97.17C121.587 97.3059 117.54 98.331 115.144 101.22C114.218 102.336 113.578 104.246 113.123 106.942C113.318 107.107 113.506 107.278 113.686 107.453C114.124 104.673 114.737 102.699 115.632 101.624C119.553 96.9091 128.27 97.4464 132.801 98.5055C135.453 99.1231 136.459 99.8118 136.504 100.029L136.542 100.199L136.708 100.256C137.277 100.454 138.698 102.548 139.597 117.684C139.89 122.625 140.06 127.698 140.145 131.701H128.352L128.531 132.018L128.71 132.327H139.886V134.97H130.197L130.374 135.279L130.552 135.595H140.213C140.23 136.877 140.236 137.893 140.236 138.553V153.212H139.884C139.989 153.454 140.075 153.664 140.148 153.846H140.236V154.075C140.557 154.932 140.486 155.081 140.438 155.182L140.393 155.276L140.239 155.359V157.487C140.466 157.404 140.674 157.332 140.871 157.288V138.586C140.871 135.764 140.757 126.5 140.233 117.663C139.36 102.972 138.034 100.255 137.059 99.7376C136.597 98.8622 134.128 98.1936 133.036 97.9297C131.538 97.5814 130.014 97.3528 128.48 97.2458C128.506 96.7825 128.529 96.3579 128.551 95.9442C128.597 95.0147 128.642 94.1686 128.711 93.2454ZM119.763 70.5868H119.499C119.604 70.3043 120.052 69.7808 120.553 69.2868C120.667 69.1742 120.785 69.0629 120.902 68.9549C121.019 68.8467 121.152 68.7309 121.272 68.6306C121.464 68.4615 121.671 68.3096 121.889 68.1767C121.988 68.2694 122.087 68.3573 122.184 68.4439C122.58 68.799 122.924 69.1047 123.109 69.5617C123.216 69.821 123.162 69.9492 123.109 70.0248C122.864 70.386 122.005 70.5234 121.181 70.5713L120.863 70.5868L120.555 70.5945C120.244 70.5929 119.964 70.59 119.765 70.5868H119.763ZM126.113 97.1732C126.035 96.321 125.797 93.7194 125.65 91.7324C126.439 92.1931 127.253 92.609 128.088 92.9783C128.008 93.9957 127.96 94.902 127.908 95.9117C127.884 96.3239 127.863 96.7517 127.837 97.2087C127.284 97.1778 126.7 97.1655 126.115 97.1732H126.113Z" fill="black"/>
<path d="M17.5275 78.459C17.5087 78.5383 17.4943 78.6188 17.4844 78.6999C17.4844 79.3421 18.4733 79.1476 18.2882 78.5547C18.1602 78.144 17.634 78.2443 17.5275 78.459Z" fill="black"/>
<path d="M28.9709 71.0018C28.9517 71.0812 28.9374 71.1616 28.9277 71.2426C28.9277 71.885 29.9151 71.6904 29.7316 71.0976C29.6035 70.6869 29.0774 70.7872 28.9709 71.0018Z" fill="black"/>
<path d="M69.1367 74.542C69.1162 74.6212 69.1013 74.7018 69.0918 74.7829C69.0918 75.4252 70.0808 75.2307 69.8957 74.6394C69.7676 74.2271 69.243 74.3275 69.1367 74.542Z" fill="black"/>
<path d="M57.8596 89.2991C57.8405 89.3791 57.8261 89.46 57.8164 89.5415C57.8164 90.1823 58.8037 89.9878 58.6201 89.3965C58.4952 88.9858 57.9691 89.0861 57.8596 89.2991Z" fill="black"/>
<path d="M68.074 97.8263C68.0536 97.9058 68.0385 97.9869 68.0293 98.0686C68.0293 98.7109 69.0182 98.5148 68.833 97.9235C68.7049 97.5128 68.1788 97.6131 68.074 97.8263Z" fill="black"/>
<path d="M44.1144 83.7333C43.9863 83.3226 43.4602 83.4245 43.3553 83.6375C43.335 83.7168 43.3201 83.7972 43.3105 83.8784C43.3105 84.5207 44.2996 84.3261 44.1144 83.7333Z" fill="black"/>
<path d="M16.1632 93.1759C16.0352 92.7636 15.509 92.8671 15.4025 93.0785C15.3837 93.1584 15.3692 93.2394 15.3594 93.321C15.3594 93.9617 16.3561 93.7672 16.1632 93.1759Z" fill="black"/>
<path d="M45.1496 75.6338C45.0215 75.2231 44.4954 75.325 44.389 75.5382C44.37 75.6175 44.3555 75.6979 44.3457 75.779C44.3457 76.4212 45.3347 76.2314 45.1496 75.6338Z" fill="black"/>
<path d="M47.8429 99.3439C47.7148 98.9332 47.1887 99.0351 47.0838 99.2481C47.0635 99.3273 47.0486 99.4079 47.0391 99.489C47.0391 100.131 48.0281 99.9368 47.8429 99.3439Z" fill="black"/>
<path d="M21.1885 88.7361C21.0604 88.3239 20.5344 88.4274 20.4279 88.6389C20.409 88.7183 20.3946 88.7987 20.3848 88.8797C20.3848 89.522 21.3721 89.3275 21.1885 88.7361Z" fill="black"/>
<path d="M25.1658 77.6916V77.7333C24.9622 78.0205 25.1103 78.3339 25.2631 78.3277C26.6392 78.269 25.3649 77.0262 25.1658 77.6916Z" fill="black"/>
<path d="M84.3501 82.035C85.7294 81.9763 84.4551 80.7334 84.256 81.3989V81.4405C84.0492 81.7277 84.1974 82.0412 84.3501 82.035Z" fill="black"/>
<path d="M7.10769 85.8625V85.9057C6.90405 86.1929 7.05061 86.5063 7.20334 86.4986C8.58105 86.4399 7.30672 85.1971 7.10769 85.8625Z" fill="black"/>
<path d="M71.3602 84.1532C72.7379 84.0946 71.4636 82.8518 71.2646 83.5171V83.5589C71.0594 83.846 71.2075 84.1594 71.3602 84.1532Z" fill="black"/>
<path d="M55.7717 98.7943V98.8359C55.5681 99.1231 55.7146 99.4365 55.8688 99.4304C57.242 99.3717 55.9706 98.1288 55.7717 98.7943Z" fill="black"/>
<path d="M22.7112 84.1267V84.1684C22.5074 84.4556 22.6541 84.7691 22.8083 84.7628C24.1844 84.7026 22.9101 83.4597 22.7112 84.1267Z" fill="black"/>
<path d="M58.824 92.3468V92.3886C58.6204 92.6757 58.7685 92.9892 58.9213 92.9829C60.2974 92.9244 59.0231 91.6815 58.824 92.3468Z" fill="black"/>
<path d="M16.1639 72.2508V72.2925C15.9603 72.5797 16.1084 72.8932 16.261 72.8869C17.6357 72.8282 16.3583 71.5854 16.1639 72.2508Z" fill="black"/>
<path d="M85.9958 87.0034C87.375 86.9447 86.1007 85.7018 85.9018 86.3672V86.4105C85.6966 86.6976 85.8431 87.011 85.9958 87.0034Z" fill="black"/>
<path d="M27.6072 64.7937V64.8354C27.4036 65.1226 27.5517 65.4359 27.7044 65.4298C29.0791 65.3711 27.8048 64.1283 27.6072 64.7937Z" fill="black"/>
<path d="M41.9885 77.4295V77.4664C41.7848 77.7536 41.9314 78.0671 42.0857 78.0608C43.4619 78.0068 42.1876 76.764 41.9885 77.4295Z" fill="black"/>
<path d="M29.2118 87.251C30.5894 87.1924 29.3151 85.9495 29.1162 86.6148V86.6566C28.911 86.9438 29.0591 87.2572 29.2118 87.251Z" fill="black"/>
<path d="M9.26583 91.0439V91.0856C9.06218 91.3727 9.20875 91.6862 9.36302 91.6799C10.7392 91.6214 9.46639 90.3785 9.26583 91.0439Z" fill="black"/>
<path d="M39.1806 79.2249V79.2667C38.9755 79.5538 39.1236 79.8673 39.2762 79.8612C40.6525 79.8025 39.3796 78.5596 39.1806 79.2249Z" fill="black"/>
<path d="M41.8714 102.941V102.983C41.6676 103.27 41.8143 103.584 41.9685 103.577C43.3446 103.512 42.0703 102.27 41.8714 102.941Z" fill="black"/>
<path d="M38.6533 72.4778V72.521C38.4481 72.8082 38.5962 73.1217 38.7489 73.1139C40.1267 73.0552 38.8522 71.8062 38.6533 72.4778Z" fill="black"/>
<path d="M41.3518 93.0494V93.091C41.1481 93.3782 41.2947 93.6916 41.4489 93.6855C42.8189 93.6252 41.5446 92.3824 41.3518 93.0494Z" fill="black"/>
<path d="M34.3686 79.0626L34.4086 79.0765C34.6323 79.3482 34.9718 79.2881 35.0073 79.1399C35.3128 77.7889 33.7792 78.6921 34.3686 79.0626Z" fill="black"/>
<path d="M64.1723 92.4889C64.396 92.7622 64.7369 92.7019 64.7709 92.5522C65.0794 91.2059 63.5368 92.1091 64.1322 92.4766L64.1723 92.4889Z" fill="black"/>
<path d="M78.9271 91.0176L78.9673 91.0299C79.191 91.3032 79.5319 91.243 79.5659 91.0932C79.8713 89.7469 78.3378 90.6501 78.9271 91.0176Z" fill="black"/>
<path d="M21.6863 72.328C21.2837 72.4114 21.5136 73.5139 22.2063 72.9456C22.4315 72.7634 22.4315 72.1737 21.6863 72.328Z" fill="black"/>
<path d="M81.2951 76.6544C81.5203 76.4707 81.5219 75.8825 80.7767 76.0368C80.3739 76.1187 80.6023 77.221 81.2951 76.6544Z" fill="black"/>
<path d="M61.6634 72.1782C61.2607 72.2617 61.489 73.3655 62.1818 72.7958C62.407 72.6137 62.4086 72.0239 61.6634 72.1782Z" fill="black"/>
<path d="M58.3216 81.1719C58.5469 80.9866 58.5469 80.4 57.8018 80.5543C57.3959 80.6315 57.6258 81.7354 58.3216 81.1719Z" fill="black"/>
<path d="M88.3106 90.5637C88.5358 90.3799 88.5374 89.7916 87.7923 89.9461C87.3896 90.0264 87.6179 91.1303 88.3106 90.5637Z" fill="black"/>
<path d="M58.6302 66.1848C58.2275 66.2681 58.4558 67.3721 59.1486 66.8024C59.3738 66.6202 59.3754 66.0303 58.6302 66.1848Z" fill="black"/>
<path d="M64.7012 102.734C64.9266 102.549 64.9281 101.962 64.1829 102.117C63.7802 102.197 64.0085 103.299 64.7012 102.734Z" fill="black"/>
<path d="M46.4533 86.9601C46.6785 86.7749 46.6801 86.1881 45.9349 86.3425C45.5321 86.4213 45.7605 87.5268 46.4533 86.9601Z" fill="black"/>
<path d="M35.6434 83.2978C35.2407 83.3812 35.4706 84.4837 36.1633 83.9154C36.3901 83.7332 36.3901 83.1435 35.6434 83.2978Z" fill="black"/>
<path d="M44.1144 83.7333C43.9863 83.3226 43.4602 83.4245 43.3553 83.6375C43.335 83.7168 43.3201 83.7972 43.3105 83.8784C43.3105 84.5207 44.2996 84.3261 44.1144 83.7333Z" fill="black"/>
<path d="M41.3518 93.0494V93.091C41.1481 93.3782 41.2947 93.6916 41.4489 93.6855C42.8189 93.6252 41.5446 92.3824 41.3518 93.0494Z" fill="black"/>
<path d="M46.4533 86.9601C46.6785 86.7749 46.6801 86.1881 45.9349 86.3425C45.5321 86.4213 45.7605 87.5268 46.4533 86.9601Z" fill="black"/>
<path d="M35.6434 83.2978C35.2407 83.3812 35.4706 84.4837 36.1633 83.9154C36.3901 83.7332 36.3901 83.1435 35.6434 83.2978Z" fill="black"/>
<path d="M16.1809 85.209C15.7783 85.2923 16.0066 86.3963 16.6993 85.8266C16.9245 85.6444 16.9261 85.0545 16.1809 85.209Z" fill="black"/>
<path d="M26.4149 69.847C26.6401 69.6633 26.6401 69.075 25.8964 69.2294C25.4923 69.3097 25.7221 70.4167 26.4149 69.847Z" fill="black"/>
<path d="M68.3054 78.7726C68.5308 78.5889 68.5308 78.0007 67.7871 78.155C67.3828 78.2385 67.6127 79.3393 68.3054 78.7726Z" fill="black"/>
<path d="M52.8127 94.0498C53.0379 93.8661 53.0395 93.2779 52.2942 93.4322C51.8915 93.5125 52.1199 94.6164 52.8127 94.0498Z" fill="black"/>
<path d="M28.4677 90.3333C28.065 90.4166 28.2948 91.5206 28.9875 90.9508C29.2127 90.7733 29.2127 90.1789 28.4677 90.3333Z" fill="black"/>
<path d="M80.5918 83.9001C80.817 83.7164 80.8186 83.1281 80.0735 83.2825C79.6708 83.3628 79.8992 84.4667 80.5918 83.9001Z" fill="black"/>
<path d="M304.459 17.0487C304.625 16.8317 304.77 16.6452 304.783 16.6376L304.459 17.0487Z" fill="white"/>
<path d="M304.795 20.5783L305.462 20.2871C305.244 20.4079 305.021 20.5051 304.795 20.5783Z" fill="white"/>
<path d="M304.65 23.1347L303.947 23.007C304.183 23.02 304.417 23.0628 304.65 23.1347Z" fill="white"/>
<path d="M304.65 23.1348L305.278 23.2432C305.068 23.2327 304.858 23.1964 304.65 23.1348Z" fill="white"/>
</g>
<defs>
<clipPath id="clip0_924_10">
<rect width="355" height="189" fill="white"/>
</clipPath>
</defs>
</svg>
