<svg width="80" height="17" viewBox="0 0 80 17" fill="none" xmlns="http://www.w3.org/2000/svg">
<path d="M16.2131 0.599999C16.3158 0.599999 16.4404 0.775999 16.5871 1.128C16.7338 1.46533 16.8878 1.92733 17.0491 2.514C17.2251 3.10067 17.4084 3.77533 17.5991 4.538C17.8044 5.30067 18.0024 6.10733 18.1931 6.958C18.3984 7.794 18.5964 8.63 18.7871 9.466C18.9778 10.302 19.1538 11.1013 19.3151 11.864C19.4764 12.6267 19.6158 13.3013 19.7331 13.888C19.8651 14.4747 19.9678 14.944 20.0411 15.296C20.1144 15.6333 20.1511 15.802 20.1511 15.802L15.7071 16.066C15.1498 11.3287 14.7831 8.90133 14.6071 8.784C14.5778 8.76933 14.4898 8.85733 14.3431 9.048C14.1964 9.23867 14.0131 9.488 13.7931 9.796C13.5731 10.104 13.3311 10.4487 13.0671 10.83C12.8031 11.2113 12.5318 11.5927 12.2531 11.974C11.9744 12.3553 11.7104 12.7073 11.4611 13.03C11.2118 13.338 10.9918 13.5947 10.8011 13.8C10.6104 13.9907 10.4711 14.086 10.3831 14.086C10.2658 14.086 10.0018 13.8073 9.5911 13.25C9.18044 12.678 8.76244 12.0547 8.3371 11.38C7.91177 10.7053 7.50844 10.0893 7.1271 9.532C6.74577 8.97467 6.51844 8.70333 6.4451 8.718C6.32777 8.74733 6.1151 9.39267 5.8071 10.654C5.4991 11.9007 5.22044 13.1473 4.9711 14.394L4.6191 16.242L0.527102 15.648C3.0351 5.616 4.5531 0.599999 5.0811 0.599999C5.22777 0.599999 5.50644 0.856666 5.9171 1.37C6.34244 1.86867 6.7971 2.48467 7.2811 3.218C7.77977 3.93667 8.26377 4.65533 8.7331 5.374C9.20244 6.09267 9.59844 6.70867 9.9211 7.222L10.3831 7.97C13.7124 3.05667 15.6558 0.599999 16.2131 0.599999ZM27.9707 0.577999C28.2934 0.680666 29.0927 1.326 30.3687 2.514C31.6447 3.702 32.8547 4.92667 33.9987 6.188C35.1427 7.44933 35.7147 8.19733 35.7147 8.432C35.7147 8.68133 35.1427 9.45133 33.9987 10.742C32.8547 12.0327 31.6447 13.2793 30.3687 14.482C29.0927 15.67 28.2934 16.264 27.9707 16.264C27.7361 16.2787 27.1714 15.9267 26.2767 15.208C25.3967 14.4747 24.4874 13.6533 23.5487 12.744C22.6247 11.82 21.8181 10.9327 21.1287 10.082C20.4394 9.21667 20.1461 8.66667 20.2487 8.432C20.3954 8.09467 21.0261 7.27333 22.1407 5.968C23.2554 4.648 24.4214 3.40133 25.6387 2.228C26.8707 1.04 27.6481 0.489999 27.9707 0.577999ZM31.2927 8.432C31.3514 8.22667 30.8747 7.662 29.8627 6.738C28.8654 5.79933 28.2347 5.264 27.9707 5.132C27.7654 5.044 27.1567 5.51333 26.1447 6.54C25.1327 7.56667 24.6267 8.19733 24.6267 8.432C24.6414 8.63733 25.1547 9.23867 26.1667 10.236C27.1934 11.2187 27.7947 11.71 27.9707 11.71C28.1321 11.71 28.7114 11.2187 29.7087 10.236C30.7061 9.25333 31.2341 8.652 31.2927 8.432ZM27.9707 7.178C28.0734 7.23667 28.3081 7.442 28.6747 7.794C29.0561 8.13133 29.2394 8.344 29.2247 8.432C29.1954 8.50533 28.9901 8.73267 28.6087 9.114C28.2421 9.48067 28.0294 9.664 27.9707 9.664C27.8974 9.664 27.6701 9.48067 27.2887 9.114C26.9074 8.73267 26.7167 8.50533 26.7167 8.432C26.7167 8.344 26.9074 8.10933 27.2887 7.728C27.6701 7.332 27.8974 7.14867 27.9707 7.178ZM49.6378 3.966C46.1031 6.85533 44.3211 8.39533 44.2918 8.586C44.2771 8.65933 44.7098 9.05533 45.5898 9.774C46.4845 10.4927 47.3791 11.1893 48.2738 11.864L49.6378 12.876L47.5038 16.22C44.5118 13.756 42.3045 11.798 40.8818 10.346L40.6838 16.088H37.0318C37.0171 15.5307 37.0098 14.6213 37.0098 13.36C37.0098 12.0987 37.0098 10.7713 37.0098 9.378C37.0098 7.97 37.0098 6.61333 37.0098 5.308C37.0245 3.988 37.0318 2.90267 37.0318 2.052V0.754H40.9698C41.0431 1.66333 41.0431 3.79733 40.9698 7.156C41.5858 6.42267 42.4071 5.51333 43.4338 4.428C44.4605 3.34267 45.3331 2.44067 46.0518 1.722L47.1298 0.621999L49.6378 3.966ZM56.6445 11.424C56.6591 11.5267 57.1871 11.71 58.2285 11.974C59.2698 12.238 60.3038 12.48 61.3305 12.7C62.3718 12.92 62.8925 13.03 62.8925 13.03L62.1665 16.22C54.3198 14.2693 50.3965 13.0813 50.3965 12.656C50.3965 12.48 50.7485 12.0693 51.4525 11.424C52.1565 10.7787 52.8531 10.1847 53.5425 9.642L54.5985 8.806C51.7971 5.902 50.3965 4.22267 50.3965 3.768C50.3965 3.69467 50.5285 3.59933 50.7925 3.482C51.0711 3.36467 51.4378 3.24 51.8925 3.108C52.3471 2.96133 52.8678 2.81467 53.4545 2.668C54.0411 2.50667 54.6571 2.34533 55.3025 2.184C55.9625 2.02267 56.6151 1.86867 57.2605 1.722C57.9058 1.56067 58.5218 1.42133 59.1085 1.304C59.7098 1.172 60.2378 1.05467 60.6925 0.952C61.1471 0.849333 61.5065 0.768666 61.7705 0.709999L62.1665 0.621999L62.7385 4.186C62.4598 4.23 62.1005 4.28867 61.6605 4.362C61.2205 4.42067 60.5311 4.52333 59.5925 4.67C58.6538 4.81667 57.8691 4.94867 57.2385 5.066C56.6225 5.18333 56.3218 5.25667 56.3365 5.286C56.3365 5.31533 56.5931 5.60133 57.1065 6.144C57.6198 6.68667 58.1111 7.244 58.5805 7.816C59.0498 8.37333 59.2478 8.71067 59.1745 8.828C59.1158 8.93067 58.8738 9.202 58.4485 9.642C58.0231 10.082 57.6125 10.4927 57.2165 10.874L56.6445 11.424ZM73.9908 8.19C74.0934 8.20467 74.3428 5.67467 74.7388 0.599999L79.0508 1.106C79.0508 1.106 78.6401 4.54533 77.8188 11.424C77.4081 14.548 77.1441 16.1467 77.0268 16.22C76.8361 16.2933 76.0441 15.692 74.6508 14.416C73.2721 13.14 71.9301 11.8713 70.6248 10.61C69.3341 9.334 68.6814 8.72533 68.6668 8.784C68.6521 8.828 68.6228 9.114 68.5788 9.642C68.5494 10.17 68.5128 10.7933 68.4688 11.512C68.4394 12.2307 68.4101 12.9493 68.3808 13.668C68.3514 14.372 68.3294 14.966 68.3148 15.45L68.2708 16.198L64.0908 15.692C64.6188 5.704 65.2641 0.687999 66.0268 0.644C66.3348 0.629332 67.1341 1.24533 68.4248 2.492C69.7154 3.73867 70.9548 5 72.1428 6.276C73.3308 7.53733 73.9468 8.17533 73.9908 8.19Z" fill="black"/>
</svg>
