<svg width="29" height="30" viewBox="0 0 29 30" fill="none" xmlns="http://www.w3.org/2000/svg">
<path d="M14.5427 0.959999C15.1293 1.14667 16.5827 2.32 18.9027 4.48C21.2227 6.64 23.4227 8.86667 25.5027 11.16C27.5827 13.4533 28.6227 14.8133 28.6227 15.24C28.6227 15.6933 27.5827 17.0933 25.5027 19.44C23.4227 21.7867 21.2227 24.0533 18.9027 26.24C16.5827 28.4 15.1293 29.48 14.5427 29.48C14.116 29.5067 13.0893 28.8667 11.4627 27.56C9.86266 26.2267 8.20932 24.7333 6.50266 23.08C4.82266 21.4 3.35599 19.7867 2.10266 18.24C0.849323 16.6667 0.31599 15.6667 0.502656 15.24C0.769323 14.6267 1.91599 13.1333 3.94266 10.76C5.96932 8.36 8.08932 6.09333 10.3027 3.96C12.5427 1.8 13.956 0.799999 14.5427 0.959999ZM20.5827 15.24C20.6893 14.8667 19.8227 13.84 17.9827 12.16C16.1693 10.4533 15.0227 9.48 14.5427 9.24C14.1693 9.08 13.0627 9.93333 11.2227 11.8C9.38266 13.6667 8.46266 14.8133 8.46266 15.24C8.48932 15.6133 9.42266 16.7067 11.2627 18.52C13.1293 20.3067 14.2227 21.2 14.5427 21.2C14.836 21.2 15.8893 20.3067 17.7027 18.52C19.516 16.7333 20.476 15.64 20.5827 15.24ZM14.5427 12.96C14.7293 13.0667 15.156 13.44 15.8227 14.08C16.516 14.6933 16.8493 15.08 16.8227 15.24C16.7693 15.3733 16.396 15.7867 15.7027 16.48C15.036 17.1467 14.6493 17.48 14.5427 17.48C14.4093 17.48 13.996 17.1467 13.3027 16.48C12.6093 15.7867 12.2627 15.3733 12.2627 15.24C12.2627 15.08 12.6093 14.6533 13.3027 13.96C13.996 13.24 14.4093 12.9067 14.5427 12.96Z" fill="white"/>
</svg>
