<svg width="350" height="322" viewBox="0 0 350 322" fill="none" xmlns="http://www.w3.org/2000/svg">
<path d="M300.55 307.675H49.8187C30.0366 307.675 14 291.639 14 271.857V110.672C14 90.8901 30.0366 74.8535 49.8187 74.8535H300.55C320.333 74.8535 336.369 90.8901 336.369 110.672V271.857C336.369 291.639 320.333 307.675 300.55 307.675Z" stroke="black" stroke-width="26.8641"/>
<path d="M255.776 200.219C250.832 200.219 246.822 196.209 246.822 191.264C246.822 186.32 250.832 182.31 255.776 182.31C260.721 182.31 264.731 186.32 264.731 191.264C264.731 196.209 260.721 200.219 255.776 200.219Z" fill="black" stroke="black" stroke-width="26.8641" stroke-linecap="round" stroke-linejoin="round"/>
<path d="M282.641 74.8537V49.8383C282.641 26.3043 260.333 9.1652 237.593 15.229L40.5895 67.7632C24.9099 71.9445 14 86.1449 14 102.373V110.672" stroke="black" stroke-width="26.8641"/>
</svg>
